SplineFontDB: 3.0
FontName: AyannaNarrowBeta
FullName: AyannaNarrowBeta
FamilyName: AyannaNarrowBeta
Weight: Regular
Copyright: Copyright (c) 2015, Pathum,,,
UComments: "2015-3-5: Created with FontForge (http://fontforge.org)"
Version: pre
ItalicAngle: 0
UnderlinePosition: 0
UnderlineWidth: 0
Ascent: 819
Descent: 205
InvalidEm: 0
LayerCount: 4
Layer: 0 0 "Back" 1
Layer: 1 0 "Fore" 0
Layer: 2 0 "Back 2" 1
Layer: 3 0 "Back 3" 1
XUID: [1021 417 1726274797 7187508]
OS2Version: 0
OS2_WeightWidthSlopeOnly: 0
OS2_UseTypoMetrics: 1
CreationTime: 1425560291
ModificationTime: 1445000359
OS2TypoAscent: 0
OS2TypoAOffset: 1
OS2TypoDescent: 0
OS2TypoDOffset: 1
OS2TypoLinegap: 0
OS2WinAscent: 0
OS2WinAOffset: 1
OS2WinDescent: 0
OS2WinDOffset: 1
HheadAscent: 0
HheadAOffset: 1
HheadDescent: 0
HheadDOffset: 1
OS2Vendor: 'PfEd'
MarkAttachClasses: 1
DEI: 91125
Encoding: sinhala_abhaya
UnicodeInterp: none
NameList: sinhala
DisplaySize: -48
AntiAlias: 1
FitToEm: 1
WinInfo: 0 13 10
BeginPrivate: 0
EndPrivate
Grid
-1024 354 m 0
 2048 354 l 1024
293.833557129 1331 m 0
 293.833557129 -717 l 1024
-1024 594 m 0
 2048 594 l 1024
-1024 1584.5 m 0
 2048 1584.5 l 1024
-1024 79 m 0
 2048 79 l 1024
-1024 496 m 0
 2048 496 l 1024
-1024 -89 m 0
 2048 -89 l 1024
-1024 369 m 0
 2048 369 l 1024
-1024 405 m 0
 2048 405 l 1024
-1024 591 m 0
 2048 591 l 1024
-1024 811 m 0
 2048 811 l 1024
-1024 527 m 0
 2048 527 l 1024
-1024 749 m 0
 2048 749 l 1024
-1024 819 m 0
 2048 819 l 1024
-1024 115 m 0
 2048 115 l 1024
-1024 3 m 0
 2048 3 l 1024
EndSplineSet
BeginChars: 65538 500

StartChar: si_Tta
Encoding: 34 3495 0
Width: 554
VWidth: 0
Flags: HMW
LayerCount: 4
Fore
SplineSet
22 235 m 4
 22 371.176757812 91.6455078125 446.538085938 168 446.538085938 c 4
 186.904296875 446.538085938 205.248046875 441.799804688 225 432 c 5
 209 400 l 5
 194.791992188 407.103515625 181.59765625 410.538085938 168 410.538085938 c 4
 108.861328125 410.538085938 59 345.575195312 59 235 c 4
 59 145.521484375 108.591796875 40 231 40 c 4
 358.865234375 40 432 150.518554688 432 354 c 4
 432 634.014648438 341.22265625 712 230 712 c 4
 159.127929688 712 101.32421875 665.926757812 78 605 c 5
 44 618 l 5
 82 716 169.967773438 749 230 749 c 4
 362.145507812 749 470 662.955078125 470 354 c 4
 470 126.541015625 383.0390625 3 231 3 c 4
 82.259765625 3 22 128.543945312 22 235 c 4
EndSplineSet
Layer: 2
SplineSet
0.8544921875 252.396484375 m 1
 0.8544921875 381.538085938 67.8544921875 472 165.547851562 472 c 0
 193.314453125 472 222.345703125 465.063476562 250.719726562 445.2578125 c 1
 212.854492188 345 l 1
 199.006835938 352.98828125 186.3359375 356.607421875 174.990234375 356.607421875 c 0
 134.473632812 356.607421875 110.854492188 310.458984375 110.854492188 252.395507812 c 0
 110.854492188 189.243164062 138.080078125 114.999023438 231 114.999023438 c 0
 335.452148438 114.999023438 376 195.016601562 376 353.999023438 c 0
 376 582.999023438 304.6796875 639.999023438 221.854492188 639.999023438 c 0
 180.750976562 639.999023438 140.666015625 618.958984375 123.610351562 576.854492188 c 1
 14.578125 613.028320312 l 1
 50.5625 707.8671875 135.133789062 755 221.854492188 755 c 0
 361.326171875 755 492 675.859375 492 354 c 0
 492 118 411 0 231 0 c 0
 53 0 0.8544921875 136.286132812 0.8544921875 252.395507812 c 1
 0.8544921875 252.396484375 l 1
EndSplineSet
EndChar

StartChar: si_Sa
Encoding: 58 3523 1
Width: 559
VWidth: 0
Flags: HW
LayerCount: 4
Fore
SplineSet
267.721679688 454 m 0
 267.721679688 466.185546875 268.7265625 477.512695312 270.616210938 488 c 0
 283.3125 558.491210938 335.970703125 591 392.166992188 591 c 0
 448.873046875 591 508.475585938 553 508.475585938 474 c 0
 508.475585938 429.732421875 488.158203125 385.565429688 456.611328125 361 c 1
 430.611328125 382 l 1
 457.611328125 402 475 437.958984375 475 474 c 0
 475 530.04296875 432.551757812 557 392.166992188 557 c 0
 343.8046875 557 301.72265625 524.74609375 301.72265625 454 c 0
 301.72265625 435 301.72265625 416 301.72265625 402 c 1
 284.72265625 369 l 1
 275.005859375 397.663085938 267.721679688 421.383789062 267.721679688 454 c 0
68.744140625 194.102539062 m 0
 68.744140625 107.481445312 100.698242188 40 166.72265625 40 c 0
 257.888671875 40 264.48046875 148.885742188 267.72265625 224.5 c 1
 301.72265625 224.5 l 1
 304.96484375 148.885742188 311.556640625 40 402.72265625 40 c 0
 468.747070312 40 500.701171875 107.481445312 500.701171875 194.102539062 c 0
 500.701171875 252 489.571289062 369 405.72265625 369 c 2
 179.572265625 369 l 2
 81.796875 369 68.744140625 251.71484375 68.744140625 194.102539062 c 0
31.744140625 194.102539062 m 0
 31.744140625 263 51.72265625 342 85.72265625 369 c 1
 22 369 l 1
 22 405 l 1
 407.572265625 405 l 2
 437.745117188 405 461.31640625 394.708007812 479.590820312 378 c 0
 525.000976562 336.482421875 537.701171875 255.3515625 537.701171875 194.102539062 c 0
 537.701171875 86.68359375 493.6796875 3 402.72265625 3 c 0
 307.556640625 3 288.556640625 85 284.72265625 115 c 1
 280.888671875 85 261.888671875 3 166.72265625 3 c 0
 75.765625 3 31.744140625 86.68359375 31.744140625 194.102539062 c 0
60.9697265625 474 m 4
 60.9697265625 553 120.572265625 591 177.278320312 591 c 4
 233.474609375 591 286.133789062 558.491210938 298.830078125 488 c 4
 300.71875 477.512695312 301.723632812 466.185546875 301.723632812 454 c 4
 301.723632812 421.383789062 294.439453125 397.663085938 284.72265625 369 c 5
 267.72265625 402 l 5
 267.72265625 416 267.72265625 435 267.72265625 454 c 4
 267.72265625 524.74609375 225.640625 557 177.278320312 557 c 4
 136.892578125 557 94.4453125 530.04296875 94.4453125 474 c 4
 94.4453125 432 113.4453125 406 123.4453125 396 c 5
 101.4453125 376 l 5
 89.4453125 387 60.9697265625 419 60.9697265625 474 c 4
EndSplineSet
Layer: 2
SplineSet
343.485351562 391.436523438 m 5
 253.485351562 319.436523438 l 5
 241.485351562 358.436523438 234.536132812 396.735351562 234.536132812 428 c 4
 234.536132812 537.3359375 305.930664062 594 382.920898438 594 c 4
 469.48046875 594 521.580078125 532.13671875 521.580078125 456.407226562 c 4
 521.580078125 428.604492188 510.794921875 395.643554688 491.485351562 370.436523438 c 5
 413.485351562 410.436523438 l 5
 421.46875 419.560546875 428.104492188 439.108398438 428.104492188 451.1640625 c 4
 428.104492188 475 412.276367188 496 382.920898438 496 c 4
 354.39453125 496 332.165039062 471.944335938 332.165039062 434.311523438 c 4
 332.165039062 428.6484375 332.66796875 422.678710938 333.729492188 416.436523438 c 6
 343.485351562 391.436523438 l 5
184.049804688 594 m 5
 261.040039062 594 332.434570312 537.3359375 332.434570312 428 c 4
 332.434570312 396.735351562 325.485351562 357.436523438 313.485351562 318.436523438 c 5
 233.241210938 416.436523438 l 5
 234.302734375 422.678710938 234.805664062 428.6484375 234.805664062 434.311523438 c 4
 234.805664062 471.944335938 210.9609375 496.000976562 182.434570312 496.000976562 c 4
 138.5546875 496.000976562 130.07421875 443.840820312 154.434570312 413.436523438 c 5
 78.7236328125 375.436523438 l 5
 57.697265625 403.236328125 48.4345703125 433.094726562 48.4345703125 461.536132812 c 4
 48.4345703125 532.131835938 96.4345703125 594.000976562 184.049804688 594.000976562 c 5
 184.049804688 594 l 5
335.241210938 416 m 5
 399.485351562 416 l 6
 440.485351562 416 476.396484375 393.5234375 500.485351562 368.23828125 c 4
 534.3125 332.731445312 549.442382812 278.352539062 549.442382812 207 c 4
 549.442382812 95.0966796875 504.573242188 0 392.959960938 0 c 4
 340.280273438 0 300.868164062 31.6025390625 284.72265625 79.0302734375 c 5
 268.577148438 31.6025390625 229.165039062 0 176.486328125 0 c 4
 64.873046875 0 20.00390625 95.095703125 20.00390625 207 c 4
 20.00390625 248.30078125 31.486328125 294 45.486328125 319.563476562 c 5
 4.669921875 319.666992188 l 5
 4.669921875 416 l 5
 240.2421875 416 l 5
 335.2421875 416 l 5
 335.241210938 416 l 5
382.204101562 318 m 6
 187.241210938 318 l 6
 146.485351562 318 127.002929688 258.08984375 127.002929688 207 c 4
 127.002929688 157.264648438 141.19140625 115 176.485351562 115 c 4
 223.185546875 115 239.116210938 176.75 239.116210938 249.5 c 5
 330.329101562 249.5 l 5
 330.329101562 176.75 346.259765625 115 392.959960938 115 c 4
 428.25390625 115 442.442382812 157.264648438 442.442382812 207 c 4
 442.442382812 258.725585938 422.485351562 318 382.204101562 318 c 6
EndSplineSet
Layer: 3
SplineSet
1022.4921875 402 m 1
 1022.4921875 368 l 1
 979.4375 368 909.4375 368 909.4375 368 c 1
 900.4375 397 893.690429688 421 893.690429688 454 c 0
 893.690429688 548.098632812 954.979492188 591 1009.4375 591 c 0
 1069.69335938 591 1123.4375 547.701171875 1123.4375 474 c 0
 1123.4375 419 1094.96191406 387 1082.96191406 376 c 1
 1060.96191406 396 l 1
 1070.96191406 406 1089.96191406 432 1089.96191406 474 c 0
 1089.96191406 530.225585938 1054.39453125 557 1009.4375 557 c 0
 956.672851562 557 927.690429688 511 927.690429688 454 c 0
 927.690429688 435 927.690429688 415 927.690429688 402 c 1
 951.4921875 402 998.211914062 402 1022.4921875 402 c 1
798.888671875 402 m 1
 823.168945312 402 869.888671875 402 893.690429688 402 c 1
 893.690429688 416 893.690429688 435 893.690429688 454 c 0
 893.690429688 511 864.708007812 557 811.943359375 557 c 0
 766.986328125 557 731.418945312 530.225585938 731.418945312 474 c 0
 731.418945312 432 750.418945312 406 760.418945312 396 c 1
 738.418945312 376 l 1
 726.418945312 387 697.943359375 419 697.943359375 474 c 0
 697.943359375 547.701171875 751.6875 591 811.943359375 591 c 0
 866.401367188 591 927.690429688 548.098632812 927.690429688 454 c 0
 927.690429688 421 920.943359375 397 911.943359375 368 c 1
 911.943359375 368 841.943359375 368 798.888671875 368 c 1
 798.888671875 402 l 1
1162.39160156 194.102539062 m 0
 1162.39160156 86.68359375 1119.37011719 3 1028.41308594 3 c 0
 945.135742188 3 919.690429688 74 909.413085938 125 c 1
 898.690429688 74 873.690429688 3 790.413085938 3 c 0
 699.456054688 3 656.434570312 86.68359375 656.434570312 194.102539062 c 0
 656.434570312 254.91796875 672.434570312 334.442382812 704.630859375 365 c 1
 646.690429688 368 l 1
 646.690429688 405 l 1
 1025.50683594 402 l 2
 1120.40527344 401.248046875 1162.39160156 311.536132812 1162.39160156 194.102539062 c 0
1125.39160156 194.102539062 m 0
 1125.39160156 250.852539062 1111.69042969 363 1014.56347656 363 c 2
 804.262695312 363 l 0
 706.487304688 363 693.434570312 250.397460938 693.434570312 194.102539062 c 0
 693.434570312 96 725.978515625 38 788.135742188 38 c 0
 873.413085938 38 887.096679688 148.885742188 890.413085938 224.5 c 1
 928.690429688 224.5 l 1
 932.006835938 148.885742188 945.690429688 38 1030.69042969 38 c 0
 1092.84765625 38 1125.39160156 96 1125.39160156 194.102539062 c 0
394.888671875 557 m 0
 344.329101562 557 309.888671875 515.752929688 309.888671875 465 c 0
 309.888671875 439.122070312 310.943359375 410.038085938 312.888671875 389.038085938 c 1
 281.888671875 370.038085938 l 1
 275.702148438 402.045898438 272.888671875 434.590820312 272.888671875 465 c 0
 272.888671875 534.509765625 322.3203125 591 394.888671875 591 c 0
 529.458007812 591 542.748046875 428.734375 465.888671875 359 c 1
 438.888671875 379 l 1
 493.3359375 428.2265625 498.663085938 557 394.888671875 557 c 0
187.888671875 557 m 0
 84.1142578125 557 89.44140625 428.2265625 143.888671875 379 c 1
 116.888671875 359 l 1
 40.029296875 428.734375 53.3193359375 591 187.888671875 591 c 0
 260.45703125 591 309.888671875 534.509765625 309.888671875 465 c 0
 309.888671875 434.590820312 307.075195312 402.045898438 300.888671875 370.038085938 c 1
 269.888671875 389.038085938 l 1
 271.833984375 410.038085938 272.888671875 439.122070312 272.888671875 465 c 0
 272.888671875 515.752929688 238.448242188 557 187.888671875 557 c 0
544.58984375 194.102539062 m 0
 544.58984375 86.68359375 501.568359375 3 410.611328125 3 c 0
 327.333984375 3 301.888671875 74 291.611328125 125 c 1
 280.888671875 74 255.888671875 3 172.611328125 3 c 0
 81.654296875 3 38.6328125 86.68359375 38.6328125 194.102539062 c 0
 38.6328125 254.91796875 54.6328125 334.442382812 86.8291015625 365 c 1
 38.3896484375 365 l 1
 38.3896484375 402 l 1
 407.705078125 402 l 2
 502.609375 402 544.58984375 311.536132812 544.58984375 194.102539062 c 0
507.58984375 194.102539062 m 0
 507.58984375 250.852539062 493.888671875 363 396.76171875 363 c 2
 186.4609375 363 l 0
 88.685546875 363 75.6328125 250.397460938 75.6328125 194.102539062 c 0
 75.6328125 96 108.176757812 38 170.333984375 38 c 0
 255.611328125 38 269.294921875 148.885742188 272.611328125 224.5 c 1
 310.888671875 224.5 l 1
 314.205078125 148.885742188 327.888671875 38 412.888671875 38 c 0
 475.045898438 38 507.58984375 96 507.58984375 194.102539062 c 0
EndSplineSet
EndChar

StartChar: si_La
Encoding: 54 3517 2
Width: 547
VWidth: 0
Flags: HW
LayerCount: 4
Fore
SplineSet
22 208 m 0
 22 411.56640625 94.93359375 591 287.279296875 591 c 0
 450.80078125 591 525.4453125 451.985351562 525.4453125 332 c 0
 525.4453125 201.864257812 472.44921875 100 357.4453125 100 c 0
 271.4453125 100 232.4453125 166.72265625 232.4453125 228 c 0
 232.4453125 272.068359375 254.116210938 313.815429688 297.319335938 335 c 1
 202.4453125 335.004882812 l 1
 202.4453125 369.393554688 l 1
 363.4453125 369.393554688 l 1
 363.4453125 332.393554688 l 1
 297.064453125 319.016601562 269.4453125 270.135742188 269.4453125 228 c 0
 269.4453125 177.299804688 310.2734375 137 357.4453125 137 c 0
 464.669921875 137 488.4453125 243.14453125 488.4453125 332 c 0
 488.4453125 455.41796875 402.704101562 554 287.279296875 554 c 0
 128.4453125 554 59 385 59 208 c 0
 59 13 138.477539062 -112 283.279296875 -112 c 0
 400.279296875 -112 462.954101562 -34.6640625 481.279296875 37 c 1
 516.279296875 31 l 1
 494.71484375 -55.57421875 429.279296875 -149 283.279296875 -149 c 0
 106.453125 -149 22 0.27734375 22 208 c 0
EndSplineSet
Layer: 2
SplineSet
287.279296875 479 m 5
 158.4140625 479 111.5 352.634765625 111.5 208 c 4
 111.5 65.4228515625 177.174804688 -39 283.279296875 -39 c 4
 358.427734375 -39 411.015625 9.4287109375 419.842773438 73 c 5
 533.279296875 57 l 5
 520.944335938 -57.1005859375 430.36328125 -154 283.279296875 -154 c 4
 87.17578125 -154 -3.5 6 -3.5 208 c 4
 -3.5 403.26953125 73.3955078125 594 287.279296875 594 c 4
 459.78125 594 538.279296875 451 538.279296875 332 c 4
 538.279296875 195 475.087890625 88 358.279296875 88 c 4
 193.58203125 88 178.876953125 237.893554688 219.071289062 299.893554688 c 5
 176.071289062 299.893554688 l 5
 177.071289062 394.893554688 l 5
 372.071289062 394.893554688 l 5
 372.071289062 299.893554688 l 5
 324.071289062 299.893554688 306.279296875 269.705078125 306.279296875 242.063476562 c 4
 306.279296875 218.723632812 327.69140625 197.200195312 356.279296875 197.200195312 c 4
 406.279296875 197.200195312 424.279296875 262 424.279296875 332.000976562 c 4
 424.279296875 427.026367188 378.927734375 479.000976562 287.279296875 479.000976562 c 5
 287.279296875 479 l 5
EndSplineSet
EndChar

StartChar: si_Ddha
Encoding: 37 3498 3
Width: 570
VWidth: 0
Flags: HW
LayerCount: 4
Fore
SplineSet
288.254882812 603 m 0
 288.254882812 667.297851562 330.73828125 706.649414062 330.73828125 740.684570312 c 0
 330.73828125 754.21875 324.020507812 766.912109375 305.243164062 780 c 1
 305.243164062 780 368.852539062 761 368.852539062 761 c 1
 366.5078125 749.58984375 362.952148438 726.290039062 362.952148438 726.290039062 c 1
 362.952148438 693.052734375 324.243164062 661.163085938 324.243164062 603 c 0
 324.243164062 561.561523438 365.989257812 524.958984375 429.211914062 524.958984375 c 0
 437.668945312 524.958984375 446.509765625 525.614257812 455.686523438 527 c 1
 478.852539062 522 l 1
 463.686523438 494 l 1
 451.438476562 492.012695312 439.639648438 491.073242188 428.352539062 491.073242188 c 0
 343.971679688 491.073242188 288.254882812 543.567382812 288.254882812 603 c 0
22.2431640625 179.102539062 m 0
 22.2431640625 248 42.2216796875 327 76.2216796875 354 c 1
 22 354 l 1
 22 389 l 1
 299.283203125 389 l 1
 307.006835938 354 l 1
 170.071289062 354 l 2
 72.2958984375 354 59.2431640625 236.71484375 59.2431640625 179.102539062 c 0
 59.2431640625 101.944335938 83.6435546875 40 145.686523438 40 c 0
 236.852539062 40 243.444335938 148.885742188 246.686523438 224.5 c 1
 280.686523438 224.5 l 1
 283.928710938 148.885742188 290.520507812 40 381.686523438 40 c 0
 474.419921875 40 481.243164062 164 481.243164062 293 c 0
 481.243164062 382.18359375 471.970703125 458.762695312 455.711914062 524 c 1
 434.534179688 608.981445312 401.501953125 674.717773438 361.672851562 724 c 1
 344.047851562 745.807617188 325.091796875 764.393554688 305.243164062 780 c 1
 328.243164062 807 l 1
 390.79296875 758.918945312 445.12890625 684.03515625 479.486328125 576 c 0
 503.915039062 499.186523438 518.243164062 405.61328125 518.243164062 293 c 0
 518.243164062 145.134765625 508.883789062 3 381.686523438 3 c 0
 286.520507812 3 267.520507812 85 263.686523438 115 c 1
 259.852539062 85 240.852539062 3 145.686523438 3 c 0
 57.0869140625 3 22.2431640625 81.4208984375 22.2431640625 179.102539062 c 0
75.0068359375 420 m 0
 75.0068359375 488 126.350585938 524 185.006835938 524 c 0
 249.563476562 524 309.451171875 481.098632812 309.451171875 387 c 0
 309.451171875 375.040039062 308.565429688 364.26171875 307.006835938 354 c 1
 275.626953125 379 l 1
 275.534179688 381.637695312 275.451171875 384.229492188 275.451171875 387 c 0
 275.451171875 457.74609375 233.369140625 490 185.006835938 490 c 0
 143.049804688 490 108.482421875 467 108.482421875 420 c 0
 108.482421875 395.599609375 118.006835938 376 131.006835938 364 c 9
 106.825195312 344 l 17
 91.0068359375 358 75.0068359375 388.0234375 75.0068359375 420 c 0
EndSplineSet
Layer: 2
SplineSet
10.9677734375 193.436523438 m 1
 10.9677734375 234.73828125 22.4501953125 280.436523438 36.4501953125 306 c 1
 5.2060546875 306 l 1
 5.2060546875 391 l 1
 294.44921875 389.5 l 1
 327.951171875 306 l 1
 178.206054688 306 l 2
 137.450195312 306 117.967773438 245.162109375 117.967773438 193.436523438 c 0
 117.967773438 156.328125 123.641601562 114.65234375 160.899414062 114.65234375 c 0
 203.075195312 114.65234375 218.081054688 179.677734375 218.081054688 249.500976562 c 1
 313.9921875 249.500976562 l 1
 313.9921875 176.750976562 329.459960938 115.000976562 372.450195312 115.000976562 c 0
 429.206054688 115.000976562 429.206054688 239.958984375 429.206054688 293.000976562 c 0
 429.206054688 384.548828125 414.34375 481.405273438 395.704101562 545.000976562 c 1
 389.965820312 579.000976562 371.965820312 628.000976562 349.8828125 648.000976562 c 1
 327.145507812 683.221679688 298.645507812 712.004882812 263.861328125 733.000976562 c 1
 335.861328125 817.000976562 l 1
 414.838867188 764.921875 469.25 686.228515625 501.348632812 588.000976562 c 0
 525.336914062 514.591796875 544.206054688 410.000976562 544.206054688 293.000976562 c 0
 544.206054688 181.997070312 543.206054688 0.0009765625 372.450195312 0.0009765625 c 0
 316.530273438 0.0009765625 278.5078125 33.1455078125 263.686523438 79.03125 c 1
 247.541015625 31.603515625 208.12890625 0.0009765625 155.450195312 0.0009765625 c 0
 39.6494140625 0.0009765625 10.9677734375 105.455078125 10.9677734375 193.4375 c 1
 10.9677734375 193.436523438 l 1
63.54296875 409.272460938 m 1
 63.54296875 481.53515625 112.513671875 531.563476562 186.815429688 531.563476562 c 0
 263.801757812 531.563476562 335.200195312 474.8984375 335.200195312 365.563476562 c 0
 335.200195312 350.999023438 332.006835938 324.999023438 327.951171875 305.999023438 c 1
 237.571289062 371.874023438 l 1
 244.111328125 405.999023438 228.111328125 443.999023438 186.815429688 443.999023438 c 0
 162.015625 443.999023438 153.0234375 426.1328125 153.0234375 404.786132812 c 0
 153.0234375 386.79296875 165.30859375 370.32421875 174.006835938 355.999023438 c 1
 94.0068359375 318.563476562 l 1
 74.0068359375 350.999023438 63.54296875 380.619140625 63.54296875 409.272460938 c 1
 63.54296875 409.272460938 l 1
370.1875 755 m 1
 350.965820312 647 l 1
 334.586914062 639.98046875 324.965820312 621.141601562 324.965820312 605 c 0
 324.965820312 584 346.965820312 554 397.965820312 546 c 1
 482.1875 524 l 1
 414.861328125 461 l 1
 337.241210938 463.250976562 238.977539062 525 238.977539062 611.133789062 c 0
 238.977539062 686.51171875 311.76953125 697.581054688 263.861328125 733 c 1
 370.1875 755 l 1
EndSplineSet
Layer: 3
SplineSet
279.060546875 387.000976562 m 4
 279.060546875 457.747070312 236.978515625 490.000976562 188.616210938 490.000976562 c 4
 146.659179688 490.000976562 112.091796875 467.000976562 112.091796875 420.000976562 c 4
 112.091796875 395.600585938 121.616210938 376.000976562 134.616210938 364.000976562 c 4
 110.434570312 344.000976562 l 4
 94.6162109375 358.000976562 78.6162109375 388.024414062 78.6162109375 420.000976562 c 4
 78.6162109375 488.000976562 129.959960938 524.000976562 188.616210938 524.000976562 c 4
 253.171875 524.000976562 313.060546875 481.099609375 313.060546875 387.000976562 c 4
 313.060546875 375.041015625 312.174804688 364.262695312 310.616210938 354.000976562 c 5
 279.236328125 379.000976562 l 5
 279.143554688 381.638671875 279.060546875 384.23046875 279.060546875 387.000976562 c 4
324.243164062 603 m 4
 324.243164062 556.018554688 377.904296875 515.25390625 455.686523438 527 c 5
 466.827148438 541.603515625 467.432617188 561.625 469.686523438 563 c 5
 469.686523438 563 485.913085938 504.630859375 463.686523438 494 c 5
 359.874023438 477.154296875 288.254882812 535.618164062 288.254882812 603 c 4
 288.254882812 692.866210938 371.243164062 734 305.243164062 780 c 5
 330.243164062 785 369.243164062 758 369.243164062 758 c 5
 362.686523438 731 l 5
 366.686523438 696 324.243164062 663.903320312 324.243164062 603 c 4
518.243164062 293 m 4
 518.243164062 145.134765625 508.883789062 3 381.686523438 3 c 4
 286.520507812 3 267.520507812 85 263.686523438 115 c 5
 259.852539062 85 240.852539062 3 145.686523438 3 c 4
 57.0869140625 3 22.2431640625 81.4208984375 22.2431640625 179.102539062 c 4
 22.2431640625 248 42.2216796875 327 76.2216796875 354 c 5
 22 354 l 5
 22 389 l 5
 294.51953125 389 l 5
 310.616210938 354.000976562 l 5
 170.071289062 354 l 4
 72.2958984375 354 59.2431640625 236.71484375 59.2431640625 179.102539062 c 4
 59.2431640625 101.944335938 83.6435546875 40 145.686523438 40 c 4
 236.852539062 40 243.444335938 148.885742188 246.686523438 224.5 c 5
 280.686523438 224.5 l 5
 283.928710938 148.885742188 290.520507812 40 381.686523438 40 c 4
 474.419921875 40 481.243164062 164 481.243164062 293 c 4
 481.243164062 549.764648438 404.380859375 702.053710938 305.243164062 780 c 5
 328.243164062 807 l 5
 435.266601562 724.732421875 518.243164062 564 518.243164062 293 c 4
EndSplineSet
EndChar

StartChar: si_Dda
Encoding: 36 3497 4
Width: 570
VWidth: 0
Flags: HMW
LayerCount: 4
Fore
SplineSet
22.2431640625 179.102539062 m 4
 22.2431640625 248 42.2216796875 327 76.2216796875 354 c 5
 22 354 l 5
 22 389 l 5
 299.283203125 389 l 5
 307.006835938 354 l 5
 170.071289062 354 l 6
 72.2958984375 354 59.2431640625 236.71484375 59.2431640625 179.102539062 c 4
 59.2431640625 101.944335938 83.642578125 40 145.686523438 40 c 4
 236.852539062 40 243.444335938 148.885742188 246.686523438 224.5 c 5
 280.686523438 224.5 l 5
 283.928710938 148.885742188 290.520507812 40 381.686523438 40 c 4
 474.419921875 40 481.243164062 164 481.243164062 293 c 4
 481.243164062 576.88671875 406.791992188 712 253.686523438 712 c 4
 182.814453125 712 114.337890625 665.926757812 91.013671875 605 c 5
 57.013671875 618 l 5
 85.212890625 692.592773438 168.000976562 749 253.686523438 749 c 4
 431.686523438 749 518.243164062 601.955078125 518.243164062 293 c 4
 518.243164062 145.134765625 508.883789062 3 381.686523438 3 c 4
 286.520507812 3 267.520507812 85 263.686523438 115 c 5
 259.852539062 85 240.852539062 3 145.686523438 3 c 4
 57.0869140625 3 22.2431640625 81.4208984375 22.2431640625 179.102539062 c 4
75.0068359375 420 m 4
 75.0068359375 488 126.350585938 524 185.006835938 524 c 4
 249.563476562 524 309.451171875 481.098632812 309.451171875 387 c 4
 309.451171875 375.040039062 308.565429688 364.26171875 307.006835938 354 c 5
 275.626953125 379 l 5
 275.534179688 381.637695312 275.451171875 384.229492188 275.451171875 387 c 4
 275.451171875 457.74609375 233.369140625 490 185.006835938 490 c 4
 143.049804688 490 108.482421875 467 108.482421875 420 c 4
 108.482421875 395.599609375 118.006835938 376 131.006835938 364 c 4
 106.825195312 344 l 4
 91.0068359375 358 75.0068359375 388.0234375 75.0068359375 420 c 4
EndSplineSet
Layer: 2
SplineSet
372.448242188 114.999023438 m 5
 429.204101562 114.999023438 429.204101562 239.95703125 429.204101562 292.999023438 c 4
 429.204101562 522.795898438 386.204101562 639.883789062 248.204101562 639.883789062 c 4
 207.100585938 639.883789062 159.44140625 618.958984375 142.38671875 576.854492188 c 5
 33.3544921875 613.028320312 l 5
 69.3388671875 707.8671875 161.484375 755 248.205078125 755 c 4
 465.205078125 755 544.205078125 599.055664062 544.205078125 293 c 4
 544.205078125 181.995117188 543.205078125 0 372.44921875 0 c 4
 316.529296875 0 278.506835938 33.1435546875 263.686523438 79.0302734375 c 5
 247.541015625 31.6025390625 208.12890625 0 155.44921875 0 c 4
 39.6494140625 0 10.9677734375 105.453125 10.9677734375 193.436523438 c 4
 10.9677734375 234.737304688 22.4501953125 280.436523438 36.4501953125 306 c 5
 5.2060546875 306 l 5
 5.2060546875 391 l 5
 294.44921875 389.5 l 5
 327.951171875 306 l 5
 178.206054688 306 l 6
 137.450195312 306 117.967773438 245.162109375 117.967773438 193.436523438 c 4
 117.967773438 156.328125 123.641601562 114.65234375 160.899414062 114.65234375 c 4
 203.075195312 114.65234375 218.081054688 179.677734375 218.081054688 249.5 c 5
 313.9921875 249.5 l 5
 313.9921875 176.75 329.459960938 115 372.450195312 115 c 5
 372.448242188 114.999023438 l 5
63.541015625 409.271484375 m 5
 63.541015625 481.534179688 112.51171875 531.5625 186.813476562 531.5625 c 4
 263.799804688 531.5625 335.198242188 474.897460938 335.198242188 365.5625 c 4
 335.198242188 350.998046875 332.004882812 324.998046875 327.94921875 305.998046875 c 5
 237.569335938 371.873046875 l 5
 244.109375 405.998046875 228.109375 443.998046875 186.813476562 443.998046875 c 4
 162.013671875 443.998046875 153.021484375 426.131835938 153.021484375 404.78515625 c 4
 153.021484375 386.791992188 165.306640625 370.323242188 174.004882812 355.998046875 c 5
 94.0048828125 318.5625 l 5
 74.0048828125 350.998046875 63.541015625 380.618164062 63.541015625 409.271484375 c 5
 63.541015625 409.271484375 l 5
EndSplineSet
Layer: 3
SplineSet
481.243164062 293 m 0
 481.243164062 576.88671875 406.791992188 712 253.686523438 712 c 0
 182.814453125 712 114.337890625 665.926757812 91.013671875 605 c 1
 57.013671875 618 l 1
 85.212890625 692.592773438 168.000976562 749 253.686523438 749 c 0
 431.686523438 749 518.243164062 601.955078125 518.243164062 293 c 0
 518.243164062 145.134765625 508.883789062 3 381.686523438 3 c 0
 286.520507812 3 267.520507812 85 263.686523438 115 c 1
 259.852539062 85 240.852539062 3 145.686523438 3 c 0
 57.0869140625 3 22.2431640625 81.4208984375 22.2431640625 179.102539062 c 0
 22.2431640625 248 42.2216796875 327 76.2216796875 354 c 1
 22 354 l 1
 22 389 l 1
 294.51953125 389 l 1
 302.243164062 354 l 1
 170.071289062 354 l 0
 72.2958984375 354 59.2431640625 236.71484375 59.2431640625 179.102539062 c 0
 59.2431640625 101.944335938 83.642578125 40 145.686523438 40 c 0
 236.852539062 40 243.444335938 148.885742188 246.686523438 224.5 c 1
 280.686523438 224.5 l 1
 283.928710938 148.885742188 290.520507812 40 381.686523438 40 c 0
 474.419921875 40 481.243164062 164 481.243164062 293 c 0
268.6875 388 m 0
 268.6875 458.74609375 226.60546875 491 178.243164062 491 c 0
 136.286132812 491 101.71875 468 101.71875 421 c 0
 101.71875 396.599609375 111.243164062 377 124.243164062 365 c 0
 100.061523438 345 l 0
 84.2431640625 359 68.2431640625 389.0234375 68.2431640625 421 c 0
 68.2431640625 489 119.586914062 525 178.243164062 525 c 0
 242.799804688 525 302.6875 482.098632812 302.6875 388 c 0
 302.6875 376.040039062 301.801757812 365.26171875 300.243164062 355 c 1
 268.86328125 380 l 1
 268.770507812 382.637695312 268.6875 385.229492188 268.6875 388 c 0
EndSplineSet
EndChar

StartChar: si_A
Encoding: 3 3461 5
Width: 525
VWidth: 0
Flags: HW
LayerCount: 4
Fore
SplineSet
318 -205 m 1
 315.64453125 408 l 1
 318 425 329.93359375 469.961914062 340 490 c 1
 364 539 411.000976562 585.236328125 479 599 c 1
 489.84375 574.5625 l 1
 477.432617188 565.217773438 473 551.4921875 473 535 c 0
 473 499.147460938 503 454.956054688 503 411 c 0
 503 358.44140625 473.578125 320.267578125 405.747070312 320.267578125 c 0
 389.689453125 320.267578125 365 326 351 333 c 1
 351 367 l 1
 369 357 386.82421875 354.141601562 400.95703125 354.141601562 c 0
 447.078125 354.141601562 467 377.224609375 467 411 c 0
 467 441.546875 441.850585938 489.447265625 441.850585938 528.16015625 c 0
 441.850585938 536.640625 443.057617188 544.680664062 446 552 c 1
 418 542 359.5 487.690429688 355 422.986328125 c 1
 355 -205 l 1
 318 -205 l 1
22 212 m 0
 22 312.681640625 95 411 218.9453125 411 c 0
 243.225585938 411 291 411 314.801757812 411 c 1
 316.801757812 422 320 438.288085938 320 454 c 0
 320 524.74609375 277.91796875 557 229.555664062 557 c 0
 189.170898438 557 146.72265625 530.04296875 146.72265625 474 c 0
 146.72265625 431.346679688 168.466796875 406.530273438 177.629882812 398 c 1
 153.72265625 376 l 1
 141.72265625 387 113.247070312 419 113.247070312 474 c 0
 113.247070312 553 172.849609375 591 229.555664062 591 c 0
 294.112304688 591 354 548.098632812 354 454 c 0
 354 424.453125 349 399.96484375 340 374 c 1
 340 374 262 374 218.9453125 374 c 0
 119.143554688 374 59 295.036132812 59 212 c 0
 59 107.483398438 137.333007812 40 244 40 c 0
 372 40 431.475585938 105.709960938 464 138 c 1
 487 113 l 1
 451.962890625 76.919921875 388 3 244 3 c 0
 116 3 22 85 22 212 c 0
EndSplineSet
Layer: 2
SplineSet
262 115 m 4
 380.682617188 115 435.629882812 174.814453125 456 194 c 5
 525 111 l 5
 505.986328125 91.62109375 463.98828125 42.2705078125 384 17.46484375 c 4
 350.047851562 6.9365234375 309.698242188 0 262 0 c 4
 94.4482421875 0 13.740234375 96.6640625 13.740234375 217 c 4
 13.740234375 330.947265625 110.423828125 421.3515625 230.740234375 421.3515625 c 5
 249.575195312 421.3515625 261.740234375 420 279.546875 418.436523438 c 5
 280.608398438 424.678710938 281.111328125 430.6484375 281.111328125 436.311523438 c 4
 281.111328125 473.944335938 258.881835938 498 230.35546875 498 c 4
 201 498 185.171875 477 185.171875 453.1640625 c 4
 185.171875 441.108398438 188.756835938 428.124023438 196.740234375 419 c 5
 118.740234375 379 l 5
 99.4306640625 404.20703125 91.6962890625 430.604492188 91.6962890625 458.407226562 c 4
 91.6962890625 534.13671875 143.795898438 596 230.35546875 596 c 4
 307.345703125 596 378.740234375 539.3359375 378.740234375 430 c 4
 378.740234375 398.735351562 371.740234375 357 359.740234375 318 c 5
 359.740234375 318 279.271484375 318 230.740234375 318 c 4
 174.740234375 318 129.740234375 273 129.740234375 217 c 4
 129.740234375 161 164.337890625 115 262 115 c 4
427 489 m 1
 380 457 386.598632812 403.255859375 386 327.2265625 c 1
 386 -205 l 1
 282 -205 l 1
 282 -4 l 1
 279.625 416 l 1
 279.625 416 292 489 337.694335938 533.184570312 c 1
 340.16015625 535.82421875 410.241210938 613.930664062 484.794921875 613.930664062 c 1
 485.072265625 614.115234375 520.84375 560.6484375 527 552 c 1
 515.345703125 545.444335938 511.516601562 532.885742188 511.516601562 516.64453125 c 0
 511.516601562 485.538085938 525.560546875 440.918945312 525.560546875 399.081054688 c 0
 525.560546875 342.80859375 485 278 381 298 c 1
 382 378 l 1
 424.263671875 374.158203125 441.592773438 389.5546875 441.592773438 418.328125 c 0
 441.592773438 442.663085938 431.44140625 471.303710938 427 489 c 1
EndSplineSet
Layer: 3
SplineSet
660.247070312 474 m 0
 660.247070312 553 719.849609375 591 776.555664062 591 c 0
 841.112304688 591 901 548.098632812 901 454 c 0
 901 424.453125 896 402.96484375 887 377 c 1
 887 377 809 377 765.9453125 377 c 0
 666.143554688 377 613 300.036132812 613 217 c 0
 613 112.143554688 697.583984375 56 791 56 c 0
 919 56 978.475585938 123.721679688 1011 157 c 1
 1034 132 l 1
 998.962890625 95.919921875 935 22 791 22 c 0
 678.166015625 22 576 90 576 217 c 0
 576 317.681640625 642 411 765.9453125 411 c 0
 790.225585938 411 838 411 861.801757812 411 c 1
 863.801757812 422 867 438.288085938 867 454 c 0
 867 524.74609375 824.91796875 557 776.555664062 557 c 0
 736.170898438 557 693.72265625 530.04296875 693.72265625 474 c 0
 693.72265625 431.346679688 715.466796875 406.530273438 724.629882812 398 c 1
 700.72265625 376 l 1
 688.72265625 387 660.247070312 419 660.247070312 474 c 0
865 -202 m 1
 862.64453125 408 l 1
 865 425 876.93359375 469.961914062 887 490 c 1
 911 539 958.000976562 585.236328125 1026 599 c 1
 1036.84375 574.5625 l 1
 1024.43261719 565.217773438 1020 551.4921875 1020 535 c 0
 1020 499.147460938 1050 454.956054688 1050 411 c 0
 1050 358.44140625 1020.578125 320.267578125 952.747070312 320.267578125 c 0
 936.689453125 320.267578125 912 326 898 333 c 1
 898 367 l 1
 916 357 933.82421875 354.141601562 947.95703125 354.141601562 c 0
 994.078125 354.141601562 1014 377.224609375 1014 411 c 0
 1014 448.23828125 976.624023438 511.266601562 993 552 c 1
 965 542 906.5 487.690429688 902 422.986328125 c 1
 902 -202 l 1
 865 -202 l 1
66 217 m 0
 66 112.143554688 150.583984375 56 244 56 c 0
 372 56 431.475585938 123.721679688 464 157 c 1
 487 132 l 1
 451.962890625 95.919921875 388 22 244 22 c 0
 131.166015625 22 29 90 29 217 c 0
 29 317.681640625 95 411 218.9453125 411 c 0
 243.225585938 411 283 411 306.801757812 411 c 1
 311 420.922851562 313.747070312 438.288085938 313.747070312 454 c 0
 313.747070312 511 284.764648438 557 232 557 c 0
 187.04296875 557 151.475585938 530.225585938 151.475585938 474 c 0
 151.475585938 432 170.475585938 406 180.475585938 396 c 1
 158.475585938 376 l 1
 146.475585938 387 118 419 118 474 c 0
 118 547.701171875 171.744140625 591 232 591 c 0
 286.458007812 591 347.747070312 548.098632812 347.747070312 454 c 0
 347.747070312 424.453125 341 402.96484375 332 377 c 1
 332 377 262 377 218.9453125 377 c 0
 119.143554688 377 66 300.036132812 66 217 c 0
318 -202 m 1
 315.64453125 433.729492188 l 1
 319.19140625 451.048828125 324.93359375 470.961914062 335 491 c 1
 359 540 406.000976562 584.236328125 474 598 c 1
 479.014648438 590.592773438 485.840820312 580.48046875 489.84375 574.5625 c 1
 477.432617188 565.217773438 473 551.4921875 473 535 c 0
 473 499.147460938 503 454.956054688 503 411 c 0
 503 358.44140625 473.578125 320.267578125 405.747070312 320.267578125 c 0
 389.689453125 320.267578125 365 326 351 333 c 1
 351 367 l 1
 369 357 386.82421875 354.141601562 400.95703125 354.141601562 c 0
 447.078125 354.141601562 467 377.224609375 467 411 c 0
 467 448.23828125 429.624023438 511.266601562 446 552 c 1
 418 542 359.5 487.690429688 355 422.986328125 c 1
 355 -202 l 1
 318 -202 l 1
EndSplineSet
EndChar

StartChar: si_U
Encoding: 9 3467 6
Width: 548
VWidth: 0
Flags: HW
LayerCount: 4
Fore
SplineSet
22 132.999023438 m 4
 22 327 145.294921875 411 269.240234375 411 c 4
 293.520507812 411 341.294921875 411 365.096679688 411 c 5
 367.096679688 422 370.294921875 438.288085938 370.294921875 454 c 4
 370.294921875 524.74609375 328.212890625 557 279.850585938 557 c 4
 239.465820312 557 197.017578125 530.04296875 197.017578125 474 c 4
 197.017578125 431.346679688 218.76171875 406.530273438 227.924804688 398 c 5
 204.017578125 376 l 5
 192.017578125 387 163.541992188 419 163.541992188 474 c 4
 163.541992188 553 223.14453125 591 279.850585938 591 c 4
 344.407226562 591 404.294921875 548.098632812 404.294921875 454 c 4
 404.294921875 424.453125 399.294921875 399.96484375 390.294921875 374 c 5
 390.294921875 374 312.294921875 374 269.240234375 374 c 4
 165.34765625 374 62 301.1796875 62 133 c 4
 62 8.2666015625 123.573242188 -113 263 -113 c 4
 380 -113 442.674804688 -36.1826171875 461 35 c 5
 496 29 l 5
 474.435546875 -57.57421875 409 -151 263 -151 c 4
 95.826171875 -151 22 -11.001953125 22 132.999023438 c 4
EndSplineSet
Layer: 2
SplineSet
623.166015625 134.999023438 m 0
 623.166015625 -9.001953125 696.9921875 -149 864.166015625 -149 c 0
 1010.16601562 -149 1075.6015625 -55.57421875 1097.16601562 31 c 1
 1062.16601562 37 l 1
 1043.84082031 -34.6640625 981.166015625 -112 864.166015625 -112 c 0
 724.739257812 -112 663.166015625 9.759765625 663.166015625 135 c 0
 663.166015625 254.170898438 734.45703125 350 882.201171875 350 c 0
 988.454101562 350 l 1
 995.625 378.379882812 1000.20117188 410.493164062 1000.20117188 432 c 0
 1000.20117188 526.098632812 942.59765625 568 881.81640625 568 c 0
 822.54296875 568 787.140625 535.05859375 776.282226562 488.596679688 c 1
 812.985351562 486.538085938 l 1
 823.307617188 510.354492188 849.002929688 530 881.81640625 530 c 0
 930.2421875 530 962.572265625 487.697265625 962.572265625 438.311523438 c 0
 962.572265625 430.872070312 961.912109375 423.221679688 960.583007812 415.407226562 c 0
 955.9453125 388.131835938 l 1
 928.383789062 390.551757812 l 0
 910.079101562 389.086914062 899.501953125 388 882.201171875 388 c 0
 707.4765625 388 623.166015625 275.233398438 623.166015625 134.999023438 c 0
109 135 m 1
 109 134.999023438 l 1
 109 42.458984375 157.209960938 -36.0009765625 263 -36.0009765625 c 0
 338.1484375 -36.0009765625 390.735351562 11.9951171875 399.5625 74.9990234375 c 1
 513 58.9990234375 l 1
 500.665039062 -55.1015625 410.083984375 -152.000976562 263 -152.000976562 c 0
 76.837890625 -152.000976562 -8 -20.3154296875 -8 134.999023438 c 0
 -8 295.01953125 74.5693359375 423.3515625 281.03515625 423.3515625 c 0
 299.870117188 423.3515625 312.03515625 422 329.841796875 420.436523438 c 1
 330.903320312 426.678710938 331.40625 432.6484375 331.40625 438.311523438 c 0
 331.40625 475.944335938 309.176757812 500 280.650390625 500 c 0
 251.294921875 500 235.466796875 479 235.466796875 455.1640625 c 0
 235.466796875 443.108398438 239.051757812 430.124023438 247.03515625 421 c 1
 169.03515625 381 l 1
 149.725585938 406.20703125 141.991210938 432.604492188 141.991210938 460.407226562 c 0
 141.991210938 536.13671875 194.090820312 598 280.650390625 598 c 0
 357.640625 598 429.03515625 541.3359375 429.03515625 432 c 0
 429.03515625 400.735351562 422.03515625 359 410.03515625 320 c 1
 281.03515625 320 l 2
 163 320 109 242.90625 109 135 c 1
EndSplineSet
Layer: 3
SplineSet
286.111328125 368 m 4
 186.309570312 368 69.166015625 294 69.166015625 135 c 4
 69.166015625 9.759765625 130.739257812 -112 270.166015625 -112 c 4
 387.166015625 -112 449.840820312 -34.6640625 468.166015625 37 c 5
 503.166015625 31 l 5
 481.6015625 -55.57421875 416.166015625 -149 270.166015625 -149 c 4
 102.9921875 -149 29.166015625 -9.001953125 29.166015625 134.999023438 c 4
 29.166015625 318 162.166015625 402 286.111328125 402 c 4
 310.391601562 402 350.166015625 402 373.967773438 402 c 5
 378.166015625 414 380.913085938 435 380.913085938 454 c 4
 380.913085938 511 351.930664062 557 299.166015625 557 c 4
 254.208984375 557 218.641601562 530.225585938 218.641601562 474 c 4
 218.641601562 432 237.641601562 406 247.641601562 396 c 5
 225.641601562 376 l 5
 213.641601562 387 185.166015625 419 185.166015625 474 c 4
 185.166015625 547.701171875 238.91015625 591 299.166015625 591 c 4
 353.624023438 591 414.913085938 548.098632812 414.913085938 454 c 4
 414.913085938 421 408.166015625 397 399.166015625 368 c 5
 399.166015625 368 329.166015625 368 286.111328125 368 c 4
EndSplineSet
EndChar

StartChar: si_Da
Encoding: 42 3503 7
Width: 389
VWidth: 0
Flags: HW
LayerCount: 4
Fore
SplineSet
21.5576171875 212 m 4
 21.5576171875 312.681640625 94.5576171875 411 218.502929688 411 c 4
 242.783203125 411 290.557617188 411 314.359375 411 c 5
 316.359375 422 319.557617188 438.288085938 319.557617188 454 c 4
 319.557617188 524.74609375 277.475585938 557 229.11328125 557 c 4
 188.728515625 557 146.280273438 530.04296875 146.280273438 474 c 4
 146.280273438 431.346679688 168.024414062 406.530273438 177.1875 398 c 5
 153.280273438 376 l 5
 141.280273438 387 112.8046875 419 112.8046875 474 c 4
 112.8046875 553 172.407226562 591 229.11328125 591 c 4
 293.669921875 591 353.557617188 548.098632812 353.557617188 454 c 4
 353.557617188 424.453125 348.557617188 399.96484375 339.557617188 374 c 5
 339.557617188 374 261.557617188 374 218.502929688 374 c 4
 118.701171875 374 58.5576171875 295.036132812 58.5576171875 212 c 4
 58.5576171875 101.981445312 139.893554688 41.841796875 222.400390625 41.841796875 c 4
 273.680664062 41.841796875 325.4140625 65.07421875 358.352539062 114 c 5
 387.629882812 91.6962890625 l 5
 347.411132812 31.5458984375 284.245117188 2.998046875 221.629882812 2.998046875 c 4
 120.879882812 2.998046875 21.5576171875 76.908203125 21.5576171875 212 c 4
161.681640625 -57 m 4
 161.681640625 -24.1728515625 169.42578125 1.595703125 194.352539062 34 c 5
 223.352539062 36 l 5
 225.352539062 17 l 5
 203.204101562 -8.83984375 198.681640625 -30.4658203125 198.681640625 -57 c 4
 198.681640625 -111.587890625 239.1484375 -156.696289062 294.352539062 -156.696289062 c 4
 347.791015625 -156.696289062 381.770507812 -132.9765625 409.72265625 -83 c 5
 439 -105.303710938 l 5
 403.954101562 -164.568359375 361.352539062 -192.696289062 294.352539062 -192.696289062 c 4
 214.9375 -192.696289062 161.681640625 -129.529296875 161.681640625 -57 c 4
EndSplineSet
Layer: 2
SplineSet
666.740234375 51 m 0
 706.002929688 51 750.01171875 71.798828125 783.702148438 125.020507812 c 1
 811.702148438 104.020507812 l 1
 772.765625 40.5673828125 719.119140625 15.32421875 669.33203125 15.32421875 c 0
 553.38671875 15.32421875 476.794921875 101 476.794921875 217 c 0
 476.794921875 313.010742188 542.794921875 402 666.740234375 402 c 0
 691.020507812 402 730.794921875 402 754.596679688 402 c 1
 758.794921875 414 761.541992188 435 761.541992188 454 c 0
 761.541992188 511 727.794921875 557 666.35546875 557 c 0
 615.794921875 557 575.794921875 527 575.794921875 464 c 0
 575.794921875 422 594.794921875 396 604.794921875 386 c 1
 582.794921875 366 l 1
 570.794921875 377 542.319335938 409 542.319335938 464 c 0
 542.319335938 544 600.794921875 591 666.35546875 591 c 0
 727.13671875 591 795.541992188 548.098632812 795.541992188 454 c 0
 795.541992188 421 788.794921875 397 779.794921875 368 c 1
 779.794921875 368 709.794921875 368 666.740234375 368 c 0
 586.827148438 368 513.794921875 318 513.794921875 217 c 0
 513.794921875 121 566.794921875 51 666.740234375 51 c 0
848.794921875 -83 m 1
 876.794921875 -104 l 1
 837.858398438 -167.453125 784.211914062 -192.696289062 734.424804688 -192.696289062 c 0
 655.009765625 -192.696289062 600.75390625 -130.756835938 600.75390625 -58.2275390625 c 0
 600.75390625 -25.400390625 611.868164062 9.595703125 636.794921875 42 c 1
 665.794921875 44 l 1
 667.794921875 25 l 1
 645.646484375 -0.83984375 636.060546875 -29.25 636.060546875 -55.7841796875 c 0
 636.060546875 -110.372070312 676.62890625 -157.020507812 731.833007812 -157.020507812 c 0
 771.095703125 -157.020507812 815.104492188 -136.221679688 848.794921875 -83 c 1
230.740234375 318 m 4
 174.740234375 318 129.740234375 273 129.740234375 217 c 4
 129.740234375 161 174.740234375 116 230.740234375 116 c 4
 266.033203125 116 297.309570312 131.385742188 317.40234375 155.436523438 c 5
 403.740234375 93.0419921875 l 5
 363.629882812 36.2998046875 301.194335938 0 230.740234375 0 c 4
 110.404296875 0 13.740234375 96.6640625 13.740234375 217 c 4
 13.740234375 330.947265625 110.423828125 421.3515625 230.740234375 421.3515625 c 5
 249.575195312 421.3515625 261.740234375 420 279.546875 418.436523438 c 5
 280.608398438 424.678710938 281.111328125 430.6484375 281.111328125 436.311523438 c 4
 281.111328125 473.944335938 258.881835938 498 230.35546875 498 c 4
 201 498 185.171875 477 185.171875 453.1640625 c 4
 185.171875 441.108398438 188.756835938 428.124023438 196.740234375 419 c 5
 118.740234375 379 l 5
 99.4306640625 404.20703125 91.6962890625 430.604492188 91.6962890625 458.407226562 c 4
 91.6962890625 534.13671875 143.795898438 596 230.35546875 596 c 4
 307.345703125 596 378.740234375 539.3359375 378.740234375 430 c 4
 378.740234375 398.735351562 371.740234375 357 359.740234375 318 c 5
 359.740234375 318 279.271484375 318 230.740234375 318 c 4
374.740234375 -54.5634765625 m 5
 451.740234375 -106.563476562 l 5
 405.829101562 -175.430664062 351.073242188 -202.407226562 300.794921875 -202.407226562 c 4
 176.4140625 -202.407226562 106.602539062 -78.939453125 169.740234375 21.5380859375 c 5
 259.740234375 44.4365234375 l 5
 269.740234375 4 l 5
 240.436523438 -29.796875 248.736328125 -97 300.794921875 -97 c 4
 325.42578125 -97 352.249023438 -85.0556640625 374.740234375 -54.5634765625 c 5
EndSplineSet
Layer: 3
SplineSet
75.1650390625 206 m 0
 75.1650390625 110.385742188 131.569335938 38.67578125 216.203125 38.67578125 c 0
 259.462890625 38.67578125 307.952148438 59.474609375 345.072265625 112.696289062 c 1
 373.072265625 91.6962890625 l 1
 330.87890625 28.689453125 272.936523438 3 218.794921875 3 c 0
 110.403320312 3 38.1650390625 90 38.1650390625 206 c 0
 38.1650390625 302.010742188 104.165039062 391 228.110351562 391 c 0
 252.390625 391 292.165039062 391 315.966796875 391 c 1
 320.165039062 403 322.912109375 424 322.912109375 443 c 0
 322.912109375 500 293.9296875 546 241.165039062 546 c 0
 196.208007812 546 160.640625 519.225585938 160.640625 463 c 0
 160.640625 421 179.640625 395 189.640625 385 c 1
 167.640625 365 l 1
 155.640625 376 127.165039062 408 127.165039062 463 c 0
 127.165039062 536.701171875 180.909179688 580 241.165039062 580 c 0
 295.623046875 580 356.912109375 537.098632812 356.912109375 443 c 0
 356.912109375 410 350.165039062 386 341.165039062 357 c 1
 341.165039062 357 271.165039062 357 228.110351562 357 c 0
 128.30859375 357 75.1650390625 284.365234375 75.1650390625 206 c 0
410.165039062 -83 m 1
 438.165039062 -104 l 1
 399.228515625 -167.453125 345.58203125 -192.696289062 295.794921875 -192.696289062 c 0
 216.379882812 -192.696289062 162.124023438 -130.756835938 162.124023438 -58.2275390625 c 0
 162.124023438 -25.400390625 169.868164062 1.595703125 194.794921875 34 c 1
 223.794921875 36 l 1
 225.794921875 17 l 1
 203.646484375 -8.83984375 197.430664062 -29.25 197.430664062 -55.7841796875 c 0
 197.430664062 -110.372070312 237.999023438 -157.020507812 293.203125 -157.020507812 c 0
 332.465820312 -157.020507812 376.474609375 -136.221679688 410.165039062 -83 c 1
EndSplineSet
EndChar

StartChar: si_Va
Encoding: 55 3520 8
Width: 501
VWidth: 0
Flags: HW
LayerCount: 4
Fore
SplineSet
22 219 m 0
 22 284.815429688 43.0517578125 335.01171875 79.4033203125 363 c 0
 100.493164062 379.237304688 126.733398438 388 157 388 c 0
 206 388 274 388 274 388 c 1
 293 354 l 1
 157 354 l 2
 94.041015625 354 58 298.873046875 58 219 c 0
 58 154.403320312 88.046875 40 240 40 c 0
 367.865234375 40 441 150.518554688 441 354 c 0
 441 634.014648438 350.22265625 712 239 712 c 0
 168.127929688 712 110.32421875 665.926757812 87 605 c 1
 53 618 l 1
 91 716 178.967773438 749 239 749 c 0
 371.145507812 749 479 662.955078125 479 354 c 0
 479 126.541015625 392.0390625 3 240 3 c 0
 57.990234375 3 22 141.05078125 22 219 c 0
61 420 m 0
 61 488 112.34375 524 171 524 c 0
 235.555664062 524 295.444335938 481.098632812 295.444335938 387 c 0
 295.444335938 375.040039062 294.55859375 364.26171875 293 354 c 1
 261.620117188 379 l 1
 261.52734375 381.637695312 261.444335938 384.229492188 261.444335938 387 c 0
 261.444335938 457.74609375 219.362304688 490 171 490 c 0
 129.04296875 490 94.4755859375 467 94.4755859375 420 c 0
 94.4755859375 395.599609375 104 376 117 364 c 0
 92.818359375 344 l 0
 77 358 61 388.0234375 61 420 c 0
EndSplineSet
Layer: 2
SplineSet
502 354 m 4
 501 118 420 0 240 0 c 4
 62 0 9.8115234375 137 9.8115234375 218.826171875 c 4
 9.8115234375 279.354492188 29.7099609375 335.661132812 60.189453125 362 c 4
 81.208984375 380.1640625 109.286132812 391 145.887695312 391 c 6
 240 391 l 5
 269 363 313.944335938 306 313.944335938 306 c 5
 188.887695312 306 l 6
 132.887695312 306 120.487304688 270.6015625 120.487304688 226.6015625 c 4
 120.487304688 174 147.080078125 115 240 115 c 4
 344.452148438 115 386 195.017578125 386 354 c 4
 386 583 314.6796875 640 231.854492188 640 c 4
 190.750976562 640 150.666015625 618.959960938 133.610351562 576.85546875 c 5
 24.578125 613.029296875 l 5
 60.5625 707.868164062 145.133789062 755 231.854492188 755 c 4
 371.326171875 755 502 675.859375 502 354 c 4
160 356 m 5
 80 318.563476562 l 5
 60 351 49.5361328125 380.620117188 49.5361328125 409.272460938 c 4
 49.5361328125 481.53515625 98.5068359375 531.563476562 172.807617188 531.563476562 c 4
 249.793945312 531.563476562 321.193359375 474.899414062 321.193359375 365.563476562 c 4
 321.193359375 351 318 325 313.944335938 306 c 5
 223.564453125 371.875 l 5
 230.104492188 406 214.104492188 444 172.80859375 444 c 4
 148.008789062 444 139.016601562 426.133789062 139.016601562 404.787109375 c 4
 139.016601562 386.79296875 151.301757812 370.325195312 160 356 c 5
 160 356 l 5
EndSplineSet
Layer: 3
SplineSet
-289.555664062 387 m 0
 -289.555664062 457.74609375 -331.637695312 490 -380 490 c 0
 -421.95703125 490 -456.524414062 467 -456.524414062 420 c 0
 -456.524414062 395.599609375 -447 376 -434 364 c 0
 -458.181640625 344 l 0
 -474 358 -490 388.0234375 -490 420 c 0
 -490 488 -438.65625 524 -380 524 c 0
 -315.443359375 524 -255.555664062 481.098632812 -255.555664062 387 c 0
 -255.555664062 375.040039062 -256.44140625 364.26171875 -258 354 c 1
 -289.379882812 379 l 1
 -289.47265625 381.637695312 -289.555664062 384.229492188 -289.555664062 387 c 0
-503 219 m 0
 -503 154.403320312 -472.623046875 40 -319 40 c 0
 -191.134765625 40 -118 150.518554688 -118 354 c 0
 -118 634.014648438 -208.77734375 712 -320 712 c 0
 -390.872070312 712 -448.67578125 665.926757812 -472 605 c 1
 -506 618 l 1
 -468 716 -380.032226562 749 -320 749 c 0
 -187.854492188 749 -80 662.955078125 -80 354 c 0
 -80 126.541015625 -166.9609375 3 -319 3 c 0
 -501.009765625 3 -537 141.05078125 -537 219 c 0
 -537 323 -484.435546875 388 -402 388 c 0
 -353 388 -277 388 -277 388 c 1
 -258 354 l 1
 -258 354 -351 354 -402 354 c 0
 -466.23046875 354 -503 298.873046875 -503 219 c 0
-289.555664062 387 m 0
 -289.555664062 457.74609375 -331.637695312 490 -380 490 c 0
 -421.95703125 490 -456.524414062 467 -456.524414062 420 c 0
 -456.524414062 395.599609375 -447 376 -434 364 c 0
 -458.181640625 344 l 0
 -474 358 -490 388.0234375 -490 420 c 0
 -490 488 -438.65625 524 -380 524 c 0
 -315.443359375 524 -255.555664062 481.098632812 -255.555664062 387 c 0
 -255.555664062 375.040039062 -256.44140625 364.26171875 -258 354 c 1
 -289.379882812 379 l 1
 -289.47265625 381.637695312 -289.555664062 384.229492188 -289.555664062 387 c 0
157 329 m 2
 113.826171875 329 69.3115234375 301.954101562 69.3115234375 202 c 0
 69.3115234375 145.87109375 92.400390625 40 240 40 c 0
 367.865234375 40 441 150.518554688 441 354 c 0
 441 634.014648438 350.22265625 712 239 712 c 0
 168.127929688 712 110.32421875 665.926757812 87 605 c 1
 53 618 l 1
 91 716 178.967773438 749 239 749 c 0
 371.145507812 749 479 662.955078125 479 354 c 0
 479 126.541015625 392.0390625 3 240 3 c 0
 63 3 35.3115234375 133.05078125 35.3115234375 202 c 0
 35.3115234375 328.833984375 96.8896484375 363 157 363 c 2
 282 363 l 1
 284.837890625 352.543945312 298.26953125 340.360351562 301 329 c 1
 157 329 l 2
264 336 m 1
 279.0234375 448.077148438 228.44140625 491 171 491 c 0
 127.821289062 491 95.4462890625 452.01171875 95.4462890625 410.092773438 c 0
 95.4462890625 390.849609375 102.268554688 370.989257812 118 354 c 1
 94 332 l 1
 71.6953125 354.647460938 61.0478515625 384.361328125 61.0478515625 413.624023438 c 0
 61.0478515625 469.63671875 100.060546875 524 171 524 c 0
 251.294921875 524 322 470 301 329 c 1
 264 336 l 1
EndSplineSet
EndChar

StartChar: si_I
Encoding: 7 3465 12
Width: 507
VWidth: 0
Flags: HW
LayerCount: 4
Fore
SplineSet
96 -137.540039062 m 1
 124 -114 l 1
 151.146484375 -148.369140625 184.619140625 -163.338867188 215.709960938 -163.338867188 c 0
 274.534179688 -163.338867188 309 -121.751953125 309 -70 c 0
 309 -27.8623046875 298.139648438 19.8720703125 214 27.0712890625 c 0
 206.872070312 27.6806640625 199.217773438 28 191 28 c 1
 214 56 l 1
 260 45 l 1
 303 43 346 6 346 -70 c 0
 346 -142.266601562 297.68359375 -200.338867188 215.709960938 -200.338867188 c 0
 175.126953125 -200.338867188 131.434570312 -181.28515625 96 -137.540039062 c 1
22 375 m 0
 22 476.044921875 90.125 591 240 591 c 0
 361.700195312 591 469 515.1953125 469 322 c 0
 469 174.28515625 393.95703125 84.6435546875 293 47.572265625 c 0
 261.073242188 35.8486328125 226.555664062 29.3828125 191 28 c 1
 189.999023438 65.7744140625 l 1
 293 65.7744140625 432 136.21875 432 322 c 0
 432 488.622070312 342.037109375 554 240 554 c 0
 122.62109375 554 56 467.325195312 56 375 c 0
 56 302.069335938 91 248 91 248 c 1
 103 218 l 1
 69 223 l 1
 38 260 22 307 22 375 c 0
77.0986328125 299.95703125 m 0
 77.0986328125 251.448242188 116.188476562 212.306640625 164.749023438 212.306640625 c 0
 213.25390625 212.306640625 252.401367188 251.393554688 252.401367188 299.95703125 c 0
 252.401367188 348.465820312 213.310546875 387.611328125 164.749023438 387.611328125 c 0
 116.240234375 387.611328125 77.0986328125 348.517578125 77.0986328125 299.95703125 c 0
45.8564453125 275.715820312 m 0
 45.8564453125 283.541992188 47 291.634765625 47 300 c 1
 47 367.724609375 93 423.869140625 165 423.869140625 c 0
 191.995117188 423.869140625 216.884765625 414.98046875 237.057617188 400 c 0
 267.49609375 377.397460938 287.198242188 340.927734375 287.198242188 300.198242188 c 0
 287.198242188 232.473632812 232.724609375 178 165 178 c 0
 111.373046875 178 65.130859375 212.155273438 48.203125 260 c 0
 46.3935546875 265.114257812 45.8564453125 270.352539062 45.8564453125 275.715820312 c 0
EndSplineSet
Layer: 2
SplineSet
165.901367188 10.439453125 m 5
 164 106 l 5
 252 106 371 129 371 297.078125 c 4
 371 416 307.379882812 482 230.098632812 482 c 4
 143.098632812 482 102 429.325195312 102 374 c 5
 81.0986328125 285 l 5
 36.0986328125 233 l 5
 -42.9013671875 382 41.0986328125 594 230.098632812 594 c 4
 370.48046875 594 485.999023438 496 485.999023438 297.078125 c 4
 485.999023438 130 381.424804688 44.45703125 302.999023438 34 c 4
 272.999023438 30 271.607421875 15.373046875 245.999023438 11.3408203125 c 4
 233.46875 9.3671875 219.819335938 31 206.999023438 31 c 4
 193.008789062 31 180.999023438 23 165.900390625 10.439453125 c 5
 165.901367188 10.439453125 l 5
21.11328125 298.48828125 m 5
 21.11328125 335.545898438 51.423828125 359.978515625 95 387 c 5
 135 450 235.926757812 444 277.81640625 398 c 4
 301.639648438 371.838867188 316.098632812 336.970703125 316.098632812 298.48828125 c 4
 316.098632812 216.549804688 250.54296875 151 168.6015625 151 c 4
 86.6630859375 151 21.11328125 216.549804688 21.11328125 298.48828125 c 5
 21.11328125 298.48828125 l 5
123.140625 294.859375 m 4
 123.140625 270.4921875 142.633789062 251 167 251 c 4
 191.3671875 251 210.861328125 270.4921875 210.861328125 294.859375 c 4
 210.861328125 319.2265625 191.3671875 338.720703125 167 338.720703125 c 4
 142.633789062 338.720703125 123.140625 319.2265625 123.140625 294.859375 c 4
141.0546875 -57.5634765625 m 5
 197 -133 262.833984375 -94 262.833984375 -46.205078125 c 4
 262.833984375 -19 249.901367188 22.439453125 165.901367188 10.439453125 c 5
 179 69 l 5
 289 54 l 6
 340 47.986328125 369.674804688 0 369.674804688 -50.5830078125 c 4
 369.674804688 -210 166 -269.397460938 64.0546875 -109.563476562 c 5
 141.0546875 -57.5634765625 l 5
EndSplineSet
Layer: 3
SplineSet
215.709960938 -200.338867188 m 4
 175.126953125 -200.338867188 131.434570312 -181.28515625 96 -137.540039062 c 5
 124 -114 l 5
 151.146484375 -148.369140625 184.619140625 -163.338867188 215.709960938 -163.338867188 c 4
 270.841796875 -163.338867188 303.14453125 -121.751953125 303.14453125 -70 c 4
 303.14453125 -24.29296875 275.555664062 25.775390625 191 28 c 5
 214 56 l 5
 260 43 l 5
 296 32 340.14453125 0 340.14453125 -70 c 4
 340.14453125 -142.266601562 294.171875 -200.338867188 215.709960938 -200.338867188 c 4
240 591 m 4
 361.700195312 591 469 515.1953125 469 322 c 4
 469 127.572265625 338.991210938 33.755859375 191 28 c 5
 189.999023438 65.7744140625 l 5
 293 65.7744140625 432 136.21875 432 322 c 4
 432 488.622070312 342.037109375 554 240 554 c 4
 122.62109375 554 56 467.325195312 56 375 c 4
 56 302.069335938 91 248 91 248 c 5
 69 223 l 5
 38 260 22 307 22 375 c 4
 22 476.044921875 90.125 591 240 591 c 4
47 300 m 4
 47 367.724609375 93 423.869140625 165 423.869140625 c 4
 191.995117188 423.869140625 216.884765625 414.98046875 237.057617188 400 c 4
 267.49609375 377.397460938 287.198242188 340.927734375 287.198242188 300.198242188 c 4
 287.198242188 232.473632812 232.724609375 178 165 178 c 4
 111.373046875 178 65.130859375 212.155273438 48.203125 260 c 4
 46.3935546875 265.114257812 45.8564453125 270.352539062 45.8564453125 275.715820312 c 4
 45.8564453125 283.541992188 47 291.634765625 47 300 c 4
77.0986328125 299.95703125 m 4
 77.0986328125 251.448242188 116.188476562 212.306640625 164.749023438 212.306640625 c 4
 213.25390625 212.306640625 252.401367188 251.393554688 252.401367188 299.95703125 c 4
 252.401367188 348.465820312 213.310546875 387.611328125 164.749023438 387.611328125 c 4
 116.240234375 387.611328125 77.0986328125 348.517578125 77.0986328125 299.95703125 c 4
EndSplineSet
EndChar

StartChar: si_Ii
Encoding: 8 3466 13
Width: 456
VWidth: 0
Flags: HW
LayerCount: 4
Fore
SplineSet
-1 745 m 0
 -1 761 12 774 28 774 c 0
 44 774 57 761 57 745 c 0
 57 729 44 716 28 716 c 0
 12 716 -1 729 -1 745 c 0
223 680 m 0
 223 696 236 709 252 709 c 0
 268 709 281 696 281 680 c 0
 281 664 268 651 252 651 c 0
 236 651 223 664 223 680 c 0
EndSplineSet
Refer: 46 3515 N 1 0 0 1 -172 -4 2
EndChar

StartChar: si_vocalicR
Encoding: 11 3469 15
Width: 838
VWidth: 0
Flags: HW
LayerCount: 4
Fore
SplineSet
257.977539062 454 m 0
 257.977539062 466.185546875 258.982421875 477.512695312 260.872070312 488 c 0
 273.568359375 558.491210938 326.2265625 591 382.422851562 591 c 0
 439.12890625 591 498.731445312 553 498.731445312 474 c 0
 498.731445312 429.732421875 478.4140625 385.565429688 446.8671875 361 c 1
 420.8671875 382 l 1
 447.8671875 402 465.255859375 437.958984375 465.255859375 474 c 0
 465.255859375 530.04296875 422.807617188 557 382.422851562 557 c 0
 334.060546875 557 291.978515625 524.74609375 291.978515625 454 c 0
 291.978515625 435 291.978515625 416 291.978515625 402 c 1
 274.978515625 369 l 1
 265.26171875 397.663085938 257.977539062 421.383789062 257.977539062 454 c 0
59 194.102539062 m 0
 59 107.481445312 90.9541015625 40 156.978515625 40 c 0
 248.14453125 40 254.736328125 148.885742188 257.978515625 224.5 c 1
 291.978515625 224.5 l 1
 295.220703125 148.885742188 301.8125 40 392.978515625 40 c 0
 459.002929688 40 490.95703125 107.481445312 490.95703125 194.102539062 c 0
 490.95703125 252 480.14453125 369 395.978515625 369 c 2
 153.978515625 369 l 2
 70.1298828125 369 59 252 59 194.102539062 c 0
22 194.102539062 m 0
 22 255.3515625 34.7001953125 336.482421875 80.1103515625 378 c 0
 98.384765625 394.708007812 122.14453125 405 152.12890625 405 c 2
 397.828125 405 l 2
 428.14453125 405 451.572265625 394.708007812 469.846679688 378 c 0
 515.256835938 336.482421875 527.95703125 255.3515625 527.95703125 194.102539062 c 0
 527.95703125 86.68359375 483.935546875 3 392.978515625 3 c 0
 297.8125 3 278.8125 85 274.978515625 115 c 1
 271.14453125 85 252.14453125 3 156.978515625 3 c 0
 66.021484375 3 22 86.68359375 22 194.102539062 c 0
51.224609375 474 m 0
 51.224609375 553 110.827148438 591 167.533203125 591 c 0
 223.729492188 591 276.391601562 558.491210938 289.084960938 488 c 0
 290.973632812 477.513671875 291.977539062 466.185546875 291.977539062 454 c 0
 291.977539062 421.383789062 284.693359375 397.663085938 274.977539062 369 c 1
 257.977539062 402 l 1
 257.977539062 416 257.977539062 435 257.977539062 454 c 0
 257.977539062 524.74609375 215.895507812 557 167.533203125 557 c 0
 127.1484375 557 84.7001953125 530.04296875 84.7001953125 474 c 0
 84.7001953125 437.958984375 102.088867188 402 129.088867188 382 c 1
 103.088867188 361 l 1
 71.5419921875 385.565429688 51.224609375 429.732421875 51.224609375 474 c 0
EndSplineSet
Refer: 56 3544 N 1 0 0 1 505.145 0 2
EndChar

StartChar: si_vocalicL
Encoding: 13 3471 17
Width: 730
VWidth: 0
Flags: HW
LayerCount: 4
Fore
SplineSet
647.359375 95.1298828125 m 0
 647.359375 64.166015625 672.099609375 38.5673828125 703.359375 38.5673828125 c 0
 734.640625 38.5673828125 759.359375 64.171875 759.359375 95.1298828125 c 0
 759.359375 126.092773438 734.620117188 151.692382812 703.359375 151.692382812 c 0
 672.077148438 151.692382812 647.359375 126.086914062 647.359375 95.1298828125 c 0
611.836914062 94.9384765625 m 0
 611.836914062 145.556640625 653.157226562 185.844726562 703.775390625 185.844726562 c 0
 754.393554688 185.844726562 794.681640625 145.556640625 794.681640625 94.9384765625 c 0
 794.681640625 44.3203125 754.393554688 3 703.775390625 3 c 0
 653.157226562 3 611.836914062 44.3203125 611.836914062 94.9384765625 c 0
779.887695312 284.5625 m 0
 779.887695312 447.6484375 748.854492188 542.5625 699.887695312 542.5625 c 0
 668.786132812 542.5625 644.538085938 522.220703125 643.196289062 474.563476562 c 1
 609.720703125 474.563476562 l 1
 609.720703125 534.5625 638.881835938 579.5625 699.887695312 579.5625 c 0
 756.629882812 579.5625 816.887695312 517.551757812 816.887695312 284.5625 c 0
 816.887695312 86.2939453125 793.359375 3 703.775390625 3 c 1
 703.359375 38.5673828125 l 1
 742.255859375 38.5673828125 767.359375 60 768.359375 123 c 1
 775.705078125 163.74609375 779.887695312 215.384765625 779.887695312 284.5625 c 0
402.443359375 454 m 0
 402.443359375 466.185546875 403.448242188 477.512695312 405.337890625 488 c 0
 418.034179688 558.491210938 470.692382812 591 526.888671875 591 c 0
 583.594726562 591 643.197265625 553 643.197265625 474 c 0
 643.197265625 429.732421875 622.879882812 385.565429688 591.333007812 361 c 1
 565.333007812 382 l 1
 592.333007812 402 609.721679688 437.958984375 609.721679688 474 c 0
 609.721679688 530.04296875 567.2734375 557 526.888671875 557 c 0
 478.526367188 557 436.444335938 524.74609375 436.444335938 454 c 0
 436.444335938 435 436.444335938 416 436.444335938 402 c 1
 419.444335938 369 l 1
 409.727539062 397.663085938 402.443359375 421.383789062 402.443359375 454 c 0
200.611328125 224.436523438 m 0
 200.611328125 107.2421875 286.635742188 30 419.4453125 30 c 0
 552.254882812 30 638.279296875 107.2421875 638.279296875 224.436523438 c 0
 638.279296875 299.84375 599.802734375 365 515.611328125 365 c 2
 323.279296875 365 l 2
 239.087890625 365 200.611328125 299.84375 200.611328125 224.436523438 c 0
163.611328125 224.436523438 m 0
 163.611328125 319.693359375 217 402 323.279296875 402 c 2
 515.611328125 402 l 2
 622 402 675.279296875 319.693359375 675.279296875 224.436523438 c 0
 675.279296875 189.749023438 669.075195312 158.001953125 657.362304688 129.877929688 c 1
 653.415039062 125.640625 650.333984375 121.161132812 648.40234375 116 c 0
 647.397460938 113.315429688 646.704101562 110.447265625 646.362304688 107.33203125 c 1
 605.98046875 35.8125 525.559570312 -7 419.4453125 -7 c 0
 313.331054688 -7 232.91015625 35.8125 192.528320312 107.33203125 c 1
 192.186177103 110.447071426 191.492847967 113.315755588 190.488384864 116 c 0
 188.557050687 121.161138279 185.475461057 125.640406844 181.528320312 129.877929688 c 1
 169.815429688 158.001953125 163.611328125 189.749023438 163.611328125 224.436523438 c 0
195.690429688 474 m 0
 195.690429688 553 255.29296875 591 311.999023438 591 c 0
 368.1953125 591 420.857421875 558.491210938 433.55078125 488 c 0
 435.439453125 477.513671875 436.443359375 466.185546875 436.443359375 454 c 0
 436.443359375 421.383789062 429.159179688 397.663085938 419.443359375 369 c 1
 402.443359375 402 l 1
 402.443359375 416 402.443359375 435 402.443359375 454 c 0
 402.443359375 524.74609375 360.361328125 557 311.999023438 557 c 0
 271.614257812 557 229.166015625 530.04296875 229.166015625 474 c 0
 229.166015625 437.958984375 246.5546875 402 273.5546875 382 c 1
 247.5546875 361 l 1
 216.0078125 385.565429688 195.690429688 429.732421875 195.690429688 474 c 0
22 284.5625 m 0
 22 517.551757812 82.2578125 579.5625 139 579.5625 c 0
 200.005859375 579.5625 229.166992188 534.5625 229.166992188 474.563476562 c 1
 195.69140625 474.563476562 l 1
 194.349609375 522.220703125 170.1015625 542.5625 139 542.5625 c 0
 90.033203125 542.5625 59 447.6484375 59 284.5625 c 0
 59 215.384765625 63.1826171875 163.74609375 70.5283203125 123 c 1
 71.5283203125 60 96.6318359375 38.5673828125 135.528320312 38.5673828125 c 1
 135.112304688 3 l 1
 45.5283203125 3 22 86.2939453125 22 284.5625 c 0
79.5283203125 95.1298828125 m 0
 79.5283203125 64.171875 104.247070312 38.5673828125 135.528320312 38.5673828125 c 0
 166.788085938 38.5673828125 191.528320312 64.166015625 191.528320312 95.1298828125 c 0
 191.528320312 126.086914062 166.810546875 151.692382812 135.528320312 151.692382812 c 0
 104.267578125 151.692382812 79.5283203125 126.092773438 79.5283203125 95.1298828125 c 0
44.2060546875 94.9384765625 m 0
 44.2060546875 145.556640625 84.494140625 185.844726562 135.112304688 185.844726562 c 0
 185.73046875 185.844726562 227.05078125 145.556640625 227.05078125 94.9384765625 c 0
 227.05078125 44.3203125 185.73046875 3 135.112304688 3 c 0
 84.494140625 3 44.2060546875 44.3203125 44.2060546875 94.9384765625 c 0
EndSplineSet
Layer: 2
SplineSet
360.046875 392 m 1
 369.802734375 417 l 2
 372.056640625 422.776367188 371.3671875 429.211914062 371.3671875 434.875 c 0
 371.3671875 472.5078125 349.137695312 496.563476562 320.611328125 496.563476562 c 0
 291.255859375 496.563476562 275.427734375 475.563476562 275.427734375 451.727539062 c 0
 275.427734375 439.671875 282.063476562 420.124023438 290.046875 411 c 1
 212.046875 371 l 1
 192.737304688 396.20703125 181.952148438 429.16796875 181.952148438 456.970703125 c 0
 181.952148438 532.700195312 234.051757812 594.563476562 320.611328125 594.563476562 c 0
 387.733398438 594.563476562 450.602539062 551.494140625 465.616210938 468.000976562 c 1
 450.529296875 448.000976562 455.529296875 423.000976562 467.633789062 403.000976562 c 1
 465.063476562 377.439453125 458.943359375 348.913085938 450.046875 320.000976562 c 1
 360.046875 392 l 1
477.572265625 392 m 1
 387.572265625 320 l 1
 379.022460938 347.786132812 373.037109375 375.215820312 370.301757812 400 c 1
 394.529296875 420 406.529296875 456 374.803710938 481 c 1
 393.727539062 555.9609375 453.4609375 594.563476562 517.0078125 594.563476562 c 0
 603.567382812 594.563476562 655.666015625 532.69921875 655.666015625 456.969726562 c 0
 655.666015625 429.166992188 644.880859375 396.206054688 625.571289062 370.999023438 c 1
 547.571289062 410.999023438 l 1
 555.5546875 420.123046875 562.190429688 439.670898438 562.190429688 451.7265625 c 0
 562.190429688 475.5625 546.362304688 496.5625 517.006835938 496.5625 c 0
 488.48046875 496.5625 466.250976562 472.506835938 466.250976562 434.874023438 c 0
 466.250976562 429.2109375 465.560546875 422.775390625 467.815429688 416.999023438 c 2
 477.572265625 392 l 1
758.572265625 280 m 0
 758.573242188 421.659179688 713.77734375 479.84375 670.200195312 479.84375 c 0
 628.572265625 479.84375 613.749023438 442.4296875 608.572265625 425.84375 c 1
 554.572265625 486.84375 l 1
 563.05078125 527.423828125 600.880859375 583.84375 670.200195312 583.84375 c 0
 774.298828125 583.84375 859.478515625 506.41796875 859.478515625 283.84375 c 0
 859.478515625 46.1201171875 768.571289062 0 701.08984375 0 c 1
 696.478515625 79 l 1
 746.571289062 79 758.571289062 117.15625 758.572265625 280 c 0
739.615234375 129.615234375 m 0
 739.615234375 151.865234375 721.982421875 169.790039062 700.09375 169.790039062 c 0
 678.205078125 169.790039062 660.572265625 151.865234375 660.572265625 129.615234375 c 0
 660.572265625 107.364257812 678.205078125 89.4404296875 700.09375 89.4404296875 c 0
 721.982421875 89.4404296875 739.615234375 107.364257812 739.615234375 129.615234375 c 0
807.572265625 130 m 0
 807.572265625 58 760.065429688 0 701.090820312 0 c 0
 629.090820312 0 571.090820312 58 571.090820312 130 c 0
 571.090820312 202 629.090820312 260 692.572265625 260 c 0
 776.572265625 260 807.572265625 176 807.572265625 130 c 0
79.046875 280 m 1
 79.046875 117.15625 91.046875 79 141.139648438 79 c 1
 136.528320312 0 l 1
 69.046875 0 -21.8603515625 46.1201171875 -21.8603515625 283.84375 c 0
 -21.8603515625 506.41796875 63.3203125 583.84375 167.41796875 583.84375 c 0
 236.73828125 583.84375 274.567382812 527.424804688 283.045898438 486.84375 c 1
 229.045898438 425.84375 l 1
 223.869140625 442.4296875 209.045898438 479.84375 167.41796875 479.84375 c 0
 123.840820312 479.84375 79.0458984375 421.659179688 79.0458984375 280 c 1
 79.046875 280 l 1
98.00390625 129.615234375 m 0
 98.00390625 107.364257812 115.63671875 89.4404296875 137.525390625 89.4404296875 c 0
 159.4140625 89.4404296875 177.046875 107.364257812 177.046875 129.615234375 c 0
 177.046875 151.865234375 159.4140625 169.790039062 137.525390625 169.790039062 c 0
 115.63671875 169.790039062 98.00390625 151.865234375 98.00390625 129.615234375 c 0
30.046875 130 m 0
 30.046875 176 61.046875 260 145.046875 260 c 0
 208.528320312 260 266.528320312 202 266.528320312 130 c 0
 266.528320312 58 208.528320312 0 136.528320312 0 c 0
 77.5537109375 0 30.046875 58 30.046875 130 c 0
500.08984375 417 m 1
 622.47265625 417 683.529296875 330.65234375 683.529296875 225 c 0
 683.529296875 208.430664062 682.063476562 192.732421875 679.288085938 177.905273438 c 1
 663.046875 170 635.046875 150 657.334960938 114.922851562 c 1
 567.1171875 -53.455078125 269.899414062 -53.3046875 180.046875 115.368164062 c 1
 203.046875 150 177.046875 166 161.046875 165.331054688 c 1
 156.518554688 183.776367188 154.08984375 203.666015625 154.08984375 225 c 0
 154.08984375 330.65234375 215.146484375 417 337.528320312 417 c 2
 368.290039062 417 l 1
 469.327148438 417 l 1
 500.088867188 417 l 1
 500.08984375 417 l 1
494.08984375 319 m 1
 343.529296875 319 l 2
 288.529296875 319 261.08984375 276.725585938 261.08984375 225 c 0
 261.08984375 64.9228515625 576.528320312 65.5234375 576.528320312 225 c 0
 576.528320312 276.725585938 494.088867188 319 494.088867188 319 c 2
 494.08984375 319 l 1
EndSplineSet
EndChar

StartChar: si_E
Encoding: 15 3473 19
Width: 566
VWidth: 0
Flags: HW
LayerCount: 4
Fore
SplineSet
271.826171875 603 m 0
 271.826171875 667.297851562 314.309570312 706.649414062 314.309570312 740.684570312 c 0
 314.309570312 754.21875 307.591796875 766.912109375 288.814453125 780 c 1
 288.814453125 780 352.423828125 761 352.423828125 761 c 1
 350.079101562 749.58984375 346.5234375 726.290039062 346.5234375 726.290039062 c 1
 346.5234375 693.052734375 307.814453125 661.163085938 307.814453125 603 c 0
 307.814453125 561.561523438 349.560546875 524.958984375 412.783203125 524.958984375 c 0
 421.240234375 524.958984375 430.081054688 525.614257812 439.2578125 527 c 1
 462.423828125 522 l 1
 447.2578125 494 l 1
 435.009765625 492.012695312 423.2109375 491.073242188 411.923828125 491.073242188 c 0
 327.54296875 491.073242188 271.826171875 543.567382812 271.826171875 603 c 0
36.2431640625 207 m 0
 36.2431640625 309.341796875 86.2431640625 349 95.2431640625 354 c 1
 22 354 l 1
 22 389 l 1
 294.51953125 389 l 1
 302.243164062 354 l 1
 172.243164062 354 l 2
 121.243164062 354 72.2431640625 296.708984375 72.2431640625 208 c 0
 72.2431640625 142.71484375 104.393554688 40 241.243164062 40 c 0
 379.424804688 40 454.409179688 150.385742188 454.409179688 342 c 0
 454.409179688 410.758789062 450.174804688 471.186523438 439.283203125 524 c 1
 418.10546875 608.981445312 385.073242188 674.717773438 345.244140625 724 c 1
 327.619140625 745.807617188 308.663085938 764.393554688 288.814453125 780 c 1
 311.814453125 807 l 1
 430.823242188 715.40234375 491.409179688 562.866210938 491.409179688 342 c 0
 491.409179688 126.91015625 403.409179688 3 241.243164062 3 c 0
 75.2431640625 3 36.2431640625 127.725585938 36.2431640625 207 c 0
70.2431640625 420 m 0
 70.2431640625 488 121.586914062 524 180.243164062 524 c 0
 244.799804688 524 304.6875 481.098632812 304.6875 387 c 0
 304.6875 375.040039062 303.801757812 364.26171875 302.243164062 354 c 1
 270.86328125 379 l 1
 270.770507812 381.637695312 270.6875 384.229492188 270.6875 387 c 0
 270.6875 457.74609375 228.60546875 490 180.243164062 490 c 0
 138.286132812 490 103.71875 467 103.71875 420 c 0
 103.71875 406.329101562 106.708007812 394.165039062 111.624023438 384 c 0
 82.75390625 370 l 0
 75.400390625 384.3203125 70.2431640625 401.845703125 70.2431640625 420 c 0
EndSplineSet
Layer: 2
SplineSet
241.243164062 115 m 0
 345.6953125 115 400.243164062 181.017578125 400.243164062 340 c 0
 400.243164062 521.698242188 353.243164062 668 242.243164062 735 c 1
 314.243164062 819 l 1
 452.243164062 728 515.243164062 555.741210938 515.243164062 340 c 0
 515.243164062 104 421.243164062 0 241.243164062 0 c 0
 63.2431640625 0 13.7900390625 133.561523438 23.8349609375 223 c 0
 27.451171875 255.19921875 38.2431640625 286 53.2431640625 306 c 1
 16.4814453125 306 l 1
 16.4814453125 393 l 1
 281.34765625 390 l 1
 315.1875 306 l 1
 208.243164062 306 l 2
 151.458007812 306 131.224609375 261.911132812 131.224609375 214.068359375 c 0
 131.224609375 166.573242188 160.55859375 115 241.243164062 115 c 0
161.243164062 356 m 1
 81.2431640625 318.563476562 l 1
 61.2431640625 351 50.779296875 380.620117188 50.779296875 409.272460938 c 0
 50.779296875 481.53515625 99.75 531.563476562 174.051757812 531.563476562 c 0
 251.038085938 531.563476562 322.436523438 474.899414062 322.436523438 365.563476562 c 0
 322.436523438 351 319.243164062 325 315.1875 306 c 1
 315.1875 306 223.7421875 366.313476562 224.807617188 371.875 c 0
 231.34765625 406 215.34765625 444 174.051757812 444 c 0
 149.251953125 444 140.259765625 426.133789062 140.259765625 404.787109375 c 0
 140.259765625 386.79296875 152.544921875 370.325195312 161.243164062 356 c 1
377.243164062 559 m 1
 387.243164062 578 393.891601562 611.987304688 381.243164062 626 c 0
 375.045898438 632.865234375 340.243164062 658 329.243164062 654 c 1
 287.243164062 636 293.243164062 565 377.243164062 559 c 1
242.243164062 735 m 1
 308.243164062 783 l 1
 351.243164062 766 l 1
 401.149414062 738.635742188 471.612304688 493.768554688 393.243164062 463 c 1
 315.623046875 465.250976562 217.359375 527 217.359375 613.133789062 c 0
 217.359375 688.51171875 290.151367188 699.581054688 242.243164062 735 c 1
EndSplineSet
EndChar

StartChar: si_Os
Encoding: 18 3476 22
Width: 570
VWidth: 0
Flags: HW
LayerCount: 4
Fore
SplineSet
22 250.999023438 m 4
 22 390.37109375 53.0126953125 523.999023438 140.638671875 523.999023438 c 4
 206 523.999023438 230 474 230 426 c 5
 195 419 l 5
 195 470.220703125 170.700195312 489 141 489 c 4
 81 489 59 368 59 250.999023438 c 4
 59 167.890625 62.716796875 40 144.596679688 40 c 4
 235.762695312 40 242.354492188 148.885742188 245.596679688 224.5 c 5
 279.596679688 224.5 l 5
 282.838867188 148.885742188 289.430664062 40 380.596679688 40 c 4
 473.330078125 40 480.153320312 164 480.153320312 293 c 4
 480.153320312 576.88671875 405.702148438 712 252.596679688 712 c 4
 181.724609375 712 113.248046875 665.926757812 89.923828125 605 c 5
 55.923828125 618 l 5
 84.123046875 692.592773438 166.911132812 749 252.596679688 749 c 4
 430.596679688 749 517.153320312 601.955078125 517.153320312 293 c 4
 517.153320312 145.134765625 507.793945312 3 380.596679688 3 c 4
 285.430664062 3 266.430664062 85 262.596679688 115 c 5
 258.762695312 85 239.762695312 3 144.596679688 3 c 4
 30 3 22 153.317382812 22 250.999023438 c 4
192 370 m 4
 192 385.758789062 195 397 195 419 c 5
 230 426 l 5
 230 415.9765625 228 386.337890625 228 370 c 4
 228 346 234.225585938 317 271 317 c 4
 314.1953125 317 315 381.9609375 315 402 c 4
 315 422.0390625 314.1953125 487 271 487 c 4
 247.225585938 487 231 470 227 441 c 5
 196 444 l 5
 201 486 223 523 271 523 c 4
 349.537109375 523 351 430.526367188 351 402 c 4
 351 373.473632812 349.537109375 281 271 281 c 4
 214.008789062 281 192 322.965820312 192 370 c 4
EndSplineSet
Layer: 2
SplineSet
159.80859375 114.651367188 m 5
 201.984375 114.651367188 216.990234375 179.676757812 216.990234375 249.499023438 c 5
 312.901367188 249.499023438 l 5
 312.901367188 176.749023438 328.369140625 114.999023438 371.359375 114.999023438 c 4
 428.115234375 114.999023438 428.115234375 239.95703125 428.115234375 292.999023438 c 4
 428.115234375 522.795898438 385.115234375 639.883789062 247.115234375 639.883789062 c 4
 206.01171875 639.883789062 158.352539062 618.958984375 141.296875 576.854492188 c 5
 32.2646484375 613.028320312 l 5
 68.2490234375 707.8671875 160.39453125 755 247.116210938 755 c 4
 464.116210938 755 543.116210938 599.055664062 543.116210938 293 c 4
 543.116210938 181.995117188 542.116210938 0 371.360351562 0 c 4
 315.440429688 0 277.41796875 33.1435546875 262.596679688 79.0302734375 c 5
 246.451171875 31.6025390625 207.0390625 0 154.360351562 0 c 4
 41.3603515625 0 7.3603515625 115 7.3603515625 253 c 4
 7.3603515625 389 40.3603515625 527 155.647460938 527 c 4
 219.647460938 527 259.360351562 481 260.360351562 438 c 5
 178.360351562 413 l 5
 178.360351562 423.389648438 168.360351562 429 161.360351562 429 c 4
 125.647460938 429 114.033203125 348 114.033203125 265.911132812 c 4
 114.033203125 202.999023438 119.293945312 114.651367188 159.809570312 114.651367188 c 5
 159.80859375 114.651367188 l 5
256.359375 437.999023438 m 1
 215.359375 497.999023438 l 1
 227.359375 512.999023438 245.584960938 525.999023438 278.584960938 525.999023438 c 0
 338.584960938 525.999023438 369.359375 479.904296875 369.359375 403.999023438 c 0
 369.359375 326.904296875 353.359375 274.999023438 272.359375 274.999023438 c 0
 199.833007812 274.999023438 175.418945312 316.837890625 175.418945312 374.955078125 c 0
 175.418945312 387.01171875 178.359375 402.999023438 178.359375 412.999023438 c 1
 260.359375 437.999023438 l 1
 255.359375 383.999023438 259.359375 363.999023438 277.359375 363.999023438 c 0
 288.182617188 363.999023438 294.359375 373.999023438 294.359375 404.01953125 c 0
 294.359375 425.853515625 291.750976562 446.86328125 275.359375 446.86328125 c 0
 268.359375 446.86328125 261.359375 444.999023438 256.359375 437.999023438 c 1
EndSplineSet
EndChar

StartChar: si_Oo
Encoding: 19 3477 23
Width: 570
VWidth: 0
Flags: HW
LayerCount: 4
Fore
SplineSet
517.153320312 293 m 0
 517.153320312 145.134765625 507.793945312 3 380.596679688 3 c 0
 285.430664062 3 266.430664062 85 262.596679688 115 c 1
 258.762695312 85 239.762695312 3 144.596679688 3 c 0
 30 3 22 153.317382812 22 250.999023438 c 0
 22 390.37109375 53.0126953125 523.999023438 140.638671875 523.999023438 c 0
 206 523.999023438 230 474 230 426 c 1
 195 419 l 1
 195 470.220703125 170.700195312 489 141 489 c 0
 81 489 59 368 59 250.999023438 c 0
 59 167.890625 62.716796875 40 144.596679688 40 c 0
 235.762695312 40 242.354492188 148.885742188 245.596679688 224.5 c 1
 279.596679688 224.5 l 1
 282.838867188 148.885742188 289.430664062 40 380.596679688 40 c 0
 473.330078125 40 480.153320312 164 480.153320312 293 c 0
 480.153320312 582 352.693359375 651 233.853515625 651 c 0
 163.9140625 651 122.3671875 621.4765625 83.853515625 591 c 1
 59.853515625 620 l 1
 108.412109375 663.098632812 177.694335938 688 233.853515625 688 c 0
 370.545898438 688 517.153320312 611.869140625 517.153320312 293 c 0
451.762695312 712 m 0
 451.762695312 779.357421875 366.030273438 827 260.853515625 827 c 0
 129.471679688 827 93.853515625 779.817382812 93.853515625 746 c 0
 93.853515625 712.767578125 121.037109375 683.518554688 146.853515625 668 c 1
 147.853515625 637 l 1
 119.853515625 646 l 1
 89.1669921875 665.895507812 56.853515625 703.39453125 56.853515625 746 c 0
 56.853515625 795.265625 100.36328125 864 260.853515625 864 c 0
 386.415039062 864 488.762695312 801.028320312 488.762695312 712 c 0
 488.762695312 659 454.515625 621 405.762695312 602 c 1
 375.762695312 611 l 1
 397.762695312 636 l 1
 429.481445312 649.126953125 451.762695312 675.381835938 451.762695312 712 c 0
192 370 m 0
 192 385.758789062 195 397 195 419 c 1
 230 426 l 1
 230 415.9765625 228 386.337890625 228 370 c 0
 228 346 234.225585938 317 271 317 c 0
 314.1953125 317 315 381.9609375 315 402 c 0
 315 422.0390625 314.1953125 487 271 487 c 0
 247.225585938 487 231 470 227 441 c 1
 196 444 l 1
 201 486 223 523 271 523 c 0
 349.537109375 523 351 430.526367188 351 402 c 0
 351 373.473632812 349.537109375 281 271 281 c 0
 214.008789062 281 192 322.965820312 192 370 c 0
EndSplineSet
Layer: 2
SplineSet
542.599609375 293 m 2
 542.115234375 181.99609375 531.115234375 0 373.359375 0 c 0
 317.439453125 0 277.416992188 33.14453125 262.596679688 79.0302734375 c 1
 246.451171875 31.6025390625 203.279296875 0 150.599609375 0 c 0
 38.599609375 0 7.599609375 115 7.599609375 253 c 0
 7.599609375 389 51.88671875 527 155.88671875 527 c 0
 219.88671875 527 259.599609375 481 260.599609375 438 c 1
 172.305664062 412.546875 l 1
 171.9609375 422.934570312 168.794921875 429 157.88671875 429 c 0
 125.88671875 429 114.272460938 348 114.272460938 265.912109375 c 0
 114.272460938 202 118.599609375 115 158.115234375 115 c 0
 204.815429688 115 216.990234375 176.75 216.990234375 249.5 c 1
 312.901367188 249.5 l 1
 312.901367188 176.75 326.244140625 115 369.234375 115 c 0
 421.446289062 115 427.599609375 239.959960938 427.599609375 293 c 0
 427.599609375 527 335.920898438 581 215.409179688 581 c 0
 177.8671875 581 125.653320312 564.03125 96.4091796875 538 c 1
 33.4091796875 620 l 1
 101.409179688 684 180.409179688 690.975585938 231.409179688 690.975585938 c 0
 420.698242188 690.975585938 542.599609375 587 542.599609375 293 c 2
 542.599609375 293 l 2
372.84375 565 m 1
 372.844726562 565.000976562 l 1
 423.497070312 565.000976562 512.716796875 607.000976562 512.716796875 701.000976562 c 0
 512.716796875 790.409179688 423.10546875 871.000976562 259.170898438 871.000976562 c 0
 105.620117188 871.000976562 44.40625 811.694335938 44.40625 743.688476562 c 0
 44.40625 713.359375 58.4091796875 680 85.4091796875 656 c 1
 168.409179688 649 l 1
 172.409179688 682 l 1
 160.409179688 697 151.4296875 705.181640625 151.4296875 724.96484375 c 0
 151.4296875 747.772460938 175.224609375 771 259.170898438 771 c 0
 361.734375 771 397.715820312 733.87890625 397.715820312 701 c 0
 397.715820312 676.732421875 385.84375 655 359.715820312 648 c 1
 339.84375 607 l 1
 372.84375 565 l 1
251.599609375 440 m 1
 215.599609375 498 l 1
 227.599609375 513 241.599609375 526 274.599609375 526 c 0
 334.599609375 526 364.599609375 469.645507812 364.599609375 412.094726562 c 0
 364.599609375 347.137695312 353.599609375 275 267.599609375 275 c 0
 180.026367188 275 166.599609375 346 172.305664062 412.546875 c 1
 260.599609375 438 l 1
 257.599609375 399 255.599609375 364 273.599609375 364 c 0
 284.422851562 364 290.741210938 382.995117188 290.741210938 404.020507812 c 0
 290.741210938 425.854492188 287.765625 446.864257812 271.374023438 446.864257812 c 0
 266.21875 446.864257812 257.599609375 446 251.599609375 440 c 1
EndSplineSet
EndChar

StartChar: si_Ka
Encoding: 21 3482 25
Width: 757
VWidth: 0
Flags: HW
LayerCount: 4
Fore
SplineSet
22 184 m 1
 240 458 l 2
 295.471679688 527.721679688 361.541992188 582 439 582 c 0
 548.393554688 582 644 496.280273438 644 263 c 0
 644 90.4228515625 595.35546875 3 493 3 c 0
 423.809570312 3 388.421875 40.7275390625 379 86 c 1
 413 95 l 1
 419.611328125 65 444.4453125 40 493 40 c 0
 556.107421875 40 607 98.990234375 607 263 c 0
 607 469.22265625 528.649414062 545 439 545 c 0
 370.790039062 545 315.78515625 494.647460938 267 433 c 2
 73.90625 189 l 1
 47 155 l 1
 22 184 l 1
63 105 m 0
 63 110.7109375 63.8017578125 120.668945312 63.8017578125 130.404296875 c 0
 63.8017578125 144.301757812 62.16796875 157.747070312 54.2373046875 157.747070312 c 0
 52.24609375 157.747070312 49.8583984375 156.900390625 47 155 c 1
 54 184 l 1
 71 190 l 17
 72.640625 190.4609375 74.109375 190.739257812 76.0009765625 190.739257812 c 0
 94.916015625 190.739257812 97.2509765625 155.333007812 97.2509765625 127.893554688 c 0
 97.2509765625 118.895507812 97 110.754882812 97 105 c 0
 97 68.7001953125 107.004882812 40 147 40 c 0
 198.7578125 40 212.23046875 100.280273438 212.87890625 159 c 2
 213 170 l 1
 249 170 l 1
 249.12109375 159 l 2
 249.76953125 100.280273438 263.2421875 40 315 40 c 0
 391.448242188 40 394 157.619140625 394 196 c 0
 394 336.163085938 342.232421875 387.666992188 283 387.666992188 c 0
 244 387.666992188 225 375 208 360 c 1
 194 382 l 1
 217 402 246 424.666992188 283 424.666992188 c 0
 362 424.666992188 431.04296875 363.220703125 431.04296875 196 c 0
 431.04296875 123.088867188 418.498046875 3 315 3 c 0
 256.939453125 3 232 48 231 79 c 1
 231 48 208.14453125 3 147 3 c 0
 79.80859375 3 63 48.037109375 63 105 c 0
25.2470703125 474 m 0
 25.2470703125 553 84.849609375 591 141.555664062 591 c 0
 206.112304688 591 266 548.098632812 266 454 c 9
 232 402 l 1
 232 416 232 435 232 454 c 0
 232 524.74609375 189.91796875 557 141.555664062 557 c 0
 101.169921875 557 58.72265625 530.04296875 58.72265625 474 c 0
 58.72265625 407.775390625 102 368 179 356 c 1
 171 325 l 1
 84 338 25.2470703125 390.377929688 25.2470703125 474 c 0
EndSplineSet
Layer: 2
SplineSet
21 126 m 5
 60.3720703125 214 l 5
 106 206 l 5
 112 197 119.459960938 191.751953125 119.459960938 156 c 4
 119.459960938 138.591796875 121.092773438 109 144.372070312 109 c 4
 163.029296875 109 179.372070312 119 179.372070312 160 c 6
 179.372070312 227 l 5
 269.372070312 227 l 5
 269.372070312 160 l 6
 269.372070312 122 281.372070312 109 307.372070312 109 c 4
 342.372070312 109 347.459960938 165.987304688 347.459960938 210 c 4
 347.459960938 335.987304688 267.372070312 364 216.372070312 346 c 5
 289.372070312 426 l 5
 311.813476562 437 454.459960938 431 454.459960938 210 c 4
 454.459960938 112.106445312 414.415039062 0 308.415039062 0 c 4
 269.415039062 0 234.415039062 29 225 52 c 5
 216.415039062 31 185.415039062 0 149 0 c 4
 -8 0 84.5400390625 165 21 126 c 5
438.459960938 585 m 5
 556.087890625 585 666.087890625 486 666.087890625 263 c 4
 666.087890625 58 592.971679688 0 489.372070312 0 c 4
 413.458007812 0 384.657226562 58.021484375 375.372070312 94 c 5
 443.372070312 158 l 5
 444.372070312 134 447.744140625 103 489.372070312 103 c 4
 532.474609375 103 555.087890625 137 555.087890625 263 c 4
 555.087890625 399.940429688 503.3125 473.228515625 428.731445312 473.228515625 c 4
 375.731445312 473.228515625 347.950195312 457.000976562 308.373046875 415.999023438 c 4
 306.063476562 413.606445312 197.614257812 290.752929688 113.62890625 205.999023438 c 4
 68.0146484375 159.96875 23.9775390625 128.701171875 21.0009765625 125.999023438 c 6
 17.0009765625 231.999023438 l 5
 81.0107421875 297.919921875 160.924804688 405.91015625 236.4609375 488.999023438 c 4
 286.514648438 544.057617188 348.4609375 584.999023438 438.4609375 584.999023438 c 5
 438.459960938 585 l 5
148.987304688 594 m 4
 225.977539062 594 297.372070312 537.3359375 297.372070312 428 c 4
 297.372070312 396.735351562 286.459960938 389.899414062 261.459960938 369.899414062 c 5
 198.178710938 416.436523438 l 5
 199.240234375 422.678710938 199.743164062 428.6484375 199.743164062 434.311523438 c 4
 199.743164062 471.944335938 175.8984375 496 147.372070312 496 c 4
 119.538085938 496 105.947265625 475.012695312 105.947265625 451.903320312 c 4
 105.947265625 411.899414062 133.170898438 394.899414062 163.170898438 387.899414062 c 5
 103.459960938 327.899414062 l 5
 58.1708984375 344.899414062 13.3720703125 391.899414062 13.3720703125 461.536132812 c 4
 13.3720703125 532.131835938 61.3720703125 594 148.987304688 594 c 4
EndSplineSet
Layer: 3
SplineSet
916 3 m 0
 852.008789062 3 825.758789062 53.53515625 836 115 c 0
 839.131835938 133.795898438 841.262695312 166.778320312 816 155 c 1
 840 190 l 1
 871 194 878 164 872 110 c 0
 867.70703125 71.361328125 880.8046875 40 916 40 c 0
 971 40 982 108.077148438 982 170 c 1
 1018 170 l 1
 1018 108.077148438 1029 40 1084 40 c 0
 1160.44824219 40 1163 157.619140625 1163 196 c 0
 1163 336.163085938 1111.23242188 387.666992188 1052 387.666992188 c 0
 1013 387.666992188 994 375 977 360 c 1
 963 382 l 1
 986 402 1015 424.666992188 1052 424.666992188 c 0
 1131 424.666992188 1200.04296875 363.220703125 1200.04296875 196 c 0
 1200.04296875 123.088867188 1187.49804688 3 1084 3 c 0
 1025.93945312 3 1001 48 1000 79 c 1
 1000 48 977.14453125 3 916 3 c 0
1182 95 m 1
 1188.61132812 65 1213.4453125 40 1262 40 c 0
 1325.10742188 40 1376 98.990234375 1376 263 c 0
 1376 469.22265625 1297.64941406 545 1208 545 c 0
 1139.79003906 545 1084.78515625 494.647460938 1036 433 c 2
 816 155 l 1
 791 184 l 1
 1009 458 l 2
 1064.47167969 527.721679688 1130.54199219 582 1208 582 c 0
 1317.39355469 582 1413 496.280273438 1413 263 c 0
 1413 90.4228515625 1364.35546875 3 1262 3 c 0
 1192.80957031 3 1157.421875 40.7275390625 1148 86 c 1
 1182 95 l 1
827.72265625 474 m 0
 827.72265625 407.775390625 871 368 948 356 c 1
 940 325 l 1
 853 338 794.247070312 390.377929688 794.247070312 474 c 0
 794.247070312 553 853.849609375 591 910.555664062 591 c 0
 975.112304688 591 1035 548.098632812 1035 454 c 0
 1001 402 l 1
 1001 416 1001 435 1001 454 c 0
 1001 524.74609375 958.91796875 557 910.555664062 557 c 0
 870.169921875 557 827.72265625 530.04296875 827.72265625 474 c 0
147 3 m 0
 79.80859375 3 63 48.037109375 63 105 c 0
 63 120.909179688 69.22265625 169.772460938 47 155 c 1
 71 190 l 1
 101.642578125 198.607421875 97 129.747070312 97 105 c 0
 97 68.7001953125 107.004882812 40 147 40 c 0
 202 40 213 108.077148438 213 170 c 1
 249 170 l 1
 249 108.077148438 260 40 315 40 c 0
 391.448242188 40 394 157.619140625 394 196 c 0
 394 350 336.872070312 387.666992188 283 387.666992188 c 0
 244 387.666992188 225 375 208 360 c 1
 194 382 l 1
 217 402 246 424.666992188 283 424.666992188 c 0
 355.522460938 424.666992188 431.04296875 376 431.04296875 196 c 0
 431.04296875 123.088867188 418.498046875 3 315 3 c 0
 256.939453125 3 232 48 231 79 c 1
 231 48 208.14453125 3 147 3 c 0
413 95 m 1
 419.611328125 65 444.4453125 40 493 40 c 0
 556.107421875 40 607 98.990234375 607 263 c 0
 607 469.22265625 528.649414062 545 439 545 c 0
 370.790039062 545 315.78515625 494.647460938 267 433 c 2
 47 155 l 1
 22 184 l 1
 240 458 l 2
 295.471679688 527.721679688 361.541992188 582 439 582 c 0
 548.393554688 582 644 496.280273438 644 263 c 0
 644 90.4228515625 595.35546875 3 493 3 c 0
 423.809570312 3 388.421875 40.7275390625 379 86 c 1
 413 95 l 1
58.72265625 474 m 0
 58.72265625 407.775390625 102 368 179 356 c 1
 171 325 l 1
 84 338 25.2470703125 390.377929688 25.2470703125 474 c 0
 25.2470703125 553 84.849609375 591 141.555664062 591 c 0
 206.112304688 591 266 548.098632812 266 454 c 0
 232 402 l 1
 232 416 232 435 232 454 c 0
 232 524.74609375 189.91796875 557 141.555664062 557 c 0
 101.169921875 557 58.72265625 530.04296875 58.72265625 474 c 0
-539.903320312 435.973632812 m 1
 -547.486328125 484.956054688 -572.279296875 528.100585938 -621.47265625 528.100585938 c 0
 -668.74609375 528.100585938 -693.087890625 494.33984375 -693.087890625 459.63671875 c 0
 -693.087890625 397 -647 366 -607 359 c 1
 -585.081054688 382.533203125 -562.15625 410.056640625 -539.903320312 435.973632812 c 1
-730 176 m 1
 -752.118164062 204.9296875 l 1
 -693.64453125 264.844726562 -672.560546875 287.268554688 -629 333.658203125 c 1
 -673 347 -727.087890625 383.25 -727.087890625 459.63671875 c 0
 -727.087890625 511 -692.084960938 562.100585938 -621.47265625 562.100585938 c 0
 -562.4609375 562.100585938 -524 522 -511 466 c 1
 -464.421875 508.260742188 -409.431640625 564 -332 564 c 0
 -234.196289062 564 -134.372070312 491.522460938 -134.372070312 279 c 0
 -134.372070312 64.125 -206 30 -281 30 c 0
 -331 30 -361 48 -376.28515625 70.796875 c 1
 -392 50 -415 30 -456.95703125 30 c 0
 -515.017578125 30 -540 69 -543 105 c 1
 -547 69 -562.85546875 30 -624 30 c 0
 -694 30 -714 88.4228515625 -714 145 c 0
 -714 169.341796875 -708 202 -699 212 c 1
 -648 265 l 1
 -665.918945312 235.013671875 -680 186 -680 145 c 0
 -680 108.700195312 -668 67 -624 67 c 0
 -569.877929688 67 -556 130.14453125 -556 197 c 1
 -526 197 l 1
 -526 135.077148438 -521.225585938 67 -456.95703125 67 c 0
 -385.388671875 67 -383 174.817382812 -383 210 c 0
 -383 364 -471 400 -537 380 c 1
 -595.698242188 318.954101562 -668.052734375 240.625 -730 176 c 1
-281 67 m 0
 -200.9609375 67 -171.372070312 139.780273438 -171.372070312 279 c 0
 -171.372070312 424 -230 527 -332 527 c 0
 -392.481445312 527 -461.838867188 456.368164062 -510.104492188 411.403320312 c 1
 -460 429 -346 401 -346 210 c 0
 -346 176.396484375 -350.741210938 133.131835938 -358 104 c 1
 -350.532226562 82.1279296875 -323.127929688 67 -281 67 c 0
EndSplineSet
EndChar

StartChar: si_Kha
Encoding: 22 3483 26
Width: 548
VWidth: 0
Flags: HW
LayerCount: 4
Fore
SplineSet
22 220 m 0
 22 419.133789062 97.666015625 486 185.060546875 486 c 0
 276.594726562 486 310 437.897460938 310 345 c 0
 310 292.348632812 289.669921875 262.677734375 271.081054688 232 c 0
 255.422851562 206.16015625 241 179.60546875 241 138 c 0
 241 98.2255859375 244 7 248 -52 c 1
 211 -55 l 1
 205.219726562 2.798828125 205.114257812 87.2119140625 205.114257812 132.946289062 c 0
 205.115234375 162.232421875 210.234375 184.840820312 217.682617188 204 c 0
 237.5546875 255.120117188 274 281.6796875 274 345 c 0
 274 414.345703125 252.174804688 450 185.060546875 450 c 0
 117.497070312 450 59 392.18359375 59 220 c 0
 59 105.193359375 84.7783203125 39 144 39 c 0
 182.884765625 39 209.538085938 79 216 115 c 1
 246 108 l 1
 236.555664062 52 205.124023438 3 144 3 c 0
 59 3 22 82.359375 22 220 c 0
292 274 m 5
 291.774414062 267.674804688 291.650390625 260.969726562 291.650390625 253.977539062 c 0
 291.650390625 168.115234375 310.325195312 39 388 39 c 4
 468 39 474.619140625 145.85546875 474.619140625 293 c 4
 474.619140625 576.88671875 400.16796875 712 247.0625 712 c 4
 176.190429688 712 107.713867188 665.926757812 84.3896484375 605 c 5
 50.3896484375 618 l 5
 78.5888671875 692.592773438 161.376953125 749 247.0625 749 c 4
 425.0625 749 511.619140625 601.955078125 511.619140625 293 c 4
 511.619140625 125 500.952148438 3 380 3 c 4
 276.385742188 3 256.924804688 138.704101562 256.924804688 233.866210938 c 0
 256.924804688 247.997070312 257.353515625 261.234375 258 273 c 5
 292 274 l 5
EndSplineSet
Layer: 2
SplineSet
279.875 74 m 1
 291.875 42 319.875 0 382 0 c 0
 523 0 539.630859375 181.99609375 539.630859375 293 c 0
 539.630859375 599.055664062 437.32421875 755 236.541015625 755 c 0
 149.8203125 755 65.2490234375 707.868164062 29.2646484375 613.029296875 c 1
 138.296875 576.85546875 l 1
 155.352539062 618.959960938 195.4375 639.884765625 236.541015625 639.884765625 c 0
 361.462890625 639.884765625 425.115234375 522.796875 425.115234375 293 c 0
 425.115234375 171.640625 394.23046875 131.5390625 366.956054688 131.5390625 c 0
 339.875 131.5390625 317.875 158 317.875 226 c 1
 257.875 152 l 1
 279.875 74 l 1
295.875 154 m 24
 311.391601562 213 357 251 357 324 c 0
 357 430 295.56640625 488.874023438 188.060546875 488.874023438 c 0
 83.875 488.874023438 7.875 425.889648438 7.875 220 c 0
 7.875 79 51.875 0 156.875 0 c 0
 209.353515625 0 236.875 28 265.875 73 c 1
 209.875 156 l 1
 193.875 120 176.875 110 156.875 110 c 0
 135.875 110 117.875 128 117.875 220 c 0
 117.875 339.788085938 147.047851562 376.432617188 186.875 376.432617188 c 0
 229.56640625 376.432617188 245 354 245 324 c 0
 245 264 192.875 236 179.875 172 c 0
 161.561523438 81.8408203125 176.875 -26 181.875 -80 c 1
 292.875 -73 l 1
 286.526367188 -15.8662109375 279.510742188 94.5322265625 295.875 154 c 24
EndSplineSet
EndChar

StartChar: si_Ga
Encoding: 23 3484 27
Width: 679
VWidth: 0
Flags: HW
LayerCount: 4
Fore
SplineSet
218 276 m 5
 262.565429688 295.977539062 268.831054688 338.024414062 268.831054688 369.950195312 c 4
 268.831054688 382.439453125 267.872070312 393.379882812 267.872070312 400.84375 c 4
 267.872070312 512.850585938 337 581 417 581 c 4
 509.438476562 581 592.372070312 528 592.372070312 292 c 4
 592.372070312 57 510.041015625 3 424 3 c 4
 368.235351562 3 331.760742188 31.681640625 313 70.796875 c 4
 336.372070312 123 l 5
 339.372070312 83 371.372070312 40 424 40 c 4
 490.877929688 40 554.872070312 87.0869140625 554.872070312 292 c 4
 554.872070312 497.78515625 490.701171875 544 417 544 c 4
 341.452148438 544 304.872070312 474.38671875 304.872070312 400.84375 c 4
 304.872070312 392.559570312 305.45703125 382.064453125 305.45703125 370.387695312 c 4
 305.45703125 328.727539062 298.012695312 272.025390625 230 247 c 5
 218 276 l 5
22 276 m 0
 22 524.010742188 104.331054688 581 190.372070312 581 c 0
 264 581 304 531 314 473 c 1
 278 461 l 1
 275 501 243 544 190.372070312 544 c 0
 123.494140625 544 59.5 493.923828125 59.5 276 c 0
 59.5 83.2802734375 133.298828125 40 207 40 c 0
 293.76953125 40 326.127929688 111.732421875 326.127929688 174 c 0
 326.127929688 224.729492188 302.17578125 268.541015625 265 272 c 1
 282 301 l 1
 318 298.771484375 363.127929688 249.75390625 363.127929688 174 c 0
 363.127929688 94.5390625 320.719726562 3 207 3 c 0
 114.561523438 3 22 53.0654296875 22 276 c 0
EndSplineSet
Layer: 2
SplineSet
207 107 m 5
 268 107 286.627929688 146.15625 286.627929688 184.15625 c 4
 286.627929688 219.15625 270.890625 231.250976562 258.627929688 236.15625 c 5
 321.627929688 306.15625 l 5
 357.627929688 294.44921875 388.627929688 243.15625 388.627929688 189.15625 c 4
 388.627929688 94.73046875 337.560546875 0 207 0 c 4
 100.000976562 0 2 57.625 2 292 c 4
 2 514.57421875 86.7724609375 584 190.372070312 584 c 4
 266.286132812 584 307.71484375 533.978515625 317 498 c 5
 252 426 l 5
 246.823242188 442.5859375 232 478 190.372070312 478 c 4
 147.26953125 478 111 433.659179688 111 292 c 4
 111 144.453125 157.415039062 107 207 107 c 5
 207 107 l 5
411 584.15625 m 4
 517.999023438 584.15625 616 526.53125 616 292.15625 c 4
 616 69.58203125 531.227539062 0.15625 427.627929688 0.15625 c 4
 351.713867188 0.15625 310.28515625 50.177734375 301 86.15625 c 5
 366 158.15625 l 5
 371.176757812 141.5703125 386 106.15625 427.627929688 106.15625 c 4
 470.73046875 106.15625 507 150.497070312 507 292.15625 c 4
 507 439.703125 460.584960938 477.15625 411 477.15625 c 4
 359.189453125 477.15625 348 438 348 362 c 4
 348 286.15625 303 254 243 220 c 5
 196.627929688 300.15625 l 5
 248.627929688 333.15625 246 369 246 401 c 4
 246 527 331.092773438 584.15625 411 584.15625 c 4
EndSplineSet
Layer: 3
SplineSet
304.872070312 400.84375 m 4
 304.872070312 363 317.07421875 279.0390625 230 247 c 5
 218 276 l 5
 280 303.79296875 267.872070312 374.302734375 267.872070312 400.84375 c 4
 267.872070312 512.850585938 337 581 417 581 c 4
 509.438476562 581 592.372070312 528 592.372070312 292 c 4
 592.372070312 57 510.041015625 3 424 3 c 4
 368.235351562 3 331.760742188 31.681640625 313 70.796875 c 4
 336.372070312 123 l 5
 339.372070312 83 371.372070312 40 424 40 c 4
 490.877929688 40 554.872070312 87.0869140625 554.872070312 292 c 4
 554.872070312 497.78515625 490.701171875 544 417 544 c 4
 341.452148438 544 304.872070312 474.38671875 304.872070312 400.84375 c 4
207 40 m 4
 293.76953125 40 326.127929688 111.732421875 326.127929688 174 c 4
 326.127929688 224.729492188 302.17578125 268.541015625 265 272 c 5
 282 301 l 5
 318 298.771484375 363.127929688 249.75390625 363.127929688 174 c 4
 363.127929688 94.5390625 320.719726562 3 207 3 c 4
 114.561523438 3 22 56 22 292 c 4
 22 527 104.331054688 581 190.372070312 581 c 4
 264 581 304 531 314 473 c 5
 278 461 l 5
 275 501 243 544 190.372070312 544 c 4
 123.494140625 544 59.5 496.913085938 59.5 292 c 4
 59.5 86.21484375 133.298828125 40 207 40 c 4
EndSplineSet
EndChar

StartChar: si_Gha
Encoding: 24 3485 28
Width: 568
VWidth: 0
Flags: HW
LayerCount: 4
Fore
SplineSet
267.721679688 454 m 0
 267.721679688 466.185546875 268.7265625 477.512695312 270.616210938 488 c 0
 283.3125 558.491210938 335.970703125 591 392.166992188 591 c 0
 448.873046875 591 508.475585938 553 508.475585938 474 c 0
 508.475585938 429.732421875 488.158203125 385.565429688 456.611328125 361 c 1
 430.611328125 382 l 1
 457.611328125 402 475 437.958984375 475 474 c 0
 475 530.04296875 432.551757812 557 392.166992188 557 c 0
 343.8046875 557 301.72265625 524.74609375 301.72265625 454 c 0
 301.72265625 435 301.72265625 416 301.72265625 402 c 1
 284.72265625 369 l 1
 275.005859375 397.663085938 267.721679688 421.383789062 267.721679688 454 c 0
68.744140625 189.102539062 m 0
 68.744140625 102.481445312 100.698242188 35 166.72265625 35 c 0
 194.600585938 35 214.888671875 57.185546875 214.888671875 85 c 0
 214.888671875 124 193.888671875 135 193.888671875 171 c 0
 193.888671875 225.030273438 232.3984375 239 284.72265625 239 c 0
 337.046875 239 375.556640625 225.030273438 375.556640625 171 c 0
 375.556640625 135 354.556640625 124 354.556640625 85 c 0
 354.556640625 57.185546875 374.844726562 35 402.72265625 35 c 0
 468.747070312 35 500.701171875 102.481445312 500.701171875 189.102539062 c 0
 500.701171875 247 489.571289062 364 405.72265625 364 c 2
 179.572265625 364 l 2
 81.796875 364 68.744140625 246.16796875 68.744140625 189.102539062 c 0
31.744140625 194.102539062 m 0
 31.744140625 263 51.72265625 342 85.72265625 369 c 1
 22 369 l 1
 22 405 l 1
 407.572265625 405 l 2
 437.888671875 405 461.31640625 394.708007812 479.590820312 378 c 0
 525.000976562 336.482421875 537.701171875 255.3515625 537.701171875 194.102539062 c 0
 537.701171875 86.68359375 493.6796875 3 402.72265625 3 c 0
 353.4296875 3 317.556640625 41.6025390625 317.556640625 90 c 0
 317.556640625 131 338.556640625 147 338.556640625 172 c 0
 338.556640625 200.920898438 313.646484375 207 284.72265625 207 c 0
 255.798828125 207 230.888671875 200.920898438 230.888671875 172 c 0
 230.888671875 147 251.888671875 131 251.888671875 90 c 0
 251.888671875 41.6025390625 216.015625 3 166.72265625 3 c 0
 75.765625 3 31.744140625 86.68359375 31.744140625 194.102539062 c 0
60.9697265625 474 m 0
 60.9697265625 553 120.572265625 591 177.278320312 591 c 0
 233.474609375 591 286.133789062 558.491210938 298.830078125 488 c 0
 300.71875 477.512695312 301.723632812 466.185546875 301.723632812 454 c 0
 301.723632812 421.383789062 294.439453125 397.663085938 284.72265625 369 c 1
 267.72265625 402 l 1
 267.72265625 416 267.72265625 435 267.72265625 454 c 0
 267.72265625 524.74609375 225.640625 557 177.278320312 557 c 0
 136.892578125 557 94.4453125 530.04296875 94.4453125 474 c 0
 94.4453125 432 113.4453125 406 123.4453125 396 c 1
 101.4453125 376 l 1
 89.4453125 387 60.9697265625 419 60.9697265625 474 c 0
EndSplineSet
Layer: 2
SplineSet
381.22265625 495.969726562 m 1
 358.484375 495.969726562 329.658203125 481 329.658203125 434.311523438 c 0
 329.658203125 428.6484375 330.161132812 422.2421875 331.22265625 416 c 2
 284.72265625 318.40625 l 1
 270.383789062 365.0078125 233.475585938 444.209960938 243.858398438 482.969726562 c 0
 263.487304688 556.24609375 322.577148438 593.969726562 385.395507812 593.969726562 c 0
 471.955078125 593.969726562 524.0546875 532.106445312 524.0546875 456.376953125 c 0
 524.0546875 428.57421875 513.26953125 395.61328125 493.959960938 370.40625 c 1
 415.959960938 410.40625 l 1
 423.943359375 419.530273438 430.579101562 439.078125 430.579101562 451.1328125 c 0
 430.579101562 474.96875 416.366210938 495.96875 381.22265625 495.96875 c 1
 381.22265625 495.969726562 l 1
184.049804688 593.969726562 m 1
 246.868164062 593.969726562 305.958984375 556.247070312 325.586914062 482.969726562 c 0
 335.969726562 444.208984375 299.061523438 365.0078125 284.72265625 318.407226562 c 1
 238.22265625 416.000976562 l 2
 239.284179688 422.243164062 239.787109375 428.649414062 239.787109375 434.3125 c 0
 239.787109375 481.000976562 210.9609375 495.970703125 188.22265625 495.970703125 c 0
 138.5546875 495.970703125 130.07421875 443.811523438 154.434570312 413.407226562 c 1
 78.7236328125 375.407226562 l 1
 57.697265625 403.20703125 48.4345703125 433.065429688 48.4345703125 461.506835938 c 0
 48.4345703125 532.102539062 96.4345703125 593.970703125 184.048828125 593.970703125 c 1
 184.049804688 593.969726562 l 1
549.442382812 207 m 1
 549.442382812 95.095703125 511.3359375 0 399.72265625 0 c 0
 333.248046875 0 300.72265625 54 300.72265625 94 c 0
 300.72265625 125 306.72265625 141.673828125 306.72265625 158 c 0
 306.72265625 171.092773438 301.72265625 180 284.72265625 180 c 0
 267.72265625 180 262.72265625 171.092773438 262.72265625 158 c 0
 262.72265625 141.673828125 268.72265625 125 268.72265625 94 c 0
 268.72265625 54 236.197265625 0 169.72265625 0 c 0
 58.109375 0 20.0029296875 95.095703125 20.0029296875 207 c 0
 20.0029296875 248.30078125 31.4853515625 294 45.4853515625 319.563476562 c 1
 4.6689453125 319.666992188 l 1
 4.6689453125 416 l 1
 240.240234375 416 l 1
 335.240234375 416 l 1
 399.484375 416 l 2
 440.484375 416 476.395507812 393.522460938 500.484375 368.23828125 c 0
 534.311523438 332.731445312 549.44140625 278.352539062 549.44140625 207 c 1
 549.442382812 207 l 1
284.72265625 258 m 0
 355.72265625 258 387.72265625 236.994140625 387.72265625 189 c 0
 387.72265625 152.00390625 371.72265625 115 399.72265625 115 c 0
 435.016601562 115 442.442382812 157.264648438 442.442382812 207 c 0
 442.442382812 258.725585938 422.485351562 318 382.204101562 318 c 2
 187.241210938 318 l 2
 146.485351562 318 127.002929688 258.08984375 127.002929688 207 c 0
 127.002929688 157.264648438 134.428710938 115 169.72265625 115 c 0
 197.72265625 115 181.72265625 152.00390625 181.72265625 189 c 0
 181.72265625 236.994140625 213.72265625 258 284.72265625 258 c 0
EndSplineSet
EndChar

StartChar: si_Nga
Encoding: 25 3486 29
Width: 570
VWidth: 0
Flags: HW
LayerCount: 4
Fore
SplineSet
22 405.150390625 m 0
 22 433.760742188 34.8603515625 459.216796875 55.150390625 476.083007812 c 0
 75.150390625 492.708007812 139.151367188 501.668945312 169.451171875 479 c 0
 191.862304688 462.232421875 206.298828125 435.461914062 206.298828125 405.150390625 c 0
 206.298828125 354.041015625 165.256835938 313 114.150390625 313 c 0
 63.041015625 313 22 354.041015625 22 405.150390625 c 0
58.56640625 405.129882812 m 0
 58.56640625 374.171875 83.28515625 348.567382812 114.56640625 348.567382812 c 0
 145.826171875 348.567382812 170.56640625 374.166015625 170.56640625 405.129882812 c 0
 170.56640625 436.086914062 145.848632812 461.692382812 114.56640625 461.692382812 c 0
 83.3056640625 461.692382812 58.56640625 436.092773438 58.56640625 405.129882812 c 0
527.541015625 293 m 0
 527.541015625 576.88671875 453.08984375 712 299.984375 712 c 0
 229.112304688 712 160.635742188 665.926757812 137.311523438 605 c 1
 103.311523438 618 l 1
 131.510742188 692.592773438 214.298828125 749 299.984375 749 c 0
 477.984375 749 564.541015625 601.955078125 564.541015625 293 c 0
 564.541015625 145.134765625 555.181640625 3 427.984375 3 c 0
 332.818359375 3 313.818359375 85 309.984375 115 c 1
 306.150390625 85 287.150390625 3 191.984375 3 c 0
 103.384765625 3 68.541015625 81.4208984375 68.541015625 179.102539062 c 0
 68.541015625 362.020507812 188.729492188 378 216.150390625 378 c 0
 284.150390625 378 280.150390625 362 330.150390625 362 c 0
 355.822265625 362 379.150390625 381.764648438 379.150390625 418 c 0
 379.150390625 485.913085938 283.526367188 506 218.150390625 506 c 0
 180.208984375 506 61.150390625 501.454101562 61.150390625 436 c 1
 22.150390625 415 l 1
 36.150390625 513.637695312 126.962890625 539.02734375 218.150390625 539.02734375 c 0
 331.303710938 539.02734375 416.150390625 503.184570312 416.150390625 418 c 0
 416.150390625 347.448242188 367.384765625 325 330.150390625 325 c 0
 272.150390625 325 270.150390625 341 216.150390625 341 c 0
 161.1875 341 105.541015625 298.715820312 105.541015625 180.102539062 c 0
 105.541015625 102.389648438 129.940429688 40 191.984375 40 c 0
 283.150390625 40 289.7421875 148.885742188 292.984375 224.5 c 1
 326.984375 224.5 l 1
 330.2265625 148.885742188 336.818359375 40 427.984375 40 c 0
 520.717773438 40 527.541015625 164 527.541015625 293 c 0
EndSplineSet
Layer: 2
SplineSet
13.095703125 411.650390625 m 0
 13.095703125 476.809570312 65.5859375 529.298828125 130.74609375 529.298828125 c 0
 195.905273438 529.298828125 248.39453125 476.80859375 248.39453125 411.650390625 c 0
 248.39453125 346.490234375 195.904296875 294 130.74609375 294 c 0
 65.5859375 294 13.095703125 346.490234375 13.095703125 411.650390625 c 0
92.0810546875 411.301757812 m 0
 92.0810546875 389.05078125 109.713867188 371.126953125 131.602539062 371.126953125 c 0
 153.491210938 371.126953125 171.124023438 389.05078125 171.124023438 411.301757812 c 0
 171.124023438 433.551757812 153.491210938 451.4765625 131.602539062 451.4765625 c 0
 109.713867188 451.4765625 92.0810546875 433.551757812 92.0810546875 411.301757812 c 0
92.0810546875 411.301757812 m 1
 12.74609375 420 l 1
 23.74609375 527 121.74609375 551.563476562 204.74609375 551.563476562 c 0
 293.249023438 551.563476562 427.025390625 540 427.025390625 416.01171875 c 0
 427.025390625 344.387695312 365.01171875 282.552734375 277.74609375 310 c 0
 212.36328125 330.564453125 164.263671875 292.291015625 164.263671875 193.4375 c 0
 164.263671875 156.329101562 169.9375 114.653320312 207.1953125 114.653320312 c 0
 249.37109375 114.653320312 264.376953125 179.678710938 264.376953125 249.500976562 c 1
 360.288085938 249.500976562 l 1
 360.288085938 176.750976562 375.755859375 115.000976562 418.74609375 115.000976562 c 0
 475.501953125 115.000976562 475.501953125 239.958984375 475.501953125 293.000976562 c 0
 475.501953125 522.797851562 432.501953125 639.885742188 294.501953125 639.885742188 c 0
 253.3984375 639.885742188 205.739257812 618.9609375 188.684570312 576.856445312 c 1
 79.65234375 613.030273438 l 1
 115.63671875 707.869140625 207.782226562 755.001953125 294.502929688 755.001953125 c 0
 511.502929688 755.001953125 590.502929688 599.057617188 590.502929688 293.001953125 c 0
 590.502929688 181.997070312 589.502929688 0.001953125 418.747070312 0.001953125 c 0
 362.827148438 0.001953125 324.8046875 33.146484375 309.984375 79.0322265625 c 1
 293.838867188 31.6044921875 254.426757812 0.001953125 201.747070312 0.001953125 c 0
 85.947265625 0.001953125 57.265625 105.455078125 57.265625 193.438476562 c 0
 57.265625 384.001953125 209.747070312 408.002929688 294.747070312 389.001953125 c 0
 317.258789062 383.969726562 331.67578125 403.6484375 331.67578125 421.37109375 c 0
 331.67578125 466.967773438 268.985351562 472.549804688 216.747070312 464.001953125 c 1
 157.747070312 464.001953125 92.08203125 460.001953125 92.08203125 411.303710938 c 1
 92.0810546875 411.301757812 l 1
EndSplineSet
Layer: 3
SplineSet
44 417.150390625 m 4
 44 468.2578125 85.041015625 509.298828125 136.150390625 509.298828125 c 4
 187.2578125 509.298828125 228.298828125 468.2578125 228.298828125 417.150390625 c 4
 228.298828125 366.041015625 187.256835938 325 136.150390625 325 c 4
 85.041015625 325 44 366.041015625 44 417.150390625 c 4
80.56640625 417.129882812 m 4
 80.56640625 386.171875 105.28515625 360.567382812 136.56640625 360.567382812 c 4
 167.826171875 360.567382812 192.56640625 386.166015625 192.56640625 417.129882812 c 4
 192.56640625 448.086914062 167.848632812 473.692382812 136.56640625 473.692382812 c 4
 105.305664062 473.692382812 80.56640625 448.092773438 80.56640625 417.129882812 c 4
527.541015625 293 m 4
 527.541015625 576.88671875 453.08984375 712 299.984375 712 c 4
 229.112304688 712 160.635742188 665.926757812 137.311523438 605 c 5
 103.311523438 618 l 5
 131.510742188 692.592773438 214.298828125 749 299.984375 749 c 4
 477.984375 749 564.541015625 601.955078125 564.541015625 293 c 4
 564.541015625 145.134765625 555.181640625 3 427.984375 3 c 4
 332.818359375 3 313.818359375 85 309.984375 115 c 5
 306.150390625 85 287.150390625 3 191.984375 3 c 4
 103.384765625 3 68.541015625 81.4208984375 68.541015625 179.102539062 c 4
 68.541015625 362.020507812 188.729492188 378 216.150390625 378 c 4
 276.150390625 378 289.829101562 357 323.150390625 357 c 4
 354.584960938 357 383.150390625 379.94140625 383.150390625 422 c 4
 383.150390625 505.265625 294.059570312 514 233.150390625 514 c 4
 196.17578125 514 80.150390625 509 80.150390625 437 c 5
 46.150390625 437 l 5
 65.4951171875 524 146.150390625 547.02734375 233.150390625 547.02734375 c 4
 340.017578125 547.02734375 420.150390625 518.174804688 420.150390625 422 c 4
 420.150390625 344.62109375 365.147460938 320 323.150390625 320 c 4
 290.349609375 320 261.765625 341 216.150390625 341 c 4
 161.1875 341 105.541015625 298.715820312 105.541015625 180.102539062 c 4
 105.541015625 102.389648438 129.940429688 40 191.984375 40 c 4
 283.150390625 40 289.7421875 148.885742188 292.984375 224.5 c 5
 326.984375 224.5 l 5
 330.2265625 148.885742188 336.818359375 40 427.984375 40 c 4
 520.717773438 40 527.541015625 164 527.541015625 293 c 4
EndSplineSet
EndChar

StartChar: si_Nnga
Encoding: 26 3487 30
Width: 802
VWidth: 0
Flags: HW
LayerCount: 4
Fore
SplineSet
369 276 m 1
 413.565429688 295.977539062 419.831054688 338.025390625 419.831054688 369.950195312 c 0
 419.831054688 382.439453125 418.872070312 393.379882812 418.872070312 400.84375 c 0
 418.872070312 512.850585938 488 581 568 581 c 0
 660.438476562 581 743.372070312 528 743.372070312 292 c 0
 743.372070312 57 661.041015625 3 575 3 c 0
 519.235351562 3 482.760742188 31.681640625 464 70.796875 c 0
 487.372070312 123 l 1
 490.372070312 83 522.372070312 40 575 40 c 0
 641.877929688 40 705.872070312 87.0869140625 705.872070312 292 c 0
 705.872070312 497.78515625 641.701171875 544 568 544 c 0
 492.452148438 544 455.872070312 474.38671875 455.872070312 400.84375 c 0
 455.872070312 392.55859375 456.45703125 382.064453125 456.45703125 370.387695312 c 0
 456.45703125 328.727539062 449.012695312 272.025390625 381 247 c 1
 369 276 l 1
173 276 m 0
 173 524.009765625 255.331054688 581 341.372070312 581 c 0
 415 581 455 531 465 473 c 1
 429 461 l 1
 426 501 394 544 341.372070312 544 c 0
 274.494140625 544 210.5 493.923828125 210.5 276 c 0
 210.5 83.2802734375 284.298828125 40 358 40 c 0
 444.76953125 40 477.127929688 111.732421875 477.127929688 174 c 0
 477.127929688 224.729492188 453.17578125 268.541015625 416 272 c 1
 433 301 l 1
 469 298.771484375 514.127929688 249.754882812 514.127929688 174 c 0
 514.127929688 94.5390625 471.719726562 3 358 3 c 0
 265.561523438 3 173 53.0654296875 173 276 c 0
22 281 m 0
 22 513.989257812 88.1767578125 576 150.493164062 576 c 0
 210.020507812 576 238.475585938 531 238.475585938 471.000976562 c 1
 205 471.000976562 l 1
 203.709960938 518.658203125 180.396484375 539 150.493164062 539 c 0
 106.12109375 539 59 484.766601562 59 281 c 0
 59 111.294921875 92.9375 47.2626953125 134 40 c 1
 134 3 l 1
 72.6806640625 11.3779296875 22 85.240234375 22 281 c 0
EndSplineSet
Layer: 2
SplineSet
85 284 m 5
 85 131.65625 108.779296875 102 142 102 c 5
 142 0 l 5
 47 0 -21 46.27734375 -21 284 c 4
 -21 506.57421875 64.1806640625 584 168.279296875 584 c 4
 237.598632812 584 275.428710938 527.581054688 283.907226562 487 c 5
 229.907226562 426 l 5
 224.73046875 442.5859375 209.907226562 480 168.279296875 480 c 4
 124.702148438 480 85 425.659179688 85 284 c 5
 85 284 l 5
356 106 m 4
 306.415039062 106 257 136.453125 257 284 c 4
 257 425.659179688 296.26953125 480 339.372070312 480 c 4
 381 480 395.823242188 442.5859375 401 426 c 5
 466 498 l 5
 456.71484375 533.978515625 415.286132812 584 339.372070312 584 c 4
 235.772460938 584 151 506.57421875 151 284 c 4
 151 49.625 249.000976562 0 356 0 c 4
 486.560546875 0 539.9921875 104.57421875 539.9921875 199 c 4
 539.9921875 255.70703125 516 330 446 350 c 5
 379 280 l 5
 391.262695312 275.094726562 437 249 437 199 c 4
 437 155.278320312 417 106 356 106 c 4
559.907226562 0.15625 m 4
 666.90625 0.15625 764.907226562 51.625 764.907226562 286 c 4
 764.907226562 520.375 666.90625 584 559.907226562 584 c 4
 480 584 395 527 395 401 c 4
 395 369 391 344 339 311 c 5
 392 220 l 5
 452 254 497 306.241210938 497 362 c 4
 497 438 512.495117188 478 559.907226562 478 c 5
 609.4921875 478 658.907226562 433.546875 658.907226562 286 c 4
 658.907226562 136.084960938 609.487304688 104 559.907226562 104 c 5
 518.279296875 104 503.456054688 141.5703125 498.279296875 158.15625 c 5
 433.279296875 86.15625 l 5
 442.564453125 50.1787109375 483.993164062 0.15625 559.907226562 0.15625 c 4
EndSplineSet
EndChar

StartChar: si_Ca
Encoding: 27 3488 31
Width: 554
VWidth: 0
Flags: HW
LayerCount: 4
Fore
SplineSet
36.2431640625 207 m 0
 36.2431640625 309.341796875 86.2431640625 349 95.2431640625 354 c 1
 22 354 l 1
 22 389 l 1
 294.51953125 389 l 1
 302.243164062 354 l 1
 172.243164062 354 l 2
 121.243164062 354 72.2431640625 296.708984375 72.2431640625 208 c 0
 72.2431640625 142.71484375 104.393554688 40 241.243164062 40 c 0
 369.108398438 40 442.243164062 150.518554688 442.243164062 354 c 0
 442.243164062 634.014648438 351.465820312 712 240.243164062 712 c 0
 169.37109375 712 111.567382812 665.926757812 88.2431640625 605 c 1
 54.2431640625 618 l 1
 92.2431640625 716 180.2109375 749 240.243164062 749 c 0
 372.388671875 749 480.243164062 662.955078125 480.243164062 354 c 0
 480.243164062 126.541015625 393.282226562 3 241.243164062 3 c 0
 75.2431640625 3 36.2431640625 127.725585938 36.2431640625 207 c 0
70.2431640625 420 m 0
 70.2431640625 488 121.586914062 524 180.243164062 524 c 0
 244.799804688 524 304.6875 481.098632812 304.6875 387 c 0
 304.6875 375.040039062 303.801757812 364.26171875 302.243164062 354 c 1
 270.86328125 379 l 1
 270.770507812 381.637695312 270.6875 384.229492188 270.6875 387 c 0
 270.6875 457.74609375 228.60546875 490 180.243164062 490 c 0
 138.286132812 490 103.71875 467 103.71875 420 c 0
 103.71875 406.329101562 106.708007812 394.165039062 111.624023438 384 c 0
 82.75390625 370 l 0
 75.400390625 384.3203125 70.2431640625 401.845703125 70.2431640625 420 c 0
EndSplineSet
Layer: 2
SplineSet
140.259765625 404.787109375 m 6
 140.259765625 391.465820312 144.776367188 377.438476562 153.684570312 366.3203125 c 5
 77.9736328125 328.3203125 l 5
 56.947265625 356.120117188 47.6845703125 385.978515625 47.6845703125 414.419921875 c 4
 47.6845703125 486.68359375 99.75 531.563476562 174.05078125 531.563476562 c 4
 251.037109375 531.563476562 322.436523438 474.899414062 322.436523438 365.563476562 c 4
 322.436523438 351 319.243164062 325 315.1875 306 c 5
 315.1875 306 223.7421875 366.313476562 224.807617188 371.875 c 4
 231.34765625 406 215.34765625 444 174.051757812 444 c 4
 149.251953125 444 140.259765625 426.133789062 140.259765625 404.787109375 c 6
 140.259765625 404.787109375 l 6
241.243164062 0 m 5
 63.2431640625 0 13.7900390625 133.560546875 23.8349609375 223 c 4
 27.451171875 255.19921875 38.2431640625 286 53.2431640625 306 c 5
 16.482421875 306 l 5
 16.482421875 393 l 5
 281.34765625 390 l 5
 315.1875 306 l 5
 208.244140625 306 l 6
 151.458984375 306 131.225585938 261.911132812 131.225585938 214.068359375 c 4
 131.225585938 166.573242188 160.559570312 115 241.244140625 115 c 4
 345.696289062 115 387.244140625 195.017578125 387.244140625 354 c 4
 387.244140625 583 315.923828125 640 233.098632812 640 c 4
 191.995117188 640 151.909179688 618.959960938 134.854492188 576.85546875 c 5
 25.822265625 613.029296875 l 5
 61.806640625 707.868164062 146.377929688 755 233.09765625 755 c 4
 372.5703125 755 503.244140625 675.859375 503.244140625 354 c 4
 502.244140625 118 421.244140625 0 241.244140625 0 c 5
 241.243164062 0 l 5
EndSplineSet
EndChar

StartChar: si_Cha
Encoding: 28 3489 32
Width: 596
VWidth: 0
Flags: HW
LayerCount: 4
Fore
SplineSet
401.864257812 575 m 0
 473.497070312 647.765625 522 705.78125 522 776 c 1
 558 776 l 1
 558 698.186523438 507.716796875 632.517578125 430.609375 553 c 0
 401.864257812 575 l 0
260.833984375 454 m 0
 260.833984375 466.185546875 261.837890625 477.513671875 263.7265625 488 c 0
 276.419921875 558.491210938 329.08203125 591 385.278320312 591 c 0
 480 591 515 505 515 426 c 0
 515 296.291992188 454.155273438 196 357 196 c 0
 289.65625 196 256.956054688 247.021484375 256.956054688 298.337890625 c 0
 256.956054688 338.4609375 276.947265625 378.764648438 316 395 c 1
 336 366 l 1
 309.153320312 355.845703125 294.698242188 326.09375 294.698242188 296.997070312 c 0
 294.698242188 263.052734375 314.372070312 230 357 230 c 0
 427 230 481.524414062 322 481.524414062 426 c 0
 481.524414062 482.04296875 452 557 385.278320312 557 c 0
 336.916015625 557 294.833984375 524.74609375 294.833984375 454 c 0
 294.833984375 435 294.833984375 416 294.833984375 402 c 1
 277.833984375 369 l 1
 268.118164062 397.663085938 260.833984375 421.383789062 260.833984375 454 c 0
59 224.436523438 m 0
 59 107.2421875 145.024414062 30 277.833984375 30 c 0
 410.643554688 30 496.66796875 106.805664062 496.66796875 224 c 0
 496.66796875 299.407226562 458.19140625 365 374 365 c 2
 181.66796875 365 l 2
 97.4765625 365 59 299.84375 59 224.436523438 c 0
22 224.436523438 m 0
 22 319.693359375 74.9033203125 402 181.66796875 402 c 2
 374 402 l 2
 480.764648438 402 533.66796875 319.256835938 533.66796875 224 c 0
 533.66796875 84.5048828125 433.33984375 -7 277.833984375 -7 c 0
 122.328125 -7 22 84.94140625 22 224.436523438 c 0
54.080078125 474 m 0
 54.080078125 553 113.682617188 591 170.388671875 591 c 0
 226.584960938 591 279.247070312 558.491210938 291.940429688 488 c 0
 293.829101562 477.513671875 294.833007812 466.185546875 294.833007812 454 c 0
 294.833007812 421.383789062 287.548828125 397.663085938 277.833007812 369 c 1
 260.833007812 402 l 1
 260.833007812 416 260.833984375 435 260.833984375 454 c 0
 260.833984375 524.74609375 218.750976562 557 170.388671875 557 c 0
 130.00390625 557 87.5556640625 530.04296875 87.5556640625 474 c 0
 87.5556640625 437.958984375 104.944335938 402 131.944335938 382 c 1
 105.944335938 361 l 1
 74.3974609375 385.565429688 54.080078125 429.732421875 54.080078125 474 c 0
EndSplineSet
Layer: 2
SplineSet
217.435546875 391.436523438 m 5
 227.19140625 416.436523438 l 5
 228.252929688 422.678710938 228.755859375 428.6484375 228.755859375 434.311523438 c 4
 228.755859375 471.944335938 206.526367188 496 178 496 c 4
 148.64453125 496 132.81640625 475 132.81640625 451.1640625 c 4
 132.81640625 439.108398438 139.452148438 419.560546875 147.435546875 410.436523438 c 5
 69.435546875 370.436523438 l 5
 50.1259765625 395.643554688 39.3408203125 428.604492188 39.3408203125 456.407226562 c 4
 39.3408203125 532.13671875 91.4404296875 594 178 594 c 4
 229.045898438 594 277.631835938 569.090820312 304.580078125 520.436523438 c 5
 318.27734375 495.708007812 307.478515625 463.28125 307.478515625 426.436523438 c 4
 307.478515625 395.171875 319.435546875 358.436523438 307.435546875 319.436523438 c 5
 217.435546875 391.436523438 l 5
316.478515625 530.436523438 m 1
 316.478515625 530.436523438 303.719726562 532.9921875 347.478515625 576.436523438 c 0
 478.192382812 706.2109375 483.478515625 744.436523438 483.478515625 803.436523438 c 0
 599.478515625 803.436523438 l 0
 599.478515625 738.436523438 603.477539062 687.4375 498.478515625 574.436523438 c 0
 488.2578125 563.436523438 435.478515625 488.436523438 435.478515625 488.436523438 c 1
 358.478515625 520.436523438 l 1
 316.478515625 530.436523438 l 1
357.478515625 416.436523438 m 16
 479.861328125 416.436523438 540.91796875 330.088867188 540.91796875 224.436523438 c 0
 540.91796875 -90.5634765625 11.478515625 -90.5595703125 11.478515625 224.436523438 c 0
 11.478515625 330.088867188 72.53515625 416.436523438 194.91796875 416.436523438 c 0
 214.400390625 416.436523438 225.6796875 416.436523438 225.6796875 416.436523438 c 2
 258.91796875 416.436523438 292.91796875 416.436523438 326.716796875 416.436523438 c 2
 326.716796875 416.436523438 332.435546875 416.436523438 357.478515625 416.436523438 c 16
351.478515625 318.436523438 m 0
 331.478515625 318.436523438 l 1
 200.91796875 318.436523438 l 0
 145.91796875 318.436523438 118.478515625 276.162109375 118.478515625 224.436523438 c 0
 118.478515625 64.359375 433.91796875 64.9599609375 433.91796875 224.436523438 c 0
 433.91796875 253.267578125 425.393554688 279.162109375 408.323242188 296.436523438 c 1
 394.767578125 310.154296875 375.822265625 318.436523438 351.478515625 318.436523438 c 0
217.435546875 391.436523438 m 1
 227.19140625 416.436523438 l 1
 228.252929688 422.678710938 228.755859375 428.6484375 228.755859375 434.311523438 c 0
 228.755859375 471.944335938 206.526367188 496 178 496 c 0
 148.64453125 496 132.81640625 475 132.81640625 451.1640625 c 0
 132.81640625 439.108398438 139.452148438 419.560546875 147.435546875 410.436523438 c 1
 69.435546875 370.436523438 l 1
 50.1259765625 395.643554688 39.3408203125 428.604492188 39.3408203125 456.407226562 c 0
 39.3408203125 532.13671875 91.4404296875 594 178 594 c 0
 229.045898438 594 277.631835938 569.090820312 304.580078125 520.436523438 c 1
 318.27734375 495.708007812 307.478515625 463.28125 307.478515625 426.436523438 c 0
 307.478515625 395.171875 319.435546875 358.436523438 307.435546875 319.436523438 c 1
 217.435546875 391.436523438 l 1
334.9609375 391.436523438 m 1
 244.9609375 319.436523438 l 1
 232.9609375 358.436523438 226.01171875 396.735351562 226.01171875 428 c 0
 226.01171875 537.3359375 297.40625 594 374.396484375 594 c 0
 460.956054688 594 523.954101562 538.436523438 523.954101562 408.6796875 c 0
 523.954101562 262.436523438 445.478515625 191.436523438 347.478515625 191.436523438 c 0
 252.478515625 191.436523438 223.478515625 274.436523438 250.478515625 319.436523438 c 1
 339.478515625 318.436523438 l 1
 316.478515625 312.436523438 320.478515625 277.943359375 352.49609375 277.943359375 c 0
 393.478515625 277.943359375 430.478515625 302.436523438 430.478515625 403.436523438 c 0
 430.478515625 474.436523438 403.751953125 496 374.396484375 496 c 0
 345.870117188 496 323.640625 471.944335938 323.640625 434.311523438 c 0
 323.640625 428.6484375 324.143554688 422.678710938 325.205078125 416.436523438 c 1
 334.9609375 391.436523438 l 1
EndSplineSet
EndChar

StartChar: si_Ja
Encoding: -1 3490 33
Width: 594
VWidth: 0
Flags: HW
LayerCount: 4
Fore
SplineSet
574 776 m 1
 574 677.844938508 525.442698279 629.109691011 450.590130411 556 c 0
 421.907458872 578 l 0
 491.541315806 644.760334741 538 687.527365415 538 776 c 1
 574 776 l 1
EndSplineSet
EndChar

StartChar: si_Jha
Encoding: 30 3491 34
Width: 997
VWidth: 0
Flags: HW
LayerCount: 4
Fore
SplineSet
470.37109375 214.000976562 m 0
 470.37109375 266.264648438 481.341535821 312.663212745 499.478515625 350.000976562 c 0
 528.598632812 409.94921875 576.19140625 446.5390625 626.508789062 446.5390625 c 0
 645.413085938 446.5390625 663.756835938 441.80078125 683.508789062 432.000976562 c 1
 667.508789062 400.000976562 l 1
 653.30078125 407.104492188 640.106445312 410.5390625 626.508789062 410.5390625 c 0
 587.73828125 410.5390625 552.616496399 379.614129199 530.713867188 331.000976562 c 0
 516.099609375 298.564453125 507.37109375 258.25390625 507.37109375 214.000976562 c 0
 507.37109375 130.796875 529.763671875 40.0009765625 597.205078125 40.0009765625 c 0
 688.37109375 40.0009765625 694.962890625 148.88671875 698.205078125 224.500976562 c 1
 732.205078125 224.500976562 l 1
 735.447265625 148.88671875 742.0390625 40.0009765625 833.205078125 40.0009765625 c 0
 925.938476562 40.0009765625 932.76171875 164.000976562 932.76171875 293.000976562 c 0
 932.76171875 576.887695312 858.310546875 712.000976562 705.205078125 712.000976562 c 0
 634.333007812 712.000976562 565.856445312 665.927734375 542.532226562 605.000976562 c 1
 508.532226562 618.000976562 l 1
 536.731445312 692.59375 619.51953125 749.000976562 705.205078125 749.000976562 c 0
 883.205078125 749.000976562 969.76171875 601.956054688 969.76171875 293.000976562 c 0
 969.76171875 145.135742188 960.40234375 3.0009765625 833.205078125 3.0009765625 c 0
 738.0390625 3.0009765625 719.0390625 85.0009765625 715.205078125 115.000976562 c 1
 711.37109375 85.0009765625 692.37109375 3.0009765625 597.205078125 3.0009765625 c 0
 499.209960938 3.0009765625 470.37109375 115.607421875 470.37109375 214.000976562 c 0
22 184 m 1
 240 458 l 2
 291.66495285 522.936683857 355.43435439 572 429 572 c 0
 515.536127859 572 589.353891039 525.957802855 624.959960938 420 c 1
 590.251953125 406 l 1
 562.511103374 492.687282205 500.049683225 535 429 535 c 0
 364.755734465 535 312.030394999 489.901978339 267 433 c 2
 73.90625 189 l 1
 47 155 l 1
 22 184 l 1
62.9990234375 105 m 0
 62.9990234375 110.7109375 63.80078125 120.66796875 63.80078125 130.404296875 c 0
 63.80078125 144.301757812 62.1669921875 157.747070312 54.236328125 157.747070312 c 0
 52.2451171875 157.747070312 49.857421875 156.899414062 46.9990234375 155 c 1
 53.9990234375 184 l 1
 70.9990234375 190 l 1
 72.6396484375 190.4609375 74.109375 190.739257812 76 190.739257812 c 0
 94.9150390625 190.739257812 97.25 155.333007812 97.25 127.893554688 c 0
 97.25 118.896484375 96.9990234375 110.754882812 96.9990234375 105 c 0
 96.9990234375 68.7001953125 107.00390625 40 146.999023438 40 c 0
 198.756835938 40 212.231512235 100.280272701 212.877929688 159 c 2
 212.999023438 170 l 1
 248.999023438 170 l 1
 249.120117188 159 l 2
 249.766534641 100.280272701 263.241210938 40 314.999023438 40 c 0
 391.447265625 40 393.999023438 157.619140625 393.999023438 196 c 0
 393.999023438 336.163085938 342.231445312 387.666992188 282.999023438 387.666992188 c 0
 243.999023438 387.666992188 224.999023438 375 207.999023438 360 c 1
 193.999023438 382 l 1
 216.999023438 402 245.999023438 424.666992188 282.999023438 424.666992188 c 0
 361.999023438 424.666992188 431.041992188 363.220703125 431.041992188 196 c 0
 431.041992188 123.088867188 418.497070312 3 314.999023438 3 c 0
 256.938476562 3 231.999023438 48 230.999023438 79 c 1
 230.999023438 48 208.143554688 3 146.999023438 3 c 0
 79.8076171875 3 62.9990234375 48.037109375 62.9990234375 105 c 0
25.24609375 474 m 0
 25.24609375 553 84.8486328125 591 141.5546875 591 c 0
 206.111328125 591 265.999023438 548.098632812 265.999023438 454 c 0
 231.999023438 402 l 1
 231.999023438 416 231.999023438 435 231.999023438 454 c 0
 231.999023438 524.74609375 189.916992188 557 141.5546875 557 c 0
 101.168945312 557 58.7216796875 530.04296875 58.7216796875 474 c 0
 58.7216796875 407.775390625 101.999023438 368 178.999023438 356 c 1
 170.999023438 325 l 1
 83.9990234375 338 25.24609375 390.377929688 25.24609375 474 c 0
EndSplineSet
Layer: 2
SplineSet
484.913085938 231.204101562 m 1
 484.913085938 277.470703125 491.173828125 319.594726562 499.041015625 345 c 0
 523.110351562 422.728515625 578.4921875 472 650.590820312 472 c 0
 678.357421875 472 707.388671875 465.063476562 735.762695312 445.2578125 c 1
 697.897460938 345 l 1
 684.049804688 352.989257812 671.379882812 356.607421875 660.034179688 356.607421875 c 0
 633.250976562 356.607421875 613.209960938 336.647460938 603.77734375 306 c 0
 599.345703125 291.600585938 595.860351562 261.723632812 595.860351562 229.770507812 c 0
 595.860351562 175.234375 606.013671875 114.65234375 638.951171875 114.65234375 c 0
 681.126953125 114.65234375 696.1328125 179.677734375 696.1328125 249.5 c 1
 792.043945312 249.5 l 1
 792.043945312 176.75 807.51171875 115 850.501953125 115 c 0
 907.2578125 115 907.2578125 239.958007812 907.2578125 293 c 0
 907.2578125 522.796875 864.2578125 639.885742188 726.2578125 639.885742188 c 0
 685.154296875 639.885742188 637.495117188 618.9609375 620.440429688 576.856445312 c 1
 511.408203125 613.030273438 l 1
 547.392578125 707.869140625 639.538085938 755.000976562 726.258789062 755.000976562 c 0
 943.258789062 755.000976562 1022.25878906 599.056640625 1022.25878906 293.000976562 c 0
 1022.25878906 181.997070312 1021.25878906 0.0009765625 850.502929688 0.0009765625 c 0
 794.583007812 0.0009765625 756.560546875 33.1455078125 741.740234375 79.03125 c 1
 725.594726562 31.603515625 686.182617188 0.0009765625 633.502929688 0.0009765625 c 0
 516.89453125 0.0009765625 484.9140625 126.225585938 484.9140625 231.205078125 c 1
 484.913085938 231.204101562 l 1
20.9990234375 126 m 1
 60.37109375 214 l 1
 105.999023438 206 l 1
 111.999023438 197 119.458984375 191.751953125 119.458984375 156 c 0
 119.458984375 138.591796875 121.091796875 109 144.37109375 109 c 0
 163.028320312 109 179.37109375 119 179.37109375 160 c 2
 179.37109375 227 l 1
 269.37109375 227 l 1
 269.37109375 160 l 2
 269.37109375 122 281.37109375 109 307.37109375 109 c 0
 342.37109375 109 347.458984375 165.987304688 347.458984375 210 c 0
 347.458984375 335.987304688 267.37109375 364 216.37109375 346 c 1
 289.37109375 426 l 1
 311.8125 437 454.458984375 431 454.458984375 210 c 0
 454.458984375 112.106445312 414.4140625 0 308.4140625 0 c 0
 269.4140625 0 234.4140625 29 224.999023438 52 c 1
 216.4140625 31 185.4140625 0 148.999023438 0 c 0
 -8.0009765625 0 84.5390625 165 20.9990234375 126 c 1
16.9990234375 232 m 1
 81.0087890625 297.920898438 163.044921875 404.030273438 236.458984375 489 c 0
 285.106445312 545.3046875 337.37109375 585 427.37109375 585 c 0
 520.104492188 585 602.0078125 536.659179688 641.344726562 428 c 1
 538.895507812 383 l 1
 518.901367188 441.520507812 480.853515625 473 427.37109375 473 c 0
 374.37109375 473 347.94921875 457.000976562 308.37109375 416 c 0
 306.061523438 413.607421875 197.612304688 290.752929688 113.626953125 206 c 0
 68.0126953125 159.96875 20.9990234375 126 20.9990234375 126 c 2
 16.9990234375 232 l 1
148.986328125 594 m 0
 225.9765625 594 297.37109375 537.3359375 297.37109375 428 c 0
 297.37109375 396.735351562 286.458984375 389.899414062 261.458984375 369.899414062 c 1
 198.177734375 416.436523438 l 1
 199.239257812 422.678710938 199.7421875 428.6484375 199.7421875 434.311523438 c 0
 199.7421875 471.944335938 175.897460938 496 147.37109375 496 c 0
 119.537109375 496 105.946289062 475.012695312 105.946289062 451.903320312 c 0
 105.946289062 411.899414062 133.169921875 394.899414062 163.169921875 387.899414062 c 1
 103.458984375 327.899414062 l 1
 58.169921875 344.899414062 13.37109375 391.899414062 13.37109375 461.536132812 c 0
 13.37109375 532.131835938 61.37109375 594 148.986328125 594 c 0
EndSplineSet
Layer: 3
SplineSet
496.90625 214.000976562 m 4
 496.90625 350.177734375 571.387695312 446.5390625 653.043945312 446.5390625 c 4
 671.948242188 446.5390625 690.291992188 441.80078125 710.043945312 432.000976562 c 5
 694.043945312 400.000976562 l 5
 679.8359375 407.104492188 666.641601562 410.5390625 653.043945312 410.5390625 c 4
 588.405273438 410.5390625 533.90625 324.577148438 533.90625 214.000976562 c 4
 533.90625 130.796875 556.298828125 40.0009765625 623.740234375 40.0009765625 c 4
 714.90625 40.0009765625 721.498046875 148.88671875 724.740234375 224.500976562 c 5
 758.740234375 224.500976562 l 5
 761.982421875 148.88671875 768.57421875 40.0009765625 859.740234375 40.0009765625 c 4
 952.473632812 40.0009765625 959.296875 164.000976562 959.296875 293.000976562 c 4
 959.296875 576.887695312 884.845703125 712.000976562 731.740234375 712.000976562 c 4
 660.868164062 712.000976562 592.391601562 665.927734375 569.067382812 605.000976562 c 5
 535.067382812 618.000976562 l 5
 563.266601562 692.59375 646.0546875 749.000976562 731.740234375 749.000976562 c 4
 909.740234375 749.000976562 996.296875 601.956054688 996.296875 293.000976562 c 4
 996.296875 145.135742188 986.9375 3.0009765625 859.740234375 3.0009765625 c 4
 764.57421875 3.0009765625 745.57421875 85.0009765625 741.740234375 115.000976562 c 5
 737.90625 85.0009765625 718.90625 3.0009765625 623.740234375 3.0009765625 c 4
 525.745117188 3.0009765625 496.90625 115.607421875 496.90625 214.000976562 c 4
431.041992188 196 m 4
 431.041992188 123.088867188 418.497070312 3 314.999023438 3 c 4
 256.938476562 3 231.999023438 48 230.999023438 79 c 5
 230.999023438 48 208.143554688 3 146.999023438 3 c 4
 79.8076171875 3 62.9990234375 48.037109375 62.9990234375 105 c 4
 62.9990234375 120.909179688 69.2216796875 169.772460938 46.9990234375 155 c 5
 70.9990234375 190 l 5
 101.641601562 198.607421875 96.9990234375 129.747070312 96.9990234375 105 c 4
 96.9990234375 68.7001953125 107.00390625 40 146.999023438 40 c 4
 201.999023438 40 212.999023438 108.077148438 212.999023438 170 c 5
 248.999023438 170 l 5
 248.999023438 108.077148438 259.999023438 40 314.999023438 40 c 4
 391.447265625 40 393.999023438 157.619140625 393.999023438 196 c 4
 393.999023438 336.163085938 342.231445312 387.666992188 282.999023438 387.666992188 c 4
 243.999023438 387.666992188 224.999023438 375 207.999023438 360 c 5
 193.999023438 382 l 5
 216.999023438 402 245.999023438 424.666992188 282.999023438 424.666992188 c 4
 361.999023438 424.666992188 431.041992188 363.220703125 431.041992188 196 c 4
590.251953125 406 m 4
 562.53125 505.51953125 503.708007812 545 438.999023438 545 c 4
 370.7890625 545 315.784179688 494.647460938 266.999023438 433 c 6
 46.9990234375 155 l 5
 21.9990234375 184 l 5
 239.999023438 458 l 6
 295.470703125 527.721679688 361.541015625 582 438.999023438 582 c 4
 519.063476562 582 591.744140625 536.08203125 624.959960938 420 c 4
 590.251953125 406 l 4
58.7216796875 474 m 4
 58.7216796875 407.775390625 101.999023438 368 178.999023438 356 c 5
 170.999023438 325 l 5
 83.9990234375 338 25.24609375 390.377929688 25.24609375 474 c 4
 25.24609375 553 84.8486328125 591 141.5546875 591 c 4
 206.111328125 591 265.999023438 548.098632812 265.999023438 454 c 4
 231.999023438 402 l 5
 231.999023438 416 231.999023438 435 231.999023438 454 c 4
 231.999023438 524.74609375 189.916992188 557 141.5546875 557 c 4
 101.168945312 557 58.7216796875 530.04296875 58.7216796875 474 c 4
EndSplineSet
EndChar

StartChar: si_Ttha
Encoding: 35 3496 35
Width: 570
VWidth: 0
Flags: HW
LayerCount: 4
Fore
SplineSet
291.40234375 603 m 4
 291.40234375 667.297851562 333.885742188 706.649414062 333.885742188 740.684570312 c 4
 333.885742188 754.21875 327.16796875 766.912109375 308.390625 780 c 5
 308.390625 780 372 761 372 761 c 5
 369.655273438 749.58984375 366.099609375 726.290039062 366.099609375 726.290039062 c 5
 366.099609375 693.052734375 327.390625 661.163085938 327.390625 603 c 4
 327.390625 561.561523438 369.13671875 524.958984375 432.359375 524.958984375 c 4
 440.81640625 524.958984375 449.657226562 525.614257812 458.833984375 527 c 5
 482 522 l 5
 466.833984375 494 l 5
 454.5859375 492.012695312 442.787109375 491.073242188 431.5 491.073242188 c 4
 347.119140625 491.073242188 291.40234375 543.567382812 291.40234375 603 c 4
22 214 m 0
 22 266.263671875 32.970703125 312.662109375 51.107421875 350 c 0
 80.2275390625 409.948242188 127.8203125 446.538085938 178.137695312 446.538085938 c 0
 197.041992188 446.538085938 215.385742188 441.799804688 235.137695312 432 c 1
 219.137695312 400 l 1
 204.9296875 407.103515625 191.735351562 410.538085938 178.137695312 410.538085938 c 0
 139.3671875 410.538085938 104.245117188 379.61328125 82.3427734375 331 c 0
 67.728515625 298.563476562 59 258.252929688 59 214 c 0
 59 130.795898438 81.392578125 40 148.833984375 40 c 0
 240 40 246.591796875 148.885742188 249.833984375 224.5 c 1
 283.833984375 224.5 l 1
 287.076171875 148.885742188 293.66796875 40 384.833984375 40 c 0
 477.567382812 40 484.390625 164 484.390625 293 c 0
 484.390625 382.18359375 475.118164062 458.762695312 458.859375 524 c 1
 437.681640625 608.981445312 404.649414062 674.717773438 364.8203125 724 c 1
 347.1953125 745.807617188 328.239257812 764.393554688 308.390625 780 c 1
 331.390625 807 l 1
 393.940429688 758.918945312 448.276367188 684.03515625 482.633789062 576 c 0
 507.0625 499.186523438 521.390625 405.61328125 521.390625 293 c 0
 521.390625 145.134765625 512.03125 3 384.833984375 3 c 0
 289.66796875 3 270.66796875 85 266.833984375 115 c 1
 263 85 244 3 148.833984375 3 c 0
 50.8388671875 3 22 115.606445312 22 214 c 0
EndSplineSet
Layer: 2
SplineSet
375.596679688 0 m 0
 319.676757812 0 281.654296875 33.14453125 266.833984375 79.0302734375 c 1
 250.688476562 31.6025390625 211.276367188 0 158.596679688 0 c 0
 -9.4033203125 0 -1.9970703125 258 23.8818359375 341 c 0
 49.1875 422.157226562 108.76171875 474.71484375 175.685546875 474.71484375 c 0
 203.452148438 474.71484375 232.484375 465.66796875 260.857421875 445.862304688 c 1
 222.9921875 345.604492188 l 1
 209.145507812 353.59375 196.474609375 357.211914062 185.12890625 357.211914062 c 0
 157.58984375 357.211914062 137.856445312 335.891601562 128.041015625 304 c 0
 116.045898438 265.024414062 110.59765625 124 158.596679688 115 c 0
 204.497070312 106.393554688 221.227539062 176.75 221.227539062 249.5 c 1
 317.138671875 249.5 l 1
 317.138671875 176.75 332.606445312 115 375.596679688 115 c 0
 432.352539062 115 432.352539062 239.958007812 432.352539062 293 c 0
 432.352539062 384.547851562 417.490234375 481.404296875 398.850585938 545 c 1
 393.112304688 579 375.112304688 628 353.029296875 648 c 1
 330.291992188 683.220703125 301.791992188 712.00390625 267.0078125 733 c 1
 339.0078125 817 l 1
 417.985351562 764.920898438 472.396484375 686.227539062 504.495117188 588 c 0
 528.483398438 514.590820312 547.352539062 410 547.352539062 293 c 0
 547.352539062 181.99609375 546.352539062 0 375.596679688 0 c 0
401.112304688 546 m 1
 411.112304688 565 418.65625 609.987304688 406.0078125 624 c 0
 399.810546875 630.865234375 365.112304688 651 354.112304688 647 c 0
 337.733398438 639.98046875 328.112304688 621.141601562 328.112304688 605 c 0
 328.112304688 584 350.112304688 554 401.112304688 546 c 1
267.0078125 733 m 1
 333.0078125 781 l 1
 376.0078125 764 l 1
 425.9140625 736.635742188 496.376953125 491.768554688 418.0078125 461 c 1
 340.387695312 463.250976562 242.124023438 525 242.124023438 611.133789062 c 0
 242.124023438 686.51171875 314.916015625 697.581054688 267.0078125 733 c 1
EndSplineSet
Layer: 3
SplineSet
327.390625 603 m 0
 327.390625 556.018554688 381.051757812 515.25390625 458.833984375 527 c 1
 469.974609375 541.603515625 470.580078125 561.625 472.833984375 563 c 1
 472.833984375 563 489.060546875 504.630859375 466.833984375 494 c 1
 363.021484375 477.154296875 291.40234375 535.618164062 291.40234375 603 c 0
 291.40234375 692.866210938 374.390625 734 308.390625 780 c 1
 333.390625 785 372.390625 758 372.390625 758 c 1
 365.833984375 731 l 1
 369.833984375 696 327.390625 663.903320312 327.390625 603 c 0
521.390625 293 m 0
 521.390625 145.134765625 512.03125 3 384.833984375 3 c 0
 289.66796875 3 270.66796875 85 266.833984375 115 c 1
 263 85 244 3 148.833984375 3 c 0
 60.234375 3 25.390625 129.318359375 25.390625 227 c 0
 25.390625 287.844726562 43.5380859375 470 177 470 c 0
 214 470 234 458 253 447 c 1
 240 414 l 1
 221 425 206 433 172.280273438 433 c 0
 87 433 62.390625 277.34765625 62.390625 227 c 0
 62.390625 149.841796875 86.791015625 40 148.833984375 40 c 0
 240 40 246.591796875 148.885742188 249.833984375 224.5 c 1
 283.833984375 224.5 l 1
 287.076171875 148.885742188 293.66796875 40 384.833984375 40 c 0
 477.567382812 40 484.390625 164 484.390625 293 c 0
 484.390625 549.764648438 407.528320312 702.053710938 308.390625 780 c 1
 331.390625 807 l 1
 438.4140625 724.732421875 521.390625 564 521.390625 293 c 0
EndSplineSet
EndChar

StartChar: visarga
Encoding: 2 3459 38
Width: 203
VWidth: 0
Flags: HW
LayerCount: 4
Fore
SplineSet
56.4931640625 152.197265625 m 0
 56.4931640625 127.950195312 78.046875 106.395507812 102.294921875 106.395507812 c 0
 126.543945312 106.395507812 148.09765625 127.950195312 148.09765625 152.197265625 c 0
 148.09765625 176.446289062 126.543945312 198 102.294921875 198 c 0
 78.046875 198 56.4931640625 176.446289062 56.4931640625 152.197265625 c 0
22 152.197265625 m 0
 22 196.668945312 57.82421875 232.4921875 102.294921875 232.4921875 c 0
 146.765625 232.4921875 182.58984375 196.668945312 182.58984375 152.197265625 c 0
 182.58984375 107.7265625 146.765625 71.90234375 102.294921875 71.90234375 c 0
 57.82421875 71.90234375 22 107.7265625 22 152.197265625 c 0
56.4931640625 405 m 0
 56.4931640625 380.752929688 78.046875 359.198242188 102.294921875 359.198242188 c 0
 126.543945312 359.198242188 148.09765625 380.752929688 148.09765625 405 c 0
 148.09765625 429.249023438 126.543945312 450.802734375 102.294921875 450.802734375 c 0
 78.046875 450.802734375 56.4931640625 429.249023438 56.4931640625 405 c 0
22 405 m 0
 22 449.471679688 57.82421875 485.294921875 102.294921875 485.294921875 c 0
 146.765625 485.294921875 182.58984375 449.471679688 182.58984375 405 c 0
 182.58984375 360.529296875 146.765625 324.705078125 102.294921875 324.705078125 c 0
 57.82421875 324.705078125 22 360.529296875 22 405 c 0
EndSplineSet
Layer: 2
SplineSet
-3.447265625 141.037109375 m 0
 -3.447265625 201.427734375 45.2001953125 250.075195312 105.58984375 250.075195312 c 0
 165.979492188 250.075195312 214.626953125 201.427734375 214.626953125 141.037109375 c 0
 214.626953125 80.6474609375 165.979492188 32 105.58984375 32 c 0
 45.2001953125 32 -3.447265625 80.6474609375 -3.447265625 141.037109375 c 0
77.072265625 141.037109375 m 0
 77.072265625 125.940429688 90.4921875 112.51953125 105.58984375 112.51953125 c 0
 120.6875 112.51953125 134.107421875 125.940429688 134.107421875 141.037109375 c 0
 134.107421875 156.134765625 120.6875 169.5546875 105.58984375 169.5546875 c 0
 90.4921875 169.5546875 77.072265625 156.134765625 77.072265625 141.037109375 c 0
-6.447265625 418.037109375 m 0
 -6.447265625 478.427734375 42.2001953125 527.075195312 102.58984375 527.075195312 c 0
 162.979492188 527.075195312 211.626953125 478.427734375 211.626953125 418.037109375 c 0
 211.626953125 357.647460938 162.979492188 309 102.58984375 309 c 0
 42.2001953125 309 -6.447265625 357.647460938 -6.447265625 418.037109375 c 0
74.072265625 418.037109375 m 0
 74.072265625 402.940429688 87.4921875 389.51953125 102.58984375 389.51953125 c 0
 117.6875 389.51953125 131.107421875 402.940429688 131.107421875 418.037109375 c 0
 131.107421875 433.134765625 117.6875 446.5546875 102.58984375 446.5546875 c 0
 87.4921875 446.5546875 74.072265625 433.134765625 74.072265625 418.037109375 c 0
EndSplineSet
EndChar

StartChar: si_Tha
Encoding: 41 3502 39
Width: 503
VWidth: 0
Flags: HW
LayerCount: 4
Fore
SplineSet
261.583007812 603 m 0
 261.583007812 667.297851562 304.06640625 706.649414062 304.06640625 740.684570312 c 0
 304.06640625 754.21875 297.348632812 766.912109375 278.571289062 780 c 1
 342.180664062 761 l 1
 339.8359375 749.58984375 336.280273438 726.290039062 336.280273438 726.290039062 c 1
 336.280273438 693.052734375 297.571289062 661.163085938 297.571289062 603 c 0
 297.571289062 561.561523438 339.317382812 524.958984375 402.540039062 524.958984375 c 0
 410.997070312 524.958984375 419.837890625 525.614257812 429.014648438 527 c 1
 452.180664062 522 l 1
 437.014648438 494 l 1
 424.766601562 492.012695312 412.967773438 491.073242188 401.680664062 491.073242188 c 0
 317.299804688 491.073242188 261.583007812 543.567382812 261.583007812 603 c 0
22 235 m 0
 22 371.176757812 91.6455078125 446.538085938 168 446.538085938 c 0
 186.904296875 446.538085938 205.248046875 441.799804688 225 432 c 1
 209 400 l 1
 194.791992188 407.103515625 181.59765625 410.538085938 168 410.538085938 c 0
 108.861328125 410.538085938 59 345.575195312 59 235 c 0
 59 145.521484375 108.591796875 40 231 40 c 0
 369.181640625 40 444.166015625 150.385742188 444.166015625 342 c 0
 444.166015625 410.758789062 439.931640625 471.186523438 429.040039062 524 c 1
 407.862304688 608.981445312 374.830078125 674.717773438 335.000976562 724 c 1
 317.375976562 745.807617188 298.419921875 764.393554688 278.571289062 780 c 1
 301.571289062 807 l 1
 420.580078125 715.40234375 481.166015625 562.866210938 481.166015625 342 c 0
 481.166015625 126.91015625 393.166015625 3 231 3 c 0
 82.259765625 3 22 128.543945312 22 235 c 0
EndSplineSet
Layer: 2
SplineSet
509.619140625 548 m 1
 519.619140625 567 527.163085938 611.987304688 514.514648438 626 c 0
 508.317382812 632.865234375 473.619140625 653 462.619140625 649 c 0
 446.240234375 641.98046875 436.619140625 623.141601562 436.619140625 607 c 0
 436.619140625 586 458.619140625 556 509.619140625 548 c 1
375.514648438 735 m 1
 441.514648438 783 l 1
 484.514648438 766 l 1
 534.420898438 738.635742188 604.883789062 493.768554688 526.514648438 463 c 1
 448.89453125 465.250976562 350.630859375 527 350.630859375 613.133789062 c 0
 350.630859375 688.51171875 423.422851562 699.581054688 375.514648438 735 c 1
366 0 m 1
 188 0 135.853515625 136.287109375 135.853515625 252.396484375 c 0
 135.853515625 421.91015625 266.58203125 528.416992188 385.71875 445.2578125 c 1
 347.853515625 345 l 1
 284.553710938 381.518554688 245.853515625 326.717773438 245.853515625 252.395507812 c 0
 245.853515625 189.243164062 273.079101562 114.999023438 365.999023438 114.999023438 c 0
 470.451171875 114.999023438 524.999023438 181.017578125 524.999023438 339.999023438 c 0
 524.999023438 415.911132812 523.274414062 486.645507812 507.357421875 546.999023438 c 0
 501.607421875 580.997070312 483.604492188 629.989257812 461.536132812 649.999023438 c 1
 440.037109375 684.764648438 409.969726562 714.202148438 375.514648438 734.999023438 c 1
 447.514648438 818.999023438 l 1
 585.514648438 727.999023438 639.999023438 555.740234375 639.999023438 339.999023438 c 0
 639.999023438 103.999023438 545.999023438 -0.0009765625 365.999023438 -0.0009765625 c 1
 366 0 l 1
EndSplineSet
EndChar

StartChar: si_Dha
Encoding: 43 3504 40
Width: 543
VWidth: 0
Flags: HW
LayerCount: 4
Fore
SplineSet
22 214 m 4
 22 266.263671875 32.970703125 312.662109375 51.107421875 350 c 4
 80.2275390625 409.948242188 127.8203125 446.538085938 178.137695312 446.538085938 c 4
 197.041992188 446.538085938 215.385742188 441.799804688 235.137695312 432 c 5
 219.137695312 400 l 5
 204.9296875 407.103515625 191.735351562 410.538085938 178.137695312 410.538085938 c 4
 139.3671875 410.538085938 104.245117188 379.61328125 82.3427734375 331 c 4
 67.728515625 298.563476562 59 258.252929688 59 214 c 4
 59 130.795898438 81.392578125 40 148.833984375 40 c 4
 240 40 246.591796875 148.885742188 249.833984375 224.5 c 5
 283.833984375 224.5 l 5
 287.076171875 148.885742188 293.66796875 40 384.833984375 40 c 4
 477.567382812 40 484.390625 164 484.390625 293 c 4
 484.390625 576.88671875 409.939453125 712 256.833984375 712 c 4
 185.961914062 712 117.485351562 665.926757812 94.1611328125 605 c 5
 60.1611328125 618 l 5
 88.3603515625 692.592773438 171.1484375 749 256.833984375 749 c 4
 434.833984375 749 521.390625 601.955078125 521.390625 293 c 4
 521.390625 145.134765625 512.03125 3 384.833984375 3 c 4
 289.66796875 3 270.66796875 85 266.833984375 115 c 5
 263 85 244 3 148.833984375 3 c 4
 50.8388671875 3 22 115.606445312 22 214 c 4
EndSplineSet
Layer: 2
SplineSet
128.872070312 306 m 5
 128.87109375 306 l 5
 116.875976562 267.0234375 111.809570312 114.651367188 164.044921875 114.651367188 c 4
 206.220703125 114.651367188 221.2265625 179.677734375 221.2265625 249.5 c 5
 317.137695312 249.5 l 5
 317.137695312 176.75 332.60546875 115 375.595703125 115 c 4
 432.3515625 115 432.3515625 239.958007812 432.3515625 293 c 4
 432.3515625 522.796875 389.3515625 639.884765625 251.3515625 639.884765625 c 4
 210.249023438 639.884765625 162.58984375 618.959960938 145.534179688 576.85546875 c 5
 36.501953125 613.029296875 l 5
 72.4873046875 707.868164062 164.631835938 755 251.352539062 755 c 4
 468.352539062 755 547.352539062 599.056640625 547.352539062 293 c 4
 547.352539062 181.99609375 546.352539062 0 375.596679688 0 c 4
 319.676757812 0 281.654296875 33.14453125 266.833984375 79.0302734375 c 5
 250.688476562 31.6025390625 211.276367188 0 158.596679688 0 c 4
 -9.4033203125 0 -1.5830078125 261.950195312 24.1357421875 345 c 4
 48.2060546875 422.728515625 103.586914062 472 175.685546875 472 c 4
 203.452148438 472 232.483398438 465.063476562 260.857421875 445.2578125 c 5
 222.9921875 345 l 5
 209.14453125 352.989257812 196.474609375 356.607421875 185.12890625 356.607421875 c 4
 158.345703125 356.607421875 138.946289062 336.442382812 128.872070312 306 c 5
EndSplineSet
EndChar

StartChar: si_Pa
Encoding: 46 3508 41
Width: 555
VWidth: 0
Flags: HW
LayerCount: 4
Fore
SplineSet
260.833007812 454 m 4
 260.833007812 466.185546875 261.837890625 477.512695312 263.727539062 488 c 4
 276.423828125 558.491210938 329.08203125 591 385.278320312 591 c 4
 441.984375 591 501.586914062 553 501.586914062 474 c 4
 501.586914062 429.732421875 481.26953125 385.565429688 449.72265625 361 c 5
 423.72265625 382 l 5
 450.72265625 402 468.111328125 437.958984375 468.111328125 474 c 4
 468.111328125 530.04296875 425.663085938 557 385.278320312 557 c 4
 336.916015625 557 294.833984375 524.74609375 294.833984375 454 c 4
 294.833984375 435 294.833984375 416 294.833984375 402 c 5
 277.833984375 369 l 5
 268.1171875 397.663085938 260.833007812 421.383789062 260.833007812 454 c 4
59 224.436523438 m 0
 59 107.2421875 145.024414062 30 277.833984375 30 c 0
 410.643554688 30 496.66796875 106.805664062 496.66796875 224 c 0
 496.66796875 299.407226562 458.19140625 365 374 365 c 2
 181.66796875 365 l 2
 97.4765625 365 59 299.84375 59 224.436523438 c 0
22 224.436523438 m 0
 22 319.693359375 74.9033203125 402 181.66796875 402 c 2
 374 402 l 2
 480.764648438 402 533.66796875 319.256835938 533.66796875 224 c 0
 533.66796875 84.5048828125 433.33984375 -7 277.833984375 -7 c 0
 122.328125 -7 22 84.94140625 22 224.436523438 c 0
54.080078125 474 m 4
 54.080078125 553 113.682617188 591 170.388671875 591 c 4
 226.584960938 591 279.247070312 558.491210938 291.940429688 488 c 4
 293.829101562 477.513671875 294.833007812 466.185546875 294.833007812 454 c 4
 294.833007812 421.383789062 287.548828125 397.663085938 277.833007812 369 c 5
 260.833007812 402 l 5
 260.833007812 416 260.833007812 435 260.833007812 454 c 4
 260.833007812 524.74609375 218.750976562 557 170.388671875 557 c 4
 130.00390625 557 87.5556640625 530.04296875 87.5556640625 474 c 4
 87.5556640625 437.958984375 104.944335938 402 131.944335938 382 c 5
 105.944335938 361 l 5
 74.3974609375 385.565429688 54.080078125 429.732421875 54.080078125 474 c 4
EndSplineSet
Layer: 2
SplineSet
358.478515625 416.436523438 m 6
 480.862304688 416.436523438 541.91796875 330.088867188 541.91796875 224.436523438 c 4
 541.91796875 -90.5634765625 12.478515625 -90.5595703125 12.478515625 224.436523438 c 4
 12.478515625 330.088867188 73.53515625 416.436523438 195.91796875 416.436523438 c 6
 226.6796875 416.436523438 l 5
 327.716796875 416.436523438 l 5
 358.478515625 416.436523438 l 5
 358.478515625 416.436523438 l 6
352.478515625 318.436523438 m 5
 201.91796875 318.436523438 l 6
 146.91796875 318.436523438 119.478515625 276.162109375 119.478515625 224.436523438 c 4
 119.478515625 64.359375 434.916992188 64.9599609375 434.916992188 224.436523438 c 4
 434.916992188 276.162109375 407.477539062 318.436523438 352.477539062 318.436523438 c 6
 352.478515625 318.436523438 l 5
218.435546875 391.436523438 m 5
 228.19140625 416.436523438 l 6
 229.252929688 422.678710938 229.755859375 428.6484375 229.755859375 434.311523438 c 4
 229.755859375 471.944335938 207.526367188 496 179 496 c 4
 149.64453125 496 133.81640625 475 133.81640625 451.1640625 c 4
 133.81640625 439.108398438 140.452148438 419.560546875 148.435546875 410.436523438 c 5
 70.435546875 370.436523438 l 5
 51.1259765625 395.643554688 40.3408203125 428.604492188 40.3408203125 456.407226562 c 4
 40.3408203125 532.13671875 92.4404296875 594 179 594 c 4
 246.123046875 594 308.9921875 550.930664062 324.004882812 467.4375 c 5
 308.91796875 447.4375 313.91796875 422.4375 326.0234375 402.4375 c 5
 323.452148438 376.875976562 317.33203125 348.349609375 308.435546875 319.4375 c 5
 218.435546875 391.436523438 l 5
335.9609375 391.436523438 m 5
 245.9609375 319.436523438 l 5
 237.411132812 347.22265625 231.42578125 374.65234375 228.690429688 399.436523438 c 5
 252.91796875 419.436523438 264.91796875 455.436523438 233.192382812 480.436523438 c 5
 252.116210938 555.397460938 311.850585938 594.000976562 375.396484375 594.000976562 c 4
 461.956054688 594.000976562 514.0546875 532.137695312 514.0546875 456.407226562 c 4
 514.0546875 428.604492188 503.26953125 395.643554688 483.959960938 370.436523438 c 5
 405.959960938 410.436523438 l 5
 413.943359375 419.560546875 420.579101562 439.108398438 420.579101562 451.1640625 c 4
 420.579101562 475 404.750976562 496 375.395507812 496 c 4
 346.869140625 496 324.639648438 471.944335938 324.639648438 434.311523438 c 4
 324.639648438 428.6484375 325.142578125 422.678710938 326.204101562 416.436523438 c 6
 335.9609375 391.436523438 l 5
EndSplineSet
Layer: 3
SplineSet
616.412109375 474 m 0
 616.412109375 553 676.014648438 591 732.720703125 591 c 0
 797.27734375 591 857.165039062 548.098632812 857.165039062 454 c 0
 857.165039062 421.383789062 849.880859375 397.663085938 840.165039062 369 c 1
 823.165039062 402 l 1
 823.165039062 416 823.165039062 435 823.165039062 454 c 0
 823.165039062 524.74609375 781.083007812 557 732.720703125 557 c 0
 692.3359375 557 649.887695312 530.04296875 649.887695312 474 c 0
 649.887695312 437.958984375 667.276367188 402 694.276367188 382 c 1
 668.276367188 361 l 1
 636.729492188 385.565429688 616.412109375 429.732421875 616.412109375 474 c 0
1063.91894531 474 m 0
 1063.91894531 429.732421875 1043.6015625 385.565429688 1012.0546875 361 c 1
 986.0546875 382 l 1
 1013.0546875 402 1030.44335938 437.958984375 1030.44335938 474 c 0
 1030.44335938 530.04296875 987.995117188 557 947.610351562 557 c 0
 899.248046875 557 857.166015625 524.74609375 857.166015625 454 c 0
 857.166015625 435 857.166015625 416 857.166015625 402 c 1
 840.166015625 369 l 1
 830.450195312 397.663085938 823.166015625 421.383789062 823.166015625 454 c 0
 823.166015625 548.098632812 883.053710938 591 947.610351562 591 c 0
 1004.31640625 591 1063.91894531 553 1063.91894531 474 c 0
744 365 m 0
 659.80859375 365 631.33203125 299.84375 631.33203125 224.436523438 c 0
 631.33203125 107.2421875 707.356445312 30 840.166015625 30 c 0
 972.975585938 30 1049 107.2421875 1049 224.436523438 c 0
 1049 299.84375 1020.5234375 365 936.33203125 365 c 0
 936.33203125 365 899.97265625 365 840.166015625 365 c 0
 780.359375 365 744 365 744 365 c 0
744 402 m 0
 840.166015625 402 l 0
 936.33203125 402 l 0
 1043.09667969 402 1086 319.693359375 1086 224.436523438 c 0
 1086 84.94140625 995.671875 -7 840.166015625 -7 c 0
 684.66015625 -7 594.33203125 84.94140625 594.33203125 224.436523438 c 0
 594.33203125 319.693359375 637.235351562 402 744 402 c 0
326.22265625 402 m 1
 326.22265625 368 l 1
 283.16796875 368 277.858398438 368 277.858398438 368 c 1
 268.858398438 397 262.111328125 421 262.111328125 454 c 0
 262.111328125 548.098632812 323.400390625 591 377.858398438 591 c 0
 438.114257812 591 491.858398438 547.701171875 491.858398438 474 c 0
 491.858398438 408 452.22265625 376 440.22265625 365 c 1
 418.22265625 385 l 1
 428.22265625 395 458.3828125 419 458.3828125 474 c 0
 458.3828125 530.225585938 422.815429688 557 377.858398438 557 c 0
 325.09375 557 296.111328125 511 296.111328125 454 c 0
 296.111328125 435 296.111328125 416 296.111328125 402 c 1
 319.913085938 402 301.942382812 402 326.22265625 402 c 1
277.833984375 30 m 0
 410.643554688 30 486.66796875 107.2421875 486.66796875 224.436523438 c 0
 486.66796875 299.84375 440.53125 365 356.33984375 365 c 0
 356.33984375 365 337.640625 365 277.833984375 365 c 0
 218.02734375 365 199.328125 365 199.328125 365 c 0
 115.13671875 365 69 299.84375 69 224.436523438 c 0
 69 107.2421875 145.024414062 30 277.833984375 30 c 0
356.33984375 402 m 0
 463.104492188 402 523.66796875 319.693359375 523.66796875 224.436523438 c 0
 523.66796875 84.94140625 433.33984375 -7 277.833984375 -7 c 0
 122.328125 -7 32 84.94140625 32 224.436523438 c 0
 32 319.693359375 92.5634765625 402 199.328125 402 c 0
 277.833984375 402 l 0
 356.33984375 402 l 0
232 402 m 1
 256.280273438 402 238.309570312 402 262.111328125 402 c 1
 262.111328125 416 262.111328125 435 262.111328125 454 c 0
 262.111328125 511 233.12890625 557 180.364257812 557 c 0
 135.407226562 557 99.83984375 530.225585938 99.83984375 474 c 0
 99.83984375 419 130 395 140 385 c 1
 118 365 l 1
 106 376 66.3642578125 408 66.3642578125 474 c 0
 66.3642578125 547.701171875 120.108398438 591 180.364257812 591 c 0
 234.822265625 591 296.111328125 548.098632812 296.111328125 454 c 0
 296.111328125 421 289.364257812 397 280.364257812 368 c 1
 280.364257812 368 275.0546875 368 232 368 c 1
 232 402 l 1
EndSplineSet
EndChar

StartChar: si_Pha
Encoding: 47 3509 42
Width: 512
VWidth: 0
Flags: HW
LayerCount: 4
Fore
SplineSet
270.583007812 603 m 4
 270.583007812 667.297851562 313.06640625 706.649414062 313.06640625 740.684570312 c 4
 313.06640625 754.21875 306.348632812 766.912109375 287.571289062 780 c 5
 351.180664062 761 l 5
 348.8359375 749.58984375 345.280273438 726.290039062 345.280273438 726.290039062 c 5
 345.280273438 693.052734375 306.571289062 661.163085938 306.571289062 603 c 4
 306.571289062 561.561523438 348.317382812 524.958984375 411.540039062 524.958984375 c 4
 419.997070312 524.958984375 428.837890625 525.614257812 438.014648438 527 c 5
 461.180664062 522 l 5
 446.014648438 494 l 5
 433.766601562 492.012695312 421.967773438 491.073242188 410.680664062 491.073242188 c 4
 326.299804688 491.073242188 270.583007812 543.567382812 270.583007812 603 c 4
22 219 m 4
 22 284.815429688 43.0517578125 335.01171875 79.4033203125 363 c 4
 100.493164062 379.237304688 126.733398438 388 157 388 c 4
 206 388 274 388 274 388 c 5
 293 354 l 5
 157 354 l 6
 94.041015625 354 58 298.873046875 58 219 c 4
 58 154.403320312 88.046875 40 240 40 c 4
 378.181640625 40 453.166015625 150.385742188 453.166015625 342 c 4
 453.166015625 410.758789062 448.931640625 471.186523438 438.040039062 524 c 5
 416.862304688 608.981445312 383.830078125 674.717773438 344.000976562 724 c 5
 326.375976562 745.807617188 307.419921875 764.393554688 287.571289062 780 c 5
 310.571289062 807 l 5
 429.580078125 715.40234375 490.166015625 562.866210938 490.166015625 342 c 4
 490.166015625 126.91015625 402.166015625 3 240 3 c 4
 57.990234375 3 22 141.05078125 22 219 c 4
61 420 m 4
 61 488 112.34375 524 171 524 c 4
 235.555664062 524 295.444335938 481.098632812 295.444335938 387 c 4
 295.444335938 375.040039062 294.55859375 364.26171875 293 354 c 5
 261.620117188 379 l 5
 261.52734375 381.637695312 261.444335938 384.229492188 261.444335938 387 c 4
 261.444335938 457.74609375 219.362304688 490 171 490 c 4
 129.04296875 490 94.4755859375 467 94.4755859375 420 c 4
 94.4755859375 395.599609375 104 376 117 364 c 13
 92.818359375 344 l 21
 77 358 61 388.0234375 61 420 c 4
EndSplineSet
Layer: 2
SplineSet
356.180664062 755 m 5
 336.958984375 647 l 5
 320.580078125 639.98046875 310.958984375 621.141601562 310.958984375 605 c 4
 310.958984375 584 332.958984375 554 383.958984375 546 c 5
 468.180664062 524 l 5
 400.854492188 461 l 5
 323.234375 463.250976562 224.970703125 525 224.970703125 611.133789062 c 4
 224.970703125 686.51171875 297.762695312 697.581054688 249.854492188 733 c 5
 356.180664062 755 l 5
49.5361328125 409.272460938 m 5
 49.5361328125 481.53515625 98.5068359375 531.563476562 172.80859375 531.563476562 c 4
 249.793945312 531.563476562 321.193359375 474.8984375 321.193359375 365.563476562 c 4
 321.193359375 350.999023438 318 324.999023438 313.944335938 305.999023438 c 5
 223.564453125 371.874023438 l 5
 230.104492188 405.999023438 214.104492188 443.999023438 172.80859375 443.999023438 c 4
 148.008789062 443.999023438 139.016601562 426.1328125 139.016601562 404.786132812 c 4
 139.016601562 386.79296875 151.301757812 370.32421875 160 355.999023438 c 5
 80 318.563476562 l 5
 60 350.999023438 49.5361328125 380.619140625 49.5361328125 409.272460938 c 5
 49.5361328125 409.272460938 l 5
240 0 m 5
 62 0 9.8115234375 137 9.8115234375 218.826171875 c 4
 9.8115234375 279.354492188 29.7099609375 335.661132812 60.189453125 362 c 4
 81.208984375 380.1640625 109.286132812 391 145.887695312 391 c 6
 252 391 l 5
 292.194335938 373 313.944335938 306 313.944335938 306 c 5
 188.88671875 306 l 6
 132.88671875 306 120.486328125 270.6015625 120.486328125 226.6015625 c 4
 120.486328125 174 147.079101562 115 240 115 c 4
 344.451171875 115 399 181.017578125 399 340 c 4
 399 415.912109375 397.614257812 484.645507812 381.697265625 545 c 4
 375.947265625 578.997070312 357.944335938 627.989257812 335.875976562 648 c 5
 314.376953125 682.765625 284.309570312 712.203125 249.854492188 733 c 5
 321.854492188 817 l 5
 459.854492188 726 514 555.740234375 514 340 c 4
 514 104 420 0 240 0 c 5
 240 0 l 5
EndSplineSet
EndChar

StartChar: si_Ba
Encoding: 48 3510 43
Width: 533
VWidth: 0
Flags: HW
LayerCount: 4
Fore
SplineSet
22 220 m 0
 22 419.133789062 97.666015625 486 185.060546875 486 c 0
 276.594726562 486 320 436.897460938 320 344 c 0
 320 247 246 228 246 137 c 0
 246 65.1298828125 292.974609375 39 346 39 c 0
 447.697265625 39 474.619140625 145.85546875 474.619140625 293 c 0
 474.619140625 576.88671875 400.16796875 712 247.0625 712 c 0
 176.190429688 712 107.713867188 665.926757812 84.3896484375 605 c 1
 50.3896484375 618 l 1
 78.5888671875 692.592773438 161.376953125 749 247.0625 749 c 0
 425.0625 749 511.619140625 601.955078125 511.619140625 293 c 0
 511.619140625 125 476.952148438 3 346 3 c 0
 251.842773438 3 210.114257812 58.3154296875 210.114257812 137 c 0
 210.114257812 241 284 258 284 344 c 0
 284 413.345703125 252.174804688 450 185.060546875 450 c 0
 117.497070312 450 59 392.18359375 59 220 c 0
 59 105.193359375 84.7783203125 39 144 39 c 0
 182.884765625 39 209.538085938 79 216 115 c 1
 246 108 l 1
 236.555664062 52 205.124023438 3 144 3 c 0
 59 3 22 82.359375 22 220 c 0
EndSplineSet
Layer: 2
SplineSet
422.115234375 293 m 5
 422.11328125 293 l 5
 422.11328125 522.796875 379.11328125 639.884765625 241.11328125 639.884765625 c 4
 200.010742188 639.884765625 152.3515625 618.959960938 135.295898438 576.85546875 c 5
 26.263671875 613.029296875 l 5
 62.2490234375 707.868164062 154.393554688 755 241.114257812 755 c 4
 458.114257812 755 537.114257812 599.056640625 537.114257812 293 c 4
 536.630859375 181.99609375 504.755859375 0 347 0 c 4
 222.697265625 0 194.461914062 87.4052734375 194.461914062 177 c 4
 194.461914062 237 242 264 242 324 c 4
 242 354 226.56640625 376.432617188 183.875 376.432617188 c 4
 144.047851562 376.432617188 114.875 339.788085938 114.875 220 c 4
 114.875 128 132.875 110 153.875 110 c 4
 173.875 110 190.875 120 206.875 156 c 5
 262.875 73 l 5
 233.875 28 206.353515625 0 153.875 0 c 4
 48.875 0 4.875 79 4.875 220 c 4
 4.875 425.889648438 80.875 488.874023438 185.060546875 488.874023438 c 4
 292.56640625 488.874023438 354 430 354 324 c 4
 354 251 303.358398438 228 303.358398438 177 c 4
 303.358398438 142.7578125 316.602539062 115 342.875 115 c 4
 395.086914062 115 422.115234375 190 422.115234375 293 c 5
EndSplineSet
EndChar

StartChar: si_Bha
Encoding: 49 3511 44
Width: 625
Flags: HW
LayerCount: 4
Fore
SplineSet
226.2421875 238 m 1
 274.270062881 264.464339497 279.527254307 324.424805048 279.527254307 368.479999193 c 0
 279.527254307 478.833261876 310.920431984 580.84375 428.2421875 580.84375 c 0
 520.680664062 580.84375 603.614257812 527.84375 603.614257812 291.84375 c 0
 603.614257812 56.84375 521.283203125 2.84375 435.2421875 2.84375 c 0
 379.477539062 2.84375 343.002929688 31.525390625 324.2421875 70.640625 c 1
 347.614257812 122.84375 l 1
 350.614257812 82.84375 382.614257812 39.84375 435.2421875 39.84375 c 0
 502.120117188 39.84375 566.114257812 86.9306640625 566.114257812 291.84375 c 0
 566.114257812 497.62890625 501.943359375 543.84375 428.2421875 543.84375 c 0
 333.830175664 543.84375 316.722498576 455.25787195 316.722498576 362.739485859 c 0
 316.722498576 310.830978222 308.979624233 240.181466688 238.2421875 209 c 1
 226.2421875 238 l 1
31.1125661436 200.986876537 m 0
 31.1125661436 222.745635613 33.4635287824 245.831395408 38.3251953125 270 c 0
 47.0576171875 313.411132812 63.0390625 351.780273438 84.72265625 369 c 1
 21 369 l 1
 21 405 l 1
 306.2421875 405 l 1
 306.2421875 369 l 1
 178.572265625 369 l 2
 112.947265625 369 85.0384061675 316.258322318 74.5263671875 264 c 0
 70.3580264559 243.277997932 68.3499407066 223.495422924 68.3499407066 204.875387211 c 0
 68.3499407066 106.070541691 124.892794207 40 215.2421875 40 c 0
 304.103515625 40 337.2421875 103.166992188 337.2421875 158 c 0
 337.2421875 200.669055237 321.838268096 231.955500823 292.765507852 231.955500823 c 0
 283.598567758 231.955500823 273.072663704 228.84498454 261.2421875 222 c 1
 252.2421875 249 l 1
 269.735564789 257.28562034 285.865735478 261.20255253 300.277878107 261.20255253 c 0
 345.848417592 261.20255253 374.2421875 222.041235408 374.2421875 158 c 0
 374.2421875 85.9736328125 331.053710938 3 215.2421875 3 c 0
 101.146570204 3 31.1125661436 82.2280935842 31.1125661436 200.986876537 c 0
61.69140625 474 m 4
 61.69140625 553 121.293945313 591 178 591 c 4
 240.06143489 591 297.737008834 555.986431699 308.76318833 480 c 4
 309.951307936 471.81212592 310.573242188 463.148000055 310.573242188 454 c 4
 310.573242188 422.535456731 307 399 298 372 c 5
 276.573242188 402 l 5
 276.573242188 416 276.573242188 435 276.573242188 454 c 4
 276.573242188 523.372383192 230.708985293 555 178 555 c 4
 138.845051408 555 97.69140625 528.692535768 97.69140625 474 c 4
 97.69140625 432 115.037479795 406 124.166992188 396 c 5
 102.166992188 376 l 5
 90.1669921875 387 61.69140625 419 61.69140625 474 c 4
EndSplineSet
Layer: 2
SplineSet
25.626953125 454 m 5
 25.626953125 532.131835938 75.689453125 594 167.069335938 594 c 4
 231.353515625 594 292.249023438 556.409179688 311.91015625 483 c 4
 313.161132812 478.329101562 313.725585938 473.071289062 313.725585938 467.353515625 c 4
 313.725585938 425.625 283.657226562 359.422851562 271.045898438 318.436523438 c 5
 220.696289062 403.030273438 l 5
 221.7578125 409.272460938 226.110351562 420 226.110351562 434.341796875 c 4
 226.110351562 481.030273438 195.4375 496 171.2421875 496 c 4
 135.22265625 496 118.47265625 474.291992188 118.47265625 443 c 4
 118.47265625 414 131.997070312 397.28125 149.2421875 392 c 5
 97.53125 326.71875 l 5
 62.7216796875 347 25.626953125 398 25.626953125 454 c 5
 25.626953125 454 l 5
197.2421875 0 m 5
 72.8251953125 0 -2.333984375 98.4755859375 -2.333984375 210.498046875 c 4
 -2.333984375 229.7421875 -0.115234375 249.38671875 4.4521484375 269 c 4
 9.076171875 288.856445312 15.46484375 306.7421875 22.486328125 319.563476562 c 5
 -18.330078125 319.666992188 l 5
 -18.330078125 408 l 5
 291.669921875 408 l 5
 291.669921875 319 l 5
 164.241210938 318 l 6
 138.748046875 317.799804688 121.506835938 294.194335938 112.21484375 264 c 4
 108.235351562 251.068359375 106.01171875 235.897460938 106.01171875 220.209960938 c 4
 106.01171875 167.96484375 130.673828125 110 197.241210938 110 c 4
 269.198242188 110 287.241210938 142.338867188 287.241210938 170 c 4
 287.241210938 180.208984375 285.391601562 195.96875 272.973632812 195.96875 c 4
 269.578125 195.96875 260.241210938 192 260.241210938 192 c 6
 318.241210938 286 l 5
 377.241210938 272 393.241210938 217 393.241210938 167 c 4
 393.241210938 99 347.241210938 0 197.241210938 0 c 5
 197.2421875 0 l 5
422.2421875 478 m 4
 290.2421875 478 380.2421875 256.15625 243.2421875 181.15625 c 5
 184.2421875 255.15625 l 5
 296.2421875 331.15625 185.2421875 584 422.2421875 584 c 4
 529.241210938 584 627.2421875 526.375 627.2421875 292 c 4
 627.2421875 69.42578125 542.469726562 0 438.870117188 0 c 4
 362.956054688 0 321.52734375 50.021484375 312.2421875 86 c 5
 377.2421875 158 l 5
 382.418945312 141.4140625 397.2421875 104 438.870117188 104 c 4
 481.97265625 104 521.2421875 150.340820312 521.2421875 292 c 4
 521.2421875 439.546875 471.827148438 478 422.2421875 478 c 4
EndSplineSet
EndChar

StartChar: si_Mba
Encoding: 51 3513 45
Width: 539
VWidth: 0
Flags: HW
LayerCount: 4
Fore
SplineSet
22 250.999023438 m 0
 22 390.37109375 53.0126953125 523.999023438 140.638671875 523.999023438 c 0
 206 523.999023438 230 474 230 426 c 1
 195 419 l 1
 195 470.220703125 170.700195312 489 141 489 c 0
 81 489 59 368 59 250.999023438 c 0
 59 167.890625 62.716796875 40 144.596679688 40 c 0
 172.474609375 40 192.762695312 62.185546875 192.762695312 90 c 0
 192.762695312 129 171.762695312 140 171.762695312 176 c 0
 171.762695312 230.030273438 210.272460938 244 262.596679688 244 c 0
 314.920898438 244 353.430664062 230.030273438 353.430664062 176 c 0
 353.430664062 140 332.430664062 129 332.430664062 90 c 0
 332.430664062 62.185546875 352.71875 40 380.596679688 40 c 0
 473.330078125 40 480.153320312 164 480.153320312 293 c 0
 480.153320312 576.88671875 405.702148438 712 252.596679688 712 c 0
 181.724609375 712 113.248046875 665.926757812 89.923828125 605 c 1
 55.923828125 618 l 1
 84.123046875 692.592773438 166.911132812 749 252.596679688 749 c 0
 430.596679688 749 517.153320312 601.955078125 517.153320312 293 c 0
 517.153320312 145.134765625 507.793945312 3 380.596679688 3 c 0
 331.303710938 3 295.430664062 41.6025390625 295.430664062 90 c 0
 295.430664062 131 316.430664062 147 316.430664062 172 c 0
 316.430664062 200.920898438 291.520507812 207 262.596679688 207 c 0
 233.672851562 207 208.762695312 200.920898438 208.762695312 172 c 0
 208.762695312 147 229.762695312 131 229.762695312 90 c 0
 229.762695312 41.6025390625 193.889648438 3 144.596679688 3 c 0
 30 3 22 153.317382812 22 250.999023438 c 0
192 370 m 0
 192 385.758789062 195 397 195 419 c 1
 230 426 l 1
 230 415.9765625 228 386.337890625 228 370 c 0
 228 346 234.225585938 317 271 317 c 0
 314.1953125 317 315 381.9609375 315 402 c 0
 315 422.0390625 314.1953125 487 271 487 c 0
 247.225585938 487 231 470 227 441 c 1
 196 444 l 1
 201 486 223 523 271 523 c 0
 349.537109375 523 351 430.526367188 351 402 c 0
 351 373.473632812 349.537109375 281 271 281 c 0
 214.008789062 281 192 322.965820312 192 370 c 0
EndSplineSet
Layer: 2
SplineSet
154.112304688 115 m 0
 114.596679688 115 110.26953125 202 110.26953125 265.912109375 c 0
 110.26953125 348 121.883789062 429 153.883789062 429 c 0
 164.791992188 429 167.958007812 422.934570312 168.302734375 412.546875 c 0
 256.596679688 438 l 0
 255.596679688 481 215.883789062 527 151.883789062 527 c 0
 47.8837890625 527 3.5966796875 389 3.5966796875 253 c 0
 3.5966796875 115 34.5966796875 0 146.596679688 0 c 0
 213.071289062 0 246.596679688 47 246.596679688 87 c 0
 246.596679688 118 234.596679688 134.673828125 234.596679688 151 c 0
 234.596679688 164.092773438 245.596679688 177 262.596679688 177 c 1
 262.596679688 258 l 1
 191.596679688 258 152.596679688 225.994140625 152.596679688 178 c 0
 152.596679688 141.00390625 182.112304688 115 154.112304688 115 c 0
383.081054688 115 m 0
 355.081054688 115 372.596679688 141.00390625 372.596679688 178 c 0
 372.596679688 225.994140625 333.596679688 258 262.596679688 258 c 1
 262.596679688 177 l 1
 279.596679688 177 290.596679688 164.092773438 290.596679688 151 c 0
 290.596679688 134.673828125 279.596679688 118 279.596679688 87 c 0
 279.596679688 47 324.122070312 0 390.596679688 0 c 0
 524.596679688 0 538.112304688 181.99609375 538.112304688 293 c 0
 538.112304688 599.055664062 435.805664062 755 235.022460938 755 c 0
 148.301757812 755 63.73046875 707.868164062 27.74609375 613.029296875 c 1
 136.778320312 576.85546875 l 1
 153.833984375 618.959960938 193.918945312 639.884765625 235.022460938 639.884765625 c 0
 359.944335938 639.884765625 423.596679688 522.796875 423.596679688 293 c 0
 423.596679688 239.959960938 422.596679688 115 383.081054688 115 c 0
247.596679688 440 m 1
 253.596679688 446 262.215820312 446.864257812 267.37109375 446.864257812 c 0
 283.762695312 446.864257812 286.73828125 425.854492188 286.73828125 404.020507812 c 0
 286.73828125 382.995117188 280.419921875 364 269.596679688 364 c 0
 251.596679688 364 253.596679688 399 256.596679688 438 c 1
 168.302734375 412.546875 l 1
 162.596679688 346 176.0234375 275 263.596679688 275 c 0
 349.596679688 275 360.596679688 347.137695312 360.596679688 412.094726562 c 0
 360.596679688 469.645507812 330.596679688 526 270.596679688 526 c 0
 237.596679688 526 223.596679688 513 211.596679688 498 c 1
 247.596679688 440 l 1
EndSplineSet
EndChar

StartChar: si_Ra
Encoding: 53 3515 46
Width: 459
VWidth: 0
Flags: HW
LayerCount: 4
Fore
SplineSet
22 263 m 5
 22 379 74 467.831054688 155 548 c 4
 241.100585938 633.958007812 302 697.317382812 302 776 c 5
 338 776 l 5
 338 688 273.689453125 615.532226562 179 521 c 4
 129.528320312 471.610351562 59 379.099609375 59 263 c 13
 38 249 l 5
 22 263 l 5
59 263 m 0
 59 129 122.163085938 40 228.1796875 40 c 0
 338.942382812 40 400 145.860351562 400 276.064453125 c 0
 400 403.182617188 340.5 491 248 491 c 0
 99.2177734375 491 59 341 59 263 c 0
22 263 m 0
 22 309 36.6064453125 395.115234375 79.4990234375 450 c 0
 93.0380859375 467.323242188 115.39453125 475.62890625 135 488 c 1
 164 514 199.086914062 526.629882812 248 526.629882812 c 0
 320.0546875 526.629882812 376.004882812 486.451171875 407.75 420 c 0
 426.677734375 380.37890625 437 331.41796875 437 276.064453125 c 0
 437 125.453125 362.793945312 3 228.1796875 3 c 0
 94.25 3 22 112.3515625 22 263 c 0
EndSplineSet
Layer: 2
SplineSet
1.955078125 276.064453125 m 5
 1.955078125 432 73.2412109375 508.555664062 117 552 c 4
 247.71484375 681.7734375 253 720 253 779 c 5
 374 779 l 5
 374 681.149414062 320.953125 617.001953125 238.955078125 537 c 5
 97 368 l 5
 1.955078125 276.064453125 l 5
53.7705078125 467 m 0
 61.498046875 477.913085938 140.086914062 495.506835938 170.955078125 511 c 1
 196.955078125 538 356.9765625 588 428.169921875 422 c 0
 446.150390625 380.075195312 455.041992188 330.282226562 455.041992188 276.064453125 c 0
 455.041992188 118.177734375 381.000976562 0 228.1796875 0 c 0
 75.9970703125 0 1.955078125 118.176757812 1.955078125 276.064453125 c 0
 1.955078125 351.295898438 19.078125 418.006835938 53.7705078125 467 c 0
230.208984375 440.705078125 m 0
 146.028320312 440.705078125 114.734375 362.481445312 114.734375 274.73828125 c 0
 114.734375 185.564453125 146.028320312 111.424804688 230.208984375 111.424804688 c 0
 311.483398438 111.424804688 341.025390625 185.564453125 341.025390625 274.73828125 c 0
 341.025390625 362.481445312 311.483398438 440.705078125 230.208984375 440.705078125 c 0
EndSplineSet
Layer: 3
SplineSet
228.1796875 489 m 4
 95 489 59 353.173828125 59 263 c 4
 59 129 122.163085938 40 228.1796875 40 c 4
 341 40 400 146 400 276.064453125 c 4
 400 402 332.741210938 489 228.1796875 489 c 4
228.1796875 526.629882812 m 4
 362.681640625 526.629882812 437 425.282226562 437 276.064453125 c 4
 437 125.453125 362.793945312 3 228.1796875 3 c 4
 94.25 3 22 112.3515625 22 263 c 4
 22 384.297851562 71.5048828125 470.900390625 134.965820312 533.903320312 c 4
 248.174804688 646.296875 273.947265625 697.65625 277.807617188 753.5 c 5
 313.807617188 753.5 l 5
 312.3984375 666.537109375 206 558 148 502 c 5
 181 521 199 526.629882812 228.1796875 526.629882812 c 4
EndSplineSet
EndChar

StartChar: si_Ssa
Encoding: 57 3522 47
Width: 555
VWidth: 0
Flags: HW
LayerCount: 4
Fore
SplineSet
211 30 m 1
 203.922851562 52.4462890625 200.723632812 73.73828125 200.723632812 93.9619140625 c 0
 200.723632812 221.833007812 328.627929688 306.974609375 413 371 c 1
 433 371 l 1
 437 350 l 1
 358.057617188 289.916992188 238.385742188 210.01953125 238.385742188 90.0234375 c 0
 238.385742188 71.044921875 241.37890625 51.064453125 248 30 c 1
 228 11 l 1
 211 30 l 1
260.833007812 454 m 0
 260.833007812 466.185546875 261.838867188 477.512695312 263.727539062 488 c 0
 276.423828125 558.491210938 329.08203125 591 385.278320312 591 c 0
 441.984375 591 501.586914062 553 501.586914062 474 c 0
 501.586914062 429.732421875 481.26953125 385.565429688 449.72265625 361 c 1
 423.72265625 382 l 1
 450.72265625 402 468.111328125 437.958984375 468.111328125 474 c 0
 468.111328125 530.04296875 425.663085938 557 385.278320312 557 c 0
 336.916015625 557 294.833984375 524.74609375 294.833984375 454 c 0
 294.833984375 435 294.833984375 416 294.833984375 402 c 1
 277.833984375 369 l 1
 268.1171875 397.663085938 260.833007812 421.383789062 260.833007812 454 c 0
59 224.436523438 m 0
 59 107.2421875 145.024414062 30 277.833984375 30 c 0
 410.643554688 30 496.66796875 106.805664062 496.66796875 224 c 0
 496.66796875 299.407226562 458.19140625 365 374 365 c 2
 181.66796875 365 l 2
 97.4765625 365 59 299.84375 59 224.436523438 c 0
22 224.436523438 m 0
 22 319.693359375 74.9033203125 402 181.66796875 402 c 2
 374 402 l 2
 480.764648438 402 533.66796875 319.256835938 533.66796875 224 c 0
 533.66796875 84.5048828125 433.33984375 -7 277.833984375 -7 c 0
 122.328125 -7 22 84.94140625 22 224.436523438 c 0
54.080078125 474 m 0
 54.080078125 553 113.682617188 591 170.388671875 591 c 0
 226.584960938 591 279.247070312 558.491210938 291.940429688 488 c 0
 293.829101562 477.513671875 294.833007812 466.185546875 294.833007812 454 c 0
 294.833007812 421.383789062 287.548828125 397.663085938 277.833007812 369 c 1
 260.833007812 402 l 1
 260.833007812 416 260.833007812 435 260.833007812 454 c 0
 260.833007812 524.74609375 218.750976562 557 170.388671875 557 c 0
 130.00390625 557 87.5556640625 530.04296875 87.5556640625 474 c 0
 87.5556640625 437.958984375 104.944335938 402 131.944335938 382 c 1
 105.944335938 361 l 1
 74.3974609375 385.565429688 54.080078125 429.732421875 54.080078125 474 c 0
EndSplineSet
Layer: 2
SplineSet
330.478515625 333.436523438 m 5
 394.478515625 360.436523438 l 5
 410.478515625 303.436523438 l 5
 351.478515625 246.436523438 270.478515625 203.436523438 285.478515625 100.436523438 c 5
 219.478515625 36.4365234375 l 5
 193.478515625 103.436523438 l 5
 179.478515625 240.436523438 272.478515625 290.436523438 330.478515625 333.436523438 c 5
357.478515625 416.436523438 m 16
 479.861328125 416.436523438 540.91796875 330.088867188 540.91796875 224.436523438 c 0
 540.91796875 -90.5634765625 11.478515625 -90.5595703125 11.478515625 224.436523438 c 0
 11.478515625 330.088867188 72.53515625 416.436523438 194.91796875 416.436523438 c 0
 214.400390625 416.436523438 225.6796875 416.436523438 225.6796875 416.436523438 c 2
 258.91796875 416.436523438 292.91796875 416.436523438 326.716796875 416.436523438 c 2
 326.716796875 416.436523438 332.435546875 416.436523438 357.478515625 416.436523438 c 16
351.478515625 318.436523438 m 0
 286.491210938 318.436523438 265.905273438 318.436523438 200.91796875 318.436523438 c 0
 145.91796875 318.436523438 118.478515625 276.162109375 118.478515625 224.436523438 c 0
 118.478515625 64.359375 433.91796875 64.9599609375 433.91796875 224.436523438 c 0
 433.91796875 276.162109375 406.478515625 318.436523438 351.478515625 318.436523438 c 0
217.435546875 391.436523438 m 1
 227.19140625 416.436523438 l 1
 228.252929688 422.678710938 228.755859375 428.6484375 228.755859375 434.311523438 c 0
 228.755859375 471.944335938 206.526367188 496 178 496 c 0
 148.64453125 496 132.81640625 475 132.81640625 451.1640625 c 0
 132.81640625 439.108398438 139.452148438 419.560546875 147.435546875 410.436523438 c 1
 69.435546875 370.436523438 l 1
 50.1259765625 395.643554688 39.3408203125 428.604492188 39.3408203125 456.407226562 c 0
 39.3408203125 532.13671875 91.4404296875 594 178 594 c 0
 254.990234375 594 326.384765625 537.3359375 326.384765625 428 c 0
 326.384765625 396.735351562 319.435546875 358.436523438 307.435546875 319.436523438 c 1
 217.435546875 391.436523438 l 1
334.9609375 391.436523438 m 1
 244.9609375 319.436523438 l 1
 232.9609375 358.436523438 226.01171875 396.735351562 226.01171875 428 c 0
 226.01171875 537.3359375 297.40625 594 374.396484375 594 c 0
 460.956054688 594 513.055664062 532.13671875 513.055664062 456.407226562 c 0
 513.055664062 428.604492188 502.270507812 395.643554688 482.9609375 370.436523438 c 1
 404.9609375 410.436523438 l 1
 412.944335938 419.560546875 419.580078125 439.108398438 419.580078125 451.1640625 c 0
 419.580078125 475 403.751953125 496 374.396484375 496 c 0
 345.870117188 496 323.640625 471.944335938 323.640625 434.311523438 c 0
 323.640625 428.6484375 324.143554688 422.678710938 325.205078125 416.436523438 c 1
 334.9609375 391.436523438 l 1
EndSplineSet
EndChar

StartChar: si_Lla
Encoding: 60 3525 48
Width: 522
VWidth: 0
Flags: HW
LayerCount: 4
Fore
SplineSet
214.666015625 591 m 0
 267.736328125 591 290.331054688 564.1875 299.666015625 526 c 1
 308.559570312 565 332.69140625 591 378.666015625 591 c 0
 466.666015625 591 485.666015625 471 455.666015625 343.5 c 1
 420.666015625 354 l 1
 439.756835938 426.081054688 448.880859375 554 378.666015625 554 c 0
 319.388671875 554 317.666015625 475.768554688 317.666015625 435 c 2
 317.666015625 369 l 1
 281.666015625 369 l 1
 281.666015625 435 l 2
 281.666015625 487.811523438 266.892578125 554 214.666015625 554 c 0
 154.043945312 554 144.255859375 464 171.666015625 387 c 0
 178.388671875 368.115234375 180.96875 350.517578125 180.96875 323 c 0
 180.96875 264 223.80859375 200 303.666015625 200 c 0
 376.428710938 200 408.666015625 233 408.666015625 269 c 1
 445.688476562 269 l 1
 445.688476562 216 398.329101562 163 303.666015625 163 c 0
 199.08203125 163 133.390625 242.27734375 143.96875 323 c 0
 147.987304688 353.670898438 143.526367188 353.060546875 136.666015625 376 c 0
 111.749023438 459.319335938 109.666015625 591 214.666015625 591 c 0
59 133 m 0
 59 -39 137.690429688 -112 267.5 -112 c 0
 384.5 -112 447.174804688 -34.6640625 465.5 37 c 1
 500.5 31 l 1
 478.935546875 -55.57421875 413.5 -149 267.5 -149 c 0
 105.666015625 -149 22 -51.72265625 22 133 c 0
 22 286 117.666015625 380.5 211.666015625 380.5 c 0
 455.666015625 380.5 l 1
 455.666015625 343.5 l 1
 211.666015625 343.5 l 0
 130.822265625 343.5 59 262.359375 59 133 c 0
EndSplineSet
Layer: 2
SplineSet
214.297851562 594 m 0
 255.297851562 594 280.297851562 575 297.5 546 c 5
 316.5 575 341.5 594 382.5 594 c 4
 469.5 594 524.5 491 473.5 318 c 1
 444.5 380 l 1
 406.5 416 l 1
 414.5 454 410.5 496 376.5 496 c 4
 342.5 496 339.297851562 456 339.297851562 414 c 6
 339.297851562 322 l 5
 260.5 322 l 1
 260.5 414 l 2
 260.5 458 247.5 496 220.5 496 c 0
 181.5 496 183.376953125 453.931640625 191.5 416 c 0
 196.043945312 394.780273438 196.34765625 378.247070312 195.5 350 c 0
 192.5 250 229.686523438 203 300.5 203 c 0
 340.993164062 203 370.844726562 233.75390625 374.1875 266 c 0
 374.39453125 267.997070312 374.5 272 374.5 272 c 2
 474.5 272 l 1
 474.5 267.004882812 474.264648438 261.997070312 473.7890625 257 c 0
 466.931640625 184.958007812 410.197265625 115 290.5 115 c 0
 177.5 115 107.500976562 203 119.5 299 c 0
 126.025390625 351.206054688 123.185546875 334.03515625 108.5 386 c 0
 82.5 478 96.5 594 214.297851562 594 c 0
-3.5 133 m 0
 -3.5 328.26953125 118.92578125 416 183.702148438 416 c 2
 470.5 416 l 1
 473.5 318 l 1
 212.5 318 l 2
 154.5 318 110.5 260 110.5 133 c 0
 110.5 39.9189453125 161.7109375 -39 267.5 -39 c 0
 342.6484375 -39 395.236328125 9.4287109375 404.063476562 73 c 1
 517.5 57 l 1
 505.165039062 -57.1005859375 414.583984375 -154 267.5 -154 c 0
 81.337890625 -154 -3.5 -22.3154296875 -3.5 133 c 0
EndSplineSet
EndChar

StartChar: si_Fa
Encoding: 61 3526 49
Width: 549
VWidth: 0
Flags: HW
LayerCount: 4
Fore
SplineSet
22 292 m 0
 22 460.068359375 43.216796875 591 156.978515625 591 c 0
 252.14453125 591 271.14453125 509 274.978515625 479 c 1
 278.8125 509 297.8125 591 392.978515625 591 c 0
 506.740234375 591 527.95703125 460.068359375 527.95703125 292 c 0
 527.95703125 126 478.740234375 3 327.740234375 3 c 1
 327.740234375 40 l 1
 450.8359375 40 490.95703125 147.252929688 490.95703125 292 c 0
 490.95703125 439.270507812 470.740234375 554 392.978515625 554 c 0
 301.8125 554 295.220703125 445.114257812 291.978515625 369.5 c 1
 257.978515625 369.5 l 1
 254.736328125 445.114257812 248.14453125 554 156.978515625 554 c 0
 79.216796875 554 59 439.270507812 59 292 c 0
 59 147.252929688 99.12109375 40 222.216796875 40 c 1
 222.216796875 3 l 1
 71.216796875 3 22 126 22 292 c 0
EndSplineSet
Layer: 2
SplineSet
387.21484375 594 m 6
 387.215820312 594 l 6
 533.215820312 594 552.215820312 426 552.215820312 295 c 4
 552.215820312 90 475.215820312 0 322.215820312 0 c 5
 322.215820312 115 l 5
 445.215820312 115 445.215820312 243.274414062 445.215820312 295 c 4
 445.215820312 344.735351562 445.215820312 479 387.215820312 479 c 4
 340.515625 479 324.584960938 417.25 324.584960938 344.5 c 5
 233.372070312 344.5 l 5
 233.372070312 417.25 217.44140625 479 170.741210938 479 c 4
 112.741210938 479 112.741210938 344.735351562 112.741210938 295 c 4
 112.741210938 243.274414062 112.741210938 115 235.741210938 115 c 5
 235.741210938 0 l 5
 82.7412109375 0 5.7412109375 90 5.7412109375 295 c 4
 5.7412109375 426 24.7412109375 594 170.741210938 594 c 4
 223.420898438 594 262.833007812 562.397460938 278.978515625 514.969726562 c 5
 295.123046875 562.397460938 334.53515625 594 387.21484375 594 c 6
EndSplineSet
EndChar

StartChar: si_MatraAa
Encoding: 63 3535 50
Width: 243
VWidth: 0
Flags: HW
LayerCount: 4
Fore
SplineSet
22 530 m 1
 40.578125 536.033203125 58.806640625 539 76.244140625 539 c 0
 157.541992188 539 221.340820312 444.694335938 221.340820312 271 c 0
 221.340820312 97.3056640625 157.541992188 3 76.244140625 3 c 0
 58.806640625 3 40.578125 5.966796875 22 12 c 1
 28 48 l 1
 38.4326171875 44.6396484375 57.2109375 40 76.244140625 40 c 0
 136.810546875 40 184.340820312 121.286132812 184.340820312 271 c 0
 184.340820312 420.713867188 136.810546875 502 76.244140625 502 c 0
 57.2109375 502 38.4326171875 497.360351562 28 494 c 1
 22 530 l 1
EndSplineSet
Layer: 2
SplineSet
246.840820312 271 m 4
 246.840820312 510.697265625 115 562 14 542 c 4
 32 441 l 4
 78 450 131.840820312 419.176757812 131.840820312 271 c 4
 131.840820312 122.823242188 78 92 32 101 c 4
 14 0 l 4
 115 -20 246.840820312 31.302734375 246.840820312 271 c 4
EndSplineSet
EndChar

StartChar: si_MatraAe
Encoding: 64 3536 51
Width: 316
VWidth: 0
Flags: HW
LayerCount: 4
Fore
SplineSet
22 158 m 0
 22 260 86.431640625 334 207 506 c 1
 69.5 506 l 1
 69.5 543 l 1
 253.5 543 l 1
 253.5 506 l 1
 126.762695312 325 59 250 59 158 c 0
 59 79 98 40 161 40 c 0
 241.44921875 40 257 126 257 176 c 1
 294 176 l 1
 294 109 277.755859375 3 161 3 c 0
 75.1474609375 3 22 54.228515625 22 158 c 0
EndSplineSet
Layer: 2
SplineSet
44 546 m 5
 279 546 l 5
 279 451 l 5
 162 295 116 243 116 167 c 4
 116 125 139 111 164 111 c 4
 187 111 216 123 216 179 c 5
 312 179 l 5
 312 101 282 0 160 0 c 4
 41 0 8 104 8 167 c 4
 8 268 74 341 152 447 c 5
 44 447 l 5
 44 546 l 5
EndSplineSet
EndChar

StartChar: si_MatraI
Encoding: 66 3538 52
Width: 512
VWidth: 0
Flags: HW
LayerCount: 4
Fore
SplineSet
22 686 m 4
 22 795.491210938 123.879882812 863 256.499023438 863 c 4
 389.119140625 863 490.999023438 795.491210938 490.999023438 686 c 4
 490.999023438 634.98046875 459.98828125 577.514648438 412.333007812 556 c 5
 388.333007812 561 l 5
 388.333007812 579 l 5
 428.11328125 596.708007812 453.999023438 644.006835938 453.999023438 686 c 4
 453.999023438 769.151367188 374.499023438 826 256.499023438 826 c 4
 138.5 826 59 769.151367188 59 686 c 4
 59 644.006835938 84.8857421875 596.708007812 124.666015625 579 c 5
 124.666015625 561 l 5
 100.666015625 556 l 5
 53.0107421875 577.514648438 22 634.98046875 22 686 c 4
EndSplineSet
Layer: 2
SplineSet
256.5 755 m 4
 167.7265625 755 111.5 718 111.5 661 c 4
 111.5 619 126.5 581 179.5 559 c 5
 186.5 510 l 5
 98.5 503 l 5
 35.5 527 -3.5 598 -3.5 661 c 4
 -3.5 806 118.5 866 256.5 866 c 4
 394.5 866 516.5 806 516.5 661 c 4
 516.5 598 477.5 527 414.5 503 c 5
 326.5 510 l 5
 333.5 559 l 5
 386.5 581 401.5 619 401.5 661 c 4
 401.5 719 345.2734375 755 256.5 755 c 4
EndSplineSet
EndChar

StartChar: si_MatraR
Encoding: 70 3544 56
Width: 641
VWidth: 0
Flags: HW
LayerCount: 4
Fore
SplineSet
48 144 m 0
 48 221.253969461 88.6601198532 283.911998461 152.995714024 283.911998461 c 0
 187.480172675 283.911998461 217.903801045 271.368628265 234 250 c 1
 227 214 l 1
 203.396619537 241.634868744 178.188507752 248.329829141 159.398538481 248.329829141 c 0
 109.920410352 248.329829141 85 198.199233783 85 144 c 0
 85 81.142578125 104 44 148 44 c 0
 166.885245902 44 200.631013169 58.8605213652 223.901330948 58.8605213652 c 0
 230.20370868 58.8605213652 235.737704918 57.7704918033 240 55 c 1
 262 6 l 1
 251.333333333 21 240.777777778 26 229.296296296 26 c 0
 206.333333333 26 179.666666667 6 141 6 c 0
 66 6 48 92.90234375 48 144 c 0
56 371 m 1
 54.6664889866 385.075949586 53.9037747905 394.644489433 53.9037747905 408 c 0
 53.9037747905 484.782174012 79.1131248182 550 166 550 c 0
 235.701171875 550 275.627847796 505.242727988 275.627847796 402 c 0
 275.627847796 290.008905865 260.309668226 209.9688341 260.309668226 144.819789576 c 0
 260.309668226 100.021078788 267.552728297 62.2634530266 292 26 c 1
 262 6 l 1
 229.902928529 50.7355436919 220.566795773 94.2129675623 220.566795773 143.507995773 c 0
 220.566795773 212.071359594 238.627929688 291.889118977 238.627929688 402 c 0
 238.627929688 479.432373047 212.176661591 513 166 513 c 0
 108.338683177 513 91.6083984375 464.774867958 91.6083984375 408 c 0
 91.6088687246 397.405125695 92.1150336002 382.166395761 93 371 c 1
 56 371 l 1
EndSplineSet
Layer: 2
SplineSet
217 269 m 1
 203 192 l 1
 184 204.615234375 129 216.826171875 129 151 c 0
 129 66.0244140625 193 92 209 99 c 1
 256 0 l 1
 223 37 188 3 140 3 c 0
 64 3 38 90 38 143 c 0
 38 316.092773438 181 309 217 269 c 1
300 367 m 0
 292.372070312 238.272460938 264.602539062 130 323 43 c 1
 256 0 l 1
 165 113 188.073242188 184.047851562 207 367 c 0
 212.7421875 422.504882812 208 455 173 455 c 0
 138 455 133 422.478515625 139 367 c 1
 46 367 l 1
 35.58984375 495 79.685546875 552.9296875 173 552.9296875 c 0
 266.314453125 552.9296875 308 502 300 367 c 0
EndSplineSet
EndChar

StartChar: si_MatraLs
Encoding: 77 3551 62
Width: 0
VWidth: 0
Flags: HW
LayerCount: 4
Fore
SplineSet
45 354 m 0
 45 464 76 509 170 509 c 1
 170 472 l 1
 103.824 472 82 437.741935484 82 354 c 0
 82 329 86 285 123 285 c 0
 160 285 115 411 218 411 c 0
 313 411 324 293.564453125 324 221.99609375 c 0
 324 78.35546875 285.331054688 3 200 3 c 0
 135.342857143 3 116.742857143 44.7454545455 107 59 c 1
 137 77 l 1
 143.6 67.5818181818 156.2 40 200 40 c 0
 259.869369015 40 287 102.62395242 287 221.99609375 c 0
 287 279.554005672 279.839622642 374 218 374 c 0
 146 374 216 248 123 248 c 0
 60 248 45 300 45 354 c 0
EndSplineSet
Layer: 2
SplineSet
234.025390625 221.99609375 m 5
 234.025390625 221.99609375 l 5
 234.025390625 270.99609375 233 309.99609375 212 309.99609375 c 4
 176.815429688 309.99609375 216 233 123 233 c 4
 48 233 32.1845703125 295.00390625 32.1845703125 349.00390625 c 4
 32.1845703125 459.00390625 76 512.00390625 170 512.00390625 c 5
 170 435.00390625 l 5
 140 435.00390625 114.184570312 408.00390625 114.184570312 365 c 4
 114.184570312 340 116.887695312 325 132.184570312 325 c 4
 161 325 115 416 218 416 c 4
 313 416 336.184570312 293.564453125 336.184570312 221.99609375 c 4
 336.184570312 78.35546875 285.331054688 0 200 0 c 4
 127 0 99 40 88 54 c 5
 150 112 l 5
 159 103 163 93.5107421875 184 93.5107421875 c 4
 215 93.5107421875 234.025390625 146.381835938 234.025390625 221.99609375 c 5
EndSplineSet
EndChar

StartChar: si_KU
Encoding: 92 -1 77
Width: 810
VWidth: 0
Flags: HW
LayerCount: 4
Fore
SplineSet
618 8 m 5
 596.294625965 -0.769540351867 569.525390625 -22.2552393353 569.525390625 -84 c 4
 569.525390625 -138.228515625 598.000976562 -165 644 -165 c 4
 703.499023438 -165 715 -107.860351562 715 -74.6396484375 c 5
 751 -74.6396484375 l 5
 751 -123.577148438 737.930664062 -201 644 -201 c 4
 575.764648438 -201 533.525390625 -162.330078125 533.525390625 -84 c 4
 533.525390625 0.5634765625 571.760458814 28.570353626 605 42 c 5
 629 33 l 5
 618 8 l 5
735 261 m 4
 735 121.214611872 702.123391125 41.9880562206 618 8 c 5
 605 42 l 5
 673.268547212 69.5822834732 699 140 699 261 c 4
 699 470.148003473 620.182612603 545 530 545 c 4
 461.790226614 545 406.785507632 494.647141463 358 433 c 6
 138 155 l 5
 113 184 l 5
 331 458 l 6
 386.471892699 527.721553208 452.541844057 582 530 582 c 4
 639.393109962 582 735 494.280465411 735 261 c 4
522.04296875 196 m 4
 522.04296875 123.088888889 509.497782939 3 406 3 c 4
 347.939453125 3 323 48 322 79 c 5
 322 48 299.14453125 3 238 3 c 4
 170.808667453 3 154 48.0372295673 154 105 c 4
 154 120.909090909 160.222222222 169.772727273 138 155 c 5
 162 190 l 5
 192.642857143 198.607594937 188 129.746835443 188 105 c 4
 188 68.7001953125 198.005159198 40 238 40 c 4
 293 40 304 108.077148438 304 170 c 5
 340 170 l 5
 340 108.077148438 351 40 406 40 c 4
 482.448449797 40 485 157.618963068 485 196 c 4
 485 336.163390937 433.232648577 387.666992188 374 387.666992188 c 4
 335 387.666992188 316 375 299 360 c 5
 285 382 l 5
 308 402 337 424.666992188 374 424.666992188 c 4
 452.999739503 424.666992188 522.04296875 363.220998319 522.04296875 196 c 4
149.72265625 474 m 4
 149.72265625 407.775810088 193 368 270 356 c 5
 262 325 l 5
 175 338 116.247070312 390.37755102 116.247070312 474 c 4
 116.247070312 553 175.849609375 591 232.555664062 591 c 4
 297.112304688 591 357 548.098632812 357 454 c 4
 323 402 l 5
 323 416 323 435 323 454 c 4
 323 524.74609375 280.91796875 557 232.555664062 557 c 4
 192.169921875 557 149.72265625 530.04296875 149.72265625 474 c 4
EndSplineSet
Layer: 2
SplineSet
518.372070312 473 m 4
 600.372070312 473 646.087890625 399 646.087890625 267 c 4
 646.087890625 157 619.190429688 105 576.087890625 105 c 5
 576.087890625 -0 l 5
 679.6875 0 757.087890625 70 757.087890625 267 c 4
 757.087890625 490 648.372070312 585 518.372070312 585 c 4
 428.372070312 585 376.107254719 545.304738173 327.459960938 489 c 6
 327.459960938 489 239.4599285 386.000029489 219.459960938 364 c 4
 159.520507812 298.06640625 175.459960938 318 108.459960938 249 c 5
 111.459960938 115 l 5
 119.91796875 122.674804688 395.807634658 412.307600323 399.372070312 416 c 4
 438.951171875 457 465.372070312 473 518.372070312 473 c 4
655.087890625 68 m 1
 685.087890625 -8 l 1
 653.087890625 -8 614.087890625 -31 614.087890625 -74 c 0
 614.087890625 -96 621.087890625 -119 649.669921875 -119 c 0
 679.087890625 -119 684.087890625 -92 684.087890625 -71 c 1
 768.087890625 -71 l 1
 768.087890625 -149 741.087890625 -204 650.087890625 -204 c 0
 547.087890625 -204 526.087890625 -131 526.087890625 -89 c 0
 526.087890625 53.84375 635.2421875 62.8515625 655.087890625 68 c 1
112 126 m 1
 151.372070312 214 l 1
 197 206 l 1
 203 197 210.459960938 191.751953125 210.459960938 156 c 0
 210.459960938 138.591796875 212.092773438 109 235.372070312 109 c 0
 254.029296875 109 270.372070312 119 270.372070312 160 c 2
 270.372070312 227 l 1
 360.372070312 227 l 1
 360.372070312 160 l 2
 360.372070312 122 372.372070312 109 398.372070312 109 c 0
 433.372070312 109 438.459960938 165.987304688 438.459960938 210 c 0
 438.459960938 335.987304688 358.372070312 364 307.372070312 346 c 1
 380.372070312 426 l 1
 402.813476562 437 545.459960938 431 545.459960938 210 c 0
 545.459960938 112.106445312 505.415039062 0 399.415039062 -0 c 0
 360.415039062 -0 325.415039062 29 316 52 c 1
 307.415039062 31 276.415039062 0 240 -0 c 0
 83 -0 175.540039062 165 112 126 c 1
239.987304688 594 m 0
 316.977539062 594 388.372070312 537.3359375 388.372070312 428 c 0
 388.372070312 396.735351562 377.459960938 389.899414062 352.459960938 369.899414062 c 1
 289.178710938 416.436523438 l 1
 290.240234375 422.678710938 290.743164062 428.6484375 290.743164062 434.311523438 c 0
 290.743164062 471.944335938 266.8984375 496 238.372070312 496 c 0
 210.538085938 496 196.947265625 475.012695312 196.947265625 451.903320312 c 0
 196.947265625 411.899414062 224.170898438 394.899414062 254.170898438 387.899414062 c 1
 194.459960938 327.899414062 l 1
 149.170898438 344.899414062 104.372070312 391.899414062 104.372070312 461.536132812 c 0
 104.372070312 532.131835938 152.372070312 594 239.987304688 594 c 0
EndSplineSet
EndChar

